SplineFontDB: 3.0
FontName: LetterGothicCode-BI
FullName: Letter Gothic Code Bold Italic
FamilyName: Letter Gothic Code
Weight: Bold
Copyright: (URW)++,Copyright 2014 by (URW)++ Design & Development
Version: 1.00; ttfautohint (v1.6)
ItalicAngle: 0
UnderlinePosition: -567
UnderlineWidth: 143
Ascent: 1626
Descent: 422
InvalidEm: 0
sfntRevision: 0x00010000
LayerCount: 2
Layer: 0 1 "Back" 1
Layer: 1 1 "Fore" 0
XUID: [1021 754 1859939275 32054]
StyleMap: 0x0021
FSType: 0
OS2Version: 1
OS2_WeightWidthSlopeOnly: 0
OS2_UseTypoMetrics: 0
CreationTime: 1456764359
ModificationTime: 1514105782
PfmFamily: 17
TTFWeight: 700
TTFWidth: 5
LineGap: 307
VLineGap: 0
Panose: 2 11 8 9 6 1 1 1 1 1
OS2TypoAscent: 1626
OS2TypoAOffset: 0
OS2TypoDescent: -422
OS2TypoDOffset: 0
OS2TypoLinegap: 0
OS2WinAscent: 1974
OS2WinAOffset: 0
OS2WinDescent: 440
OS2WinDOffset: 0
HheadAscent: 1626
HheadAOffset: 0
HheadDescent: -422
HheadDOffset: 0
OS2SubXSize: 938
OS2SubYSize: 1161
OS2SubXOff: 0
OS2SubYOff: 307
OS2SupXSize: 938
OS2SupYSize: 1161
OS2SupXOff: 0
OS2SupYOff: -521
OS2StrikeYSize: 131
OS2StrikeYPos: 799
OS2FamilyClass: 2057
OS2Vendor: 'URW '
OS2CodePages: 2000009d.00000000
OS2UnicodeRanges: 800002ef.100178ef.00000000.00000000
MarkAttachClasses: 1
DEI: 91125
TtTable: prep
PUSHW_1
 511
SCANCTRL
PUSHB_1
 1
SCANTYPE
SVTCA[y-axis]
MPPEM
PUSHB_1
 8
LT
IF
PUSHB_2
 1
 1
INSTCTRL
EIF
PUSHB_2
 70
 6
CALL
IF
POP
PUSHB_1
 16
EIF
MPPEM
PUSHB_1
 20
GT
IF
POP
PUSHB_1
 128
EIF
SCVTCI
PUSHB_1
 6
CALL
NOT
IF
SVTCA[y-axis]
PUSHB_1
 4
DUP
RCVT
PUSHB_1
 3
CALL
WCVTP
PUSHB_1
 8
DUP
RCVT
PUSHB_3
 4
 81
 2
CALL
PUSHB_1
 3
CALL
WCVTP
PUSHB_1
 7
DUP
RCVT
PUSHB_3
 8
 15
 2
CALL
PUSHB_1
 3
CALL
WCVTP
PUSHB_1
 6
DUP
RCVT
PUSHB_3
 7
 40
 2
CALL
PUSHB_1
 3
CALL
WCVTP
PUSHB_1
 5
DUP
RCVT
PUSHB_3
 6
 174
 2
CALL
PUSHB_1
 3
CALL
WCVTP
PUSHB_1
 9
DUP
RCVT
PUSHB_3
 4
 138
 2
CALL
PUSHB_1
 3
CALL
WCVTP
SVTCA[x-axis]
PUSHB_1
 10
DUP
RCVT
PUSHB_1
 3
CALL
WCVTP
PUSHB_1
 11
DUP
RCVT
PUSHW_3
 10
 32767
 2
CALL
PUSHB_2
 3
 70
SROUND
CALL

StartChar: .notdef
Encoding: 65536 -1 0
Width: 1120
Flags: W
HStem: 0 102<252 868> 1373 102<252 868>
VStem: 150 102<102 1373> 868 102<102 1373>
LayerCount: 2
Fore
SplineSet
150 0 m 1,0,-1
 150 1475 l 1,1,-1
 970 1475 l 1,2,-1
 970 0 l 1,3,-1
 150 0 l 1,0,-1
252 102 m 1,4,-1
 868 102 l 1,5,-1
 868 1373 l 1,6,-1
 252 1373 l 1,7,-1
 252 102 l 1,4,-1
EndSplineSet
EndChar

StartChar: .null
Encoding: 65537 -1 1
Width: 1120
Flags: W
HStem: -27 223<352.826 585.429> 1280 223<532.943 765.948>
VStem: 52 240<263.054 780.906> 828 240<700.56 1212.66>
LayerCount: 2
Fore
SplineSet
52 393 m 1,0,1
 52 399 l 2,2,3
 52 534 52 534 97 782 c 128,-1,4
 142 1030 142 1030 217.5 1179.5 c 128,-1,5
 293 1329 293 1329 418 1416 c 0,6,7
 544 1503 544 1503 700 1503 c 0,8,9
 807 1503 807 1503 892 1452 c 0,10,11
 1063 1350 1063 1350 1067 1082 c 0,12,13
 1067 1079 1067 1079 1068 1076 c 0,14,15
 1068 944 1068 944 1023 695.5 c 128,-1,16
 978 447 978 447 903 297 c 128,-1,17
 828 147 828 147 703 60 c 0,18,19
 577.558139535 -27 577.558139535 -27 445.779069767 -27 c 128,-1,20
 314 -27 314 -27 227.5 24.5 c 0,21,22
 56.0676849089 126.566638465 56.0676849089 126.566638465 52 393 c 1,0,1
828 1028 m 0,23,24
 828 1280 828 1280 646 1280 c 0,25,26
 577 1280 577 1280 505 1212 c 0,27,28
 390 1098 390 1098 329 760 c 0,29,30
 292 554.1875 292 554.1875 292 455 c 0,31,32
 292 290 292 290 363 231 c 0,33,34
 404 196 404 196 474 196 c 128,-1,35
 544 196 544 196 609.5 261 c 128,-1,36
 675 326 675 326 716 433 c 0,37,38
 758 540 758 540 790 717 c 0,39,40
 828 927.1875 828 927.1875 828 1028 c 0,23,24
EndSplineSet
EndChar

StartChar: nonmarkingreturn
Encoding: 65538 -1 2
Width: 1120
Flags: W
HStem: -27 223<352.826 585.429> 574 361<470.953 661.46> 1280 223<532.943 765.948>
VStem: 52 240<263.054 780.906> 384 366<658.11 850.931> 828 240<700.56 1212.66>
LayerCount: 2
Fore
SplineSet
52 393 m 1,0,-1
 52 399 l 2,1,2
 52 534 52 534 97 782 c 128,-1,3
 142 1030 142 1030 217.5 1179.5 c 128,-1,4
 293 1329 293 1329 418 1416 c 0,5,6
 544 1503 544 1503 700 1503 c 0,7,8
 807 1503 807 1503 892 1452 c 0,9,10
 1063 1350 1063 1350 1067 1082 c 0,11,12
 1067 1079 1067 1079 1068 1076 c 0,13,14
 1068 944 1068 944 1023 695.5 c 128,-1,15
 978 447 978 447 903 297 c 128,-1,16
 828 147 828 147 703 60 c 0,17,18
 577.558139535 -27 577.558139535 -27 445.779069767 -27 c 128,-1,19
 314 -27 314 -27 227.5 24.5 c 0,20,21
 56.0676849089 126.566638465 56.0676849089 126.566638465 52 393 c 1,0,-1
828 1028 m 0,22,23
 828 1280 828 1280 646 1280 c 0,24,25
 577 1280 577 1280 505 1212 c 0,26,27
 390 1098 390 1098 329 760 c 0,28,29
 292 554.1875 292 554.1875 292 455 c 0,30,31
 292 290 292 290 363 231 c 0,32,33
 404 196 404 196 474 196 c 128,-1,34
 544 196 544 196 609.5 261 c 128,-1,35
 675 326 675 326 716 433 c 0,36,37
 758 540 758 540 790 717 c 0,38,39
 828 927.1875 828 927.1875 828 1028 c 0,22,23
384 724 m 4,40,41
 384 817.471544715 384 817.471544715 453.5 876.235772358 c 132,-1,42
 523 935 523 935 597.5 935 c 132,-1,43
 672 935 672 935 711.5 887.5 c 132,-1,44
 751 840 751 840 750 786 c 4,45,46
 750 691.528455285 750 691.528455285 680.5 632.764227642 c 132,-1,47
 611 574 611 574 536.5 574 c 132,-1,48
 462 574 462 574 423 622 c 132,-1,49
 384 670 384 670 384 724 c 4,40,41
EndSplineSet
EndChar

StartChar: exclam
Encoding: 33 33 4
Width: 1120
Flags: W
HStem: -50 372<364.369 558.556>
VStem: 272 378<37.834 234.245>
LayerCount: 2
Fore
SplineSet
272 103 m 4,0,1
 272 202.558139535 272 202.558139535 344 262.279069767 c 132,-1,2
 416 322 416 322 494 322 c 132,-1,3
 572 322 572 322 611 272.5 c 132,-1,4
 650 223 650 223 650 168 c 4,5,6
 650 69.6377952756 650 69.6377952756 579 9.8188976378 c 132,-1,7
 508 -50 508 -50 430 -50 c 132,-1,8
 352 -50 352 -50 312 -1.5 c 132,-1,9
 272 47 272 47 272 103 c 4,0,1
406 407 m 1,10,-1
 556 1476 l 1,11,-1
 560 1508 l 1,12,-1
 562 1517 l 1,13,-1
 848 1517 l 1,14,-1
 624 416 l 1,15,-1
 622 407 l 1,16,-1
 406 407 l 1,10,-1
EndSplineSet
EndChar

StartChar: quotedbl
Encoding: 34 34 5
Width: 1120
Flags: W
LayerCount: 2
Fore
SplineSet
77 899 m 1,0,-1
 296 1554 l 1,1,-1
 562 1522 l 1,2,-1
 597 1517 l 1,3,-1
 612 1515 l 1,4,-1
 322 874 l 1,5,-1
 318 867 l 1,6,-1
 90 897 l 1,7,-1
 77 899 l 1,0,-1
508 899 m 1,8,-1
 727 1554 l 1,9,-1
 993 1522 l 1,10,-1
 1028 1517 l 1,11,-1
 1043 1515 l 1,12,-1
 753 874 l 1,13,-1
 749 867 l 1,14,-1
 521 897 l 1,15,-1
 508 899 l 1,8,-1
EndSplineSet
EndChar

StartChar: numbersign
Encoding: 35 35 6
Width: 1120
Flags: W
HStem: 438 193<64 207 778 924> 834 205<206 351 924 1066>
DStem2: -33 -222 178 -222 0.340668 0.940184<71.8809 702.282 907.243 1123.65 1340.92 2016.63> 257 -222 466 -222 0.340668 0.940184<71.1996 774.162 979.465 1195.53 1412.8 2016.63>
LayerCount: 2
Fore
SplineSet
-33 -222 m 1,0,-1
 207 438 l 1,1,-1
 -15 438 l 1,2,-1
 55 607 l 1,3,-1
 64 631 l 1,4,-1
 276 631 l 1,5,-1
 351 834 l 1,6,-1
 132 834 l 1,7,-1
 198 1014 l 1,8,-1
 206 1039 l 1,9,-1
 423 1039 l 1,10,-1
 646 1649 l 1,11,-1
 654 1674 l 1,12,-1
 864 1674 l 1,13,-1
 186 -197 l 1,14,-1
 178 -222 l 1,15,-1
 -33 -222 l 1,0,-1
257 -222 m 1,16,-1
 936 1649 l 1,17,-1
 944 1674 l 1,18,-1
 1153 1674 l 1,19,-1
 924 1039 l 1,20,-1
 1144 1039 l 1,21,-1
 1066 834 l 1,22,-1
 852 834 l 1,23,-1
 778 631 l 1,24,-1
 998 631 l 1,25,-1
 924 438 l 1,26,-1
 708 438 l 1,27,-1
 474 -197 l 1,28,-1
 466 -222 l 1,29,-1
 257 -222 l 1,16,-1
EndSplineSet
EndChar

StartChar: dollar
Encoding: 36 36 7
Width: 1120
Flags: W
VStem: 229 218<939.548 1140.37> 717 221<365.945 615.366>
DStem2: 326 -62 533 -62 0.173466 0.98484<35.9075 190.874 412.558 740.549 1007.32 1270.37 1488.97 1608.38>
LayerCount: 2
Fore
SplineSet
461 706 m 1,0,1
 229 797.924528302 229 797.924528302 229 993 c 0,2,3
 229 1172.84892086 229 1172.84892086 398 1292 c 0,4,5
 490 1357 490 1357 579 1374 c 1,6,-1
 605 1522 l 1,7,-1
 812 1522 l 1,8,-1
 786 1371 l 1,9,10
 933 1344 933 1344 1051 1230 c 1,11,-1
 1071 1212 l 1,12,-1
 915 1055 l 1,13,-1
 895 1075 l 2,14,15
 883 1086 883 1086 865 1105 c 128,-1,16
 847 1124 847 1124 812.5 1147 c 128,-1,17
 778 1170 778 1170 752 1179 c 1,18,-1
 694 849 l 1,19,20
 771 817 771 817 825 777 c 0,21,22
 938 690 938 690 938 548 c 0,23,24
 938 514 938 514 931 476 c 0,25,26
 906 336 906 336 812.5 247.5 c 128,-1,27
 719 159 719 159 567 128 c 1,28,-1
 533 -62 l 1,29,-1
 326 -62 l 1,30,-1
 359 126 l 1,31,32
 281 136 281 136 219.5 166.5 c 128,-1,33
 158 197 158 197 84 274 c 1,34,-1
 49 309 l 1,35,-1
 209 459 l 1,36,-1
 229 439 l 2,37,38
 335 332 335 332 393 318 c 1,39,-1
 461 706 l 1,0,1
501 930 m 1,40,-1
 547 1189 l 1,41,42
 526 1178 526 1178 491.5 1142 c 0,43,44
 447 1095.56521739 447 1095.56521739 447 1036.2826087 c 128,-1,45
 447 977 447 977 501 930 c 1,40,-1
598 309 m 1,46,47
 601 311 601 311 617.5 320 c 128,-1,48
 634 329 634 329 668 360.5 c 0,49,50
 717 405.897058824 717 405.897058824 717 493.448529412 c 128,-1,51
 717 581 717 581 655 632 c 1,52,-1
 598 309 l 1,46,47
EndSplineSet
EndChar

StartChar: percent
Encoding: 37 37 8
Width: 1120
Flags: W
HStem: -27 21G<-105 142> -12 175<673.375 761.682> 518 186<721.126 920.344> 816 186<223.537 426.624> 1346 186<381.389 581.429> 1481 20G<962 1225>
VStem: 117 212<1002.41 1282.83> 456 215<165.853 461.034> 475 215<1054.42 1344.99> 814 215<219.859 516.995>
DStem2: -105 -27 142 -22 0.577899 0.816108<141.007 779.206 959.854 1120.06 1289.08 1872.3>
LayerCount: 2
Fore
SplineSet
674 -12 m 0,0,1
 456 -12 456 -12 456 224 c 0,2,3
 456 364.576923077 456 364.576923077 509 493 c 1,4,-1
 142 -22 l 1,5,-1
 139 -27 l 1,6,-1
 -105 -27 l 1,7,-1
 541 888 l 1,8,9
 455 816 455 816 335 816 c 0,10,11
 117 816 117 816 117 1051 c 0,12,13
 117 1109 117 1109 130 1182 c 0,14,15
 192.962962963 1532 192.962962963 1532 471 1532 c 0,16,17
 690 1532 690 1532 690 1295 c 0,18,19
 690 1161.36363636 690 1161.36363636 640 1025 c 1,20,-1
 962 1481 l 1,21,-1
 977 1501 l 1,22,-1
 1225 1501 l 1,23,-1
 614 640 l 1,24,25
 693 704 693 704 810 704 c 0,26,27
 1029 704 1029 704 1029 467 c 0,28,29
 1029 412 1029 412 1014 327 c 0,30,31
 982.281708945 147.263017356 982.281708945 147.263017356 893 70 c 0,32,33
 803 -13 803 -13 674 -12 c 0,0,1
329 1065 m 0,34,35
 329 1002 329 1002 373 1002 c 0,36,37
 433.719101124 1002 433.719101124 1002 465 1176 c 0,38,39
 475 1232 475 1232 475 1270 c 0,40,41
 475 1346 475 1346 436 1346 c 0,42,43
 373 1346 373 1346 342 1173 c 0,44,45
 329 1104 329 1104 329 1065 c 0,34,35
671 241 m 0,46,47
 671 163 671 163 709 163 c 0,48,49
 772 163 772 163 804 342 c 0,50,51
 814 401 814 401 814 441 c 0,52,53
 814 518 814 518 777 518 c 0,54,55
 713.08490566 518 713.08490566 518 681 339 c 0,56,57
 671 281 671 281 671 241 c 0,46,47
EndSplineSet
EndChar

StartChar: ampersand
Encoding: 38 38 9
Width: 1120
Flags: W
HStem: -69 223<317.125 577.414> 1321 223<593.807 744.75>
VStem: 51 240<182.949 429.718> 305 239<996.683 1271.12> 697 240<1107.69 1296.76>
LayerCount: 2
Fore
SplineSet
747 75 m 1,0,1
 591.164383562 -69 591.164383562 -69 374 -69 c 0,2,3
 217 -69 217 -69 123 30 c 0,4,5
 52 105 52 105 51 223 c 0,6,7
 51 263 51 263 59 308 c 0,8,9
 82 443 82 443 153.5 550 c 128,-1,10
 225 657 225 657 380 810 c 1,11,12
 305 977.307692308 305 977.307692308 305 1079 c 0,13,14
 305 1124 305 1124 314 1174 c 0,15,16
 351 1382 351 1382 514 1485 c 0,17,18
 606 1544 606 1544 698.5 1544 c 128,-1,19
 791 1544 791 1544 864.5 1475.5 c 128,-1,20
 938 1407 938 1407 937 1288 c 0,21,22
 937 1137.5 937 1137.5 850 1007 c 0,23,24
 792 920 792 920 664 791 c 1,25,26
 685 724 685 724 697.5 695.5 c 128,-1,27
 710 667 710 667 776 531 c 1,28,29
 797 612 797 612 812 697 c 2,30,-1
 827 787 l 1,31,-1
 829 796 l 1,32,-1
 1068 796 l 1,33,-1
 1065 783 l 1,34,-1
 1059 751 l 1,35,36
 996 438 996 438 908 276 c 1,37,38
 984 167 984 167 1044 97 c 1,39,-1
 1062 75 l 1,40,-1
 1069 67 l 1,41,-1
 886 -91 l 1,42,-1
 878 -99 l 1,43,-1
 852 -66 l 1,44,45
 789 17 789 17 747 75 c 1,0,1
433 561 m 2,46,47
 291 416.50877193 291 416.50877193 291 253.5 c 0,48,49
 291 222 291 222 320.5 188 c 128,-1,50
 350 154 350 154 421 154 c 0,51,52
 550 154 550 154 645 253 c 1,53,54
 535 473 535 473 475 604 c 1,55,-1
 433 561 l 2,46,47
566 994 m 1,56,57
 640 1083 640 1083 668.5 1132.39583333 c 128,-1,58
 697 1181.79166667 697 1181.79166667 697 1227.89583333 c 128,-1,59
 697 1274 697 1274 685.5 1297.5 c 128,-1,60
 674 1321 674 1321 651.5 1321 c 128,-1,61
 629 1321 629 1321 586.5 1269.1969697 c 128,-1,62
 544 1217.39393939 544 1217.39393939 544 1096 c 0,63,64
 544 1056 544 1056 566 994 c 1,56,57
EndSplineSet
EndChar

StartChar: quotesingle
Encoding: 39 39 10
Width: 1120
Flags: W
VStem: 315 490
LayerCount: 2
Fore
SplineSet
315 900 m 1,0,-1
 514 1546 l 1,1,-1
 517 1555 l 1,2,-1
 792 1516 l 1,3,-1
 805 1514 l 1,4,-1
 543 874 l 1,5,-1
 540 866 l 1,6,-1
 357 893 l 1,7,-1
 315 900 l 1,0,-1
EndSplineSet
EndChar

StartChar: parenleft
Encoding: 40 40 11
Width: 1120
Flags: W
VStem: 195 235<256.437 827.888>
LayerCount: 2
Fore
SplineSet
195 511 m 0,0,1
 195 617 195 617 215 732 c 0,2,3
 264 1014 264 1014 410 1232.5 c 128,-1,4
 556 1451 556 1451 742 1569 c 0,5,6
 757 1578 757 1578 794 1602 c 2,7,-1
 822 1620 l 1,8,-1
 832 1627 l 1,9,-1
 920 1468 l 1,10,-1
 925 1460 l 1,11,-1
 892 1435 l 1,12,13
 791 1363 791 1363 738 1313 c 0,14,15
 516 1103 516 1103 445 694 c 0,16,17
 430 609 430 609 430 509.5 c 128,-1,18
 430 410 430 410 456.5 313 c 128,-1,19
 483 216 483 216 520 159.5 c 128,-1,20
 557 103 557 103 640 25 c 1,21,-1
 661 7 l 1,22,-1
 670 -0 l 1,23,-1
 519 -165 l 1,24,-1
 470 -126 l 1,25,26
 195 95.3983050847 195 95.3983050847 195 511 c 0,0,1
EndSplineSet
EndChar

StartChar: parenright
Encoding: 41 41 12
Width: 1120
Flags: W
VStem: 689.964 234<625.623 1204.93>
LayerCount: 2
Fore
SplineSet
195.963867188 1 m 1,0,-1
 227.963867188 26 l 2,1,2
 242.963867188 37 242.963867188 37 252.963867188 43 c 0,3,4
 368.963867188 125 368.963867188 125 436.963867188 205 c 0,5,6
 613.963867188 413 613.963867188 413 669.963867188 732 c 0,7,8
 689.963867188 846 689.963867188 846 689.963867188 945 c 0,9,10
 689.963867188 1188 689.963867188 1188 568.963867188 1341 c 0,11,12
 541.963867188 1374 541.963867188 1374 478.963867188 1436 c 2,13,-1
 450.963867188 1463 l 1,14,-1
 595.963867188 1618 l 1,15,-1
 602.963867188 1626 l 1,16,-1
 632.963867188 1602 l 1,17,18
 731.963867188 1521 731.963867188 1521 778.963867188 1455 c 0,19,20
 927.2578125 1245.29199219 927.2578125 1245.29199219 923.963867188 939 c 0,21,22
 923.963867188 835 923.963867188 835 905.963867188 728 c 0,23,24
 856.963867188 446 856.963867188 446 708.463867188 226 c 128,-1,25
 559.963867188 6 559.963867188 6 377.963867188 -109 c 1,26,-1
 299.963867188 -159 l 1,27,-1
 289.963867188 -166 l 1,28,-1
 199.963867188 -7 l 1,29,-1
 195.963867188 1 l 1,0,-1
EndSplineSet
EndChar

StartChar: asterisk
Encoding: 42 42 13
Width: 1120
Flags: W
DStem2: 127 1264 24 1051 0.955779 -0.294086<0 317.613> 91 666 252 538 0.690415 0.723413<7.97277 393.966> 465 1160 695 1161 0.17225 0.985053<40.6025 372.539> 721 949 520 814 0.524599 -0.851349<9.48775 332.539> 695 1161 721 949 0.965591 0.260066<0 358.335>
LayerCount: 2
Fore
SplineSet
24 1051 m 1,0,-1
 127 1264 l 1,1,-1
 465 1160 l 1,2,-1
 528 1518 l 1,3,-1
 529 1527 l 1,4,-1
 759 1527 l 1,5,-1
 695 1161 l 1,6,-1
 1025 1254 l 1,7,-1
 1069 1265 l 1,8,-1
 1095 1059 l 1,9,-1
 1096 1050 l 1,10,-1
 721 949 l 1,11,-1
 872 698 l 1,12,-1
 894 665 l 1,13,-1
 695 530 l 1,14,-1
 520 814 l 1,15,-1
 252 538 l 1,16,-1
 244 531 l 1,17,-1
 91 666 l 1,18,-1
 363 951 l 1,19,-1
 24 1051 l 1,0,-1
EndSplineSet
EndChar

StartChar: plus
Encoding: 43 43 14
Width: 1120
Flags: W
HStem: 622 227<37 426 694 1083>
DStem2: 340 138 569 147 0.17473 0.984616<39.8385 491.581 761.917 1216.61>
LayerCount: 2
Fore
SplineSet
-3 622 m 1,0,-1
 36 840 l 1,1,-1
 37 849 l 1,2,-1
 466 849 l 1,3,-1
 551 1327 l 1,4,-1
 552 1336 l 1,5,-1
 780 1336 l 1,6,-1
 694 849 l 1,7,-1
 1123 849 l 1,8,-1
 1084 631 l 1,9,-1
 1083 622 l 1,10,-1
 654 622 l 1,11,-1
 569 147 l 1,12,-1
 568 138 l 1,13,-1
 340 138 l 1,14,-1
 426 622 l 1,15,-1
 -3 622 l 1,0,-1
EndSplineSet
EndChar

StartChar: comma
Encoding: 44 44 15
Width: 1120
Flags: W
HStem: -289 616
VStem: 395.392 387<8.37814 235.969>
LayerCount: 2
Fore
SplineSet
337.391601562 -289 m 5,0,-1
 371.391601562 -96 l 5,1,2
 433.391601562 -70 433.391601562 -70 471.391601562 -16 c 1,3,-1
 445.391601562 2 l 1,4,5
 395.391601562 38 395.391601562 38 395.391601562 101 c 0,6,7
 395.391601562 116 395.391601562 116 397.391601562 133 c 0,8,9
 414.391601562 231 414.391601562 231 483.891601562 279 c 128,-1,10
 553.391601562 327 553.391601562 327 627.391601562 327 c 128,-1,11
 701.391601562 327 701.391601562 327 741.891601562 275 c 128,-1,12
 782.391601562 223 782.391601562 223 782.391601562 157 c 0,13,14
 788.030273438 10.396484375 788.030273438 10.396484375 647.391601562 -97 c 0,15,16
 453.391601562 -244 453.391601562 -244 337.391601562 -289 c 5,0,-1
EndSplineSet
EndChar

StartChar: hyphen
Encoding: 45 45 16
Width: 1120
Flags: W
HStem: 626 215<270 850>
VStem: 232 656
LayerCount: 2
Fore
SplineSet
232 626 m 1,0,-1
 269 832 l 1,1,-1
 270 841 l 1,2,-1
 888 841 l 1,3,-1
 851 635 l 1,4,-1
 850 626 l 1,5,-1
 232 626 l 1,0,-1
EndSplineSet
EndChar

StartChar: period
Encoding: 46 46 17
Width: 1120
Flags: W
HStem: -55 382<464.547 653.575>
VStem: 366 388
LayerCount: 2
Fore
SplineSet
366 99 m 0,0,1
 366 200.684210526 366 200.684210526 441 263.842105263 c 128,-1,2
 516 327 516 327 595.5 327 c 128,-1,3
 675 327 675 327 715 277.5 c 128,-1,4
 755 228 755 228 754 171 c 0,5,6
 754 71.4242424242 754 71.4242424242 679 8.21212121212 c 128,-1,7
 604 -55 604 -55 524.5 -55 c 128,-1,8
 445 -55 445 -55 405 -6.5 c 128,-1,9
 365 42 365 42 366 99 c 0,0,1
EndSplineSet
EndChar

StartChar: slash
Encoding: 47 47 18
Width: 1120
Flags: W
DStem2: -34 -95 211 -89 0.494558 0.869144<119.189 1915.97>
LayerCount: 2
Fore
SplineSet
-34 -95 m 1,0,-1
 910 1564 l 1,1,-1
 914 1570 l 1,2,-1
 1154 1570 l 1,3,-1
 211 -89 l 1,4,-1
 207 -95 l 1,5,-1
 -34 -95 l 1,0,-1
EndSplineSet
EndChar

StartChar: zero
Encoding: 48 48 19
Width: 1120
Flags: W
HStem: -27 223<352.826 585.429> 556 361<465.625 656.21> 1280 223<532.943 765.948>
VStem: 52 240<263.054 780.906> 378.5 366<640.263 832.778> 828 240<700.56 1212.66>
LayerCount: 2
Fore
SplineSet
52 393 m 1,0,-1
 52 399 l 2,1,2
 52 534 52 534 97 782 c 128,-1,3
 142 1030 142 1030 217.5 1179.5 c 128,-1,4
 293 1329 293 1329 418 1416 c 0,5,6
 544 1503 544 1503 700 1503 c 0,7,8
 807 1503 807 1503 892 1452 c 0,9,10
 1063 1350 1063 1350 1067 1082 c 0,11,12
 1067 1079 1067 1079 1068 1076 c 0,13,14
 1068 944 1068 944 1023 695.5 c 128,-1,15
 978 447 978 447 903 297 c 128,-1,16
 828 147 828 147 703 60 c 0,17,18
 577.558139535 -27 577.558139535 -27 445.779069767 -27 c 128,-1,19
 314 -27 314 -27 227.5 24.5 c 0,20,21
 56.0676849089 126.566638465 56.0676849089 126.566638465 52 393 c 1,0,-1
828 1028 m 0,22,23
 828 1280 828 1280 646 1280 c 0,24,25
 577 1280 577 1280 505 1212 c 0,26,27
 390 1098 390 1098 329 760 c 0,28,29
 292 554.1875 292 554.1875 292 455 c 0,30,31
 292 290 292 290 363 231 c 0,32,33
 404 196 404 196 474 196 c 128,-1,34
 544 196 544 196 609.5 261 c 128,-1,35
 675 326 675 326 716 433 c 0,36,37
 758 540 758 540 790 717 c 0,38,39
 828 927.1875 828 927.1875 828 1028 c 0,22,23
378.5 706 m 4,40,41
 379 799 379 799 448 858.235351562 c 4,42,43
 517 917 517 917 592 917 c 132,-1,44
 667 917 667 917 706 869.5 c 132,-1,45
 745 822 745 822 744.5 768 c 4,46,47
 745 674 745 674 675 614.764648438 c 4,48,49
 605 556 605 556 531 556 c 132,-1,50
 457 556 457 556 417.5 604 c 4,51,52
 379 652 379 652 378.5 706 c 4,40,41
EndSplineSet
EndChar

StartChar: one
Encoding: 49 49 20
Width: 1120
Flags: W
HStem: 0 215<190 471 702 930> 1113 21G<344.502 413.941> 1462 20G<858.368 927.385>
DStem2: 471 215 702 215 0.17786 0.984056<41.0857 999.342>
LayerCount: 2
Fore
SplineSet
152 0 m 1,0,-1
 189 206 l 1,1,-1
 190 215 l 1,2,-1
 471 215 l 1,3,-1
 651 1198 l 1,4,-1
 341 1113 l 1,5,-1
 379 1330 l 1,6,-1
 931 1482 l 1,7,-1
 702 215 l 1,8,-1
 968 215 l 1,9,-1
 931 9 l 1,10,-1
 930 0 l 1,11,-1
 152 0 l 1,0,-1
EndSplineSet
EndChar

StartChar: two
Encoding: 50 50 21
Width: 1120
Flags: W
HStem: 0 215<287.993 913.993> 1279 224<577.346 841.651>
VStem: 874.993 240<1018.92 1238.78>
DStem2: 506.993 745 489.993 488 0.796658 0.60443<-406.461 470.355>
LayerCount: 2
Fore
SplineSet
4.9931640625 0 m 1,0,-1
 23.9931640625 105 l 2,1,2
 71.9931640625 373 71.9931640625 373 246.993164062 537 c 0,3,4
 336.993164062 622 336.993164062 622 506.993164062 745 c 128,-1,5
 676.993164062 868 676.993164062 868 719.993164062 902 c 0,6,7
 874.993164062 1026.46972656 874.993164062 1026.46972656 874.993164062 1152 c 0,8,9
 874.993164062 1201 874.993164062 1201 841.993164062 1240 c 128,-1,10
 808.993164062 1279 808.993164062 1279 715.993164062 1279 c 0,11,12
 520.993164062 1279 520.993164062 1279 449.993164062 1017 c 1,13,-1
 441.993164062 989 l 1,14,-1
 439.993164062 981 l 1,15,-1
 202.993164062 981 l 1,16,-1
 216.993164062 1030 l 2,17,18
 257.993164062 1170 257.993164062 1170 315.993164062 1261.5 c 128,-1,19
 373.993164062 1353 373.993164062 1353 486.993164062 1428 c 128,-1,20
 599.993164062 1503 599.993164062 1503 778.493164062 1503 c 128,-1,21
 956.993164062 1503 956.993164062 1503 1047.99316406 1396 c 0,22,23
 1115.99316406 1316 1115.99316406 1316 1114.99316406 1200 c 0,24,25
 1114.99316406 976.221679688 1114.99316406 976.221679688 891.993164062 793 c 0,26,27
 832.993164062 745 832.993164062 745 682.493164062 633.5 c 128,-1,28
 531.993164062 522 531.993164062 522 489.993164062 488 c 0,29,30
 376.993164062 399 376.993164062 399 324.993164062 306 c 0,31,32
 304.993164062 269 304.993164062 269 287.993164062 215 c 1,33,-1
 951.993164062 215 l 1,34,-1
 915.993164062 9 l 1,35,-1
 913.993164062 0 l 1,36,-1
 4.9931640625 0 l 1,0,-1
EndSplineSet
EndChar

StartChar: three
Encoding: 51 51 22
Width: 1120
Flags: W
HStem: -28 224<350.775 682.641> 679 208<503 729.372> 1280 223<535.2 815.11>
VStem: 815 239<328.507 600.294> 866 240<1005.34 1229.93>
DStem2: 192 1178 373 1063 0.630593 0.776114<24.8842 321.216>
LayerCount: 2
Fore
SplineSet
14 312 m 1,0,-1
 245 433 l 1,1,-1
 258 391 l 2,2,3
 263 375 263 375 266 365 c 0,4,5
 320 196 320 196 498 196 c 0,6,7
 636 196 636 196 714 264 c 0,8,9
 815 352.051282051 815 352.051282051 815 483 c 0,10,11
 815 557 815 557 756.5 618 c 128,-1,12
 698 679 698 679 559 679 c 2,13,-1
 467 679 l 1,14,-1
 502 878 l 1,15,-1
 503 887 l 1,16,-1
 512 887 l 1,17,-1
 542 888 l 2,18,19
 558 889 558 889 569 889 c 0,20,21
 654 891 654 891 725 929 c 0,22,23
 866 1004.27966102 866 1004.27966102 866 1129 c 0,24,25
 866 1171 866 1171 843 1205 c 0,26,27
 795 1280 795 1280 674 1280 c 128,-1,28
 553 1280 553 1280 442 1153 c 0,29,30
 433 1143 433 1143 400 1098 c 1,31,-1
 373 1063 l 1,32,-1
 203 1172 l 1,33,-1
 192 1178 l 1,34,-1
 221 1215 l 2,35,36
 271 1279 271 1279 296 1306 c 0,37,38
 367 1382 367 1382 479 1442.5 c 128,-1,39
 591 1503 591 1503 728 1503 c 0,40,41
 935 1503 935 1503 1041 1362 c 0,42,43
 1106 1278 1106 1278 1106 1171 c 0,44,45
 1106 1137 1106 1137 1099 1100 c 0,46,47
 1080 994 1080 994 1025.5 926.5 c 128,-1,48
 971 859 971 859 892 805 c 1,49,50
 1054 702 1054 702 1054 515 c 0,51,52
 1054 473 1054 473 1045 428 c 0,53,54
 1011 242 1011 242 855 107 c 0,55,56
 697.835820896 -28 697.835820896 -28 455 -28 c 0,57,58
 454 -28 454 -28 453 -28 c 0,59,60
 206 -27 206 -27 81 181 c 0,61,62
 63 210 63 210 32 275 c 2,63,-1
 14 312 l 1,0,-1
EndSplineSet
EndChar

StartChar: four
Encoding: 52 52 23
Width: 1120
Flags: W
HStem: 0 21G<554 786> 313 215<347 616 884 1059> 1455 20G<790 1053>
DStem2: 50 464 347 528 0.592543 0.805539<227.54 935.491> 554 0 784 0 0.179414 0.983774<41.2651 319.045 578.639 1124.3>
LayerCount: 2
Fore
SplineSet
23 313 m 5,0,-1
 49 461 l 5,1,-1
 50 464 l 5,2,-1
 790 1470 l 5,3,-1
 793 1475 l 5,4,-1
 1053 1475 l 5,5,-1
 884 528 l 5,6,-1
 1097 528 l 5,7,-1
 1061 322 l 5,8,-1
 1059 313 l 5,9,-1
 846 313 l 5,10,-1
 786 9 l 1,11,-1
 784 0 l 1,12,-1
 554 0 l 1,13,-1
 616 313 l 5,14,-1
 23 313 l 5,0,-1
347 528 m 5,15,-1
 654 528 l 5,16,-1
 756 1106 l 5,17,-1
 347 528 l 5,15,-1
EndSplineSet
EndChar

StartChar: five
Encoding: 53 53 24
Width: 1120
Flags: W
HStem: -27 223<347.176 614.046> 743 223<460.939 709.74> 1260 215<521 1049>
VStem: 769 239<361.679 682.918>
DStem2: 130 624 426 915 0.247131 0.968982<355.124 712.901>
LayerCount: 2
Fore
SplineSet
33 275 m 1,0,-1
 240 408 l 1,1,-1
 258 370 l 2,2,3
 285 314 285 314 301 290 c 0,4,5
 371 196 371 196 468 196 c 128,-1,6
 565 196 565 196 650.5 264.5 c 128,-1,7
 736 333 736 333 762 476 c 0,8,9
 769 514 769 514 769 547 c 0,10,11
 769 637 769 637 719 690 c 128,-1,12
 669 743 669 743 593 743 c 0,13,14
 477 743 477 743 358 604 c 1,15,-1
 343 587 l 1,16,-1
 339 582 l 1,17,-1
 167 617 l 1,18,-1
 130 624 l 1,19,-1
 345 1467 l 1,20,-1
 348 1475 l 1,21,-1
 1087 1475 l 1,22,-1
 1051 1269 l 1,23,-1
 1049 1260 l 1,24,-1
 521 1260 l 1,25,-1
 426 915 l 1,26,27
 525 966 525 966 634 966 c 0,28,29
 826 966 826 966 932 831 c 0,30,31
 1008 735 1008 735 1008 587 c 0,32,33
 1008 265.010362694 1008 265.010362694 761 82 c 0,34,35
 613 -27 613 -27 422 -27 c 128,-1,36
 231 -27 231 -27 102 153 c 0,37,38
 80 185 80 185 50 241 c 2,39,-1
 37 266 l 1,40,-1
 33 275 l 1,0,-1
EndSplineSet
EndChar

StartChar: six
Encoding: 54 54 25
Width: 1120
Flags: W
HStem: -27 223<301.865 560.041> 759 223<418.293 670.225> 1280 223<599.545 883.339>
VStem: 12 236<251.248 582.916> 717 241<381.268 711.656>
LayerCount: 2
Fore
SplineSet
17 314 m 0,0,1
 12 354 12 354 12 434 c 128,-1,2
 12 514 12 514 46 704 c 128,-1,3
 80 894 80 894 192 1090 c 0,4,5
 340 1348 340 1348 560 1450 c 0,6,7
 673 1503 673 1503 795.5 1503 c 128,-1,8
 918 1503 918 1503 1031 1433 c 2,9,-1
 1097 1392 l 1,10,-1
 1108 1386 l 1,11,-1
 958 1186 l 1,12,-1
 925 1209 l 1,13,14
 857 1255 857 1255 826 1267.5 c 128,-1,15
 795 1280 795 1280 752 1280 c 0,16,17
 658 1280 658 1280 560.5 1211.5 c 128,-1,18
 463 1143 463 1143 378 998 c 0,19,20
 349 943 349 943 331 898 c 1,21,22
 463 982 463 982 598 982 c 0,23,24
 785 982 785 982 885 849 c 0,25,26
 959 751 959 751 958 615 c 0,27,28
 958 567 958 567 949 515 c 0,29,30
 914 316 914 316 809 189 c 0,31,32
 633 -27 633 -27 383 -27 c 0,33,34
 201 -27 201 -27 104 91 c 0,35,36
 34 177 34 177 17 314 c 0,0,1
256 477 m 0,37,38
 248 432 248 432 248 375.5 c 128,-1,39
 248 319 248 319 279 269 c 0,40,41
 325 196 325 196 418 196 c 128,-1,42
 511 196 511 196 583 259 c 0,43,44
 680 342 680 342 709 497 c 0,45,46
 717 542 717 542 717 578 c 0,47,48
 717 669 717 669 671.5 714 c 128,-1,49
 626 759 626 759 550 759 c 128,-1,50
 474 759 474 759 390 695 c 0,51,52
 279 610 279 610 256 477 c 0,37,38
EndSplineSet
EndChar

StartChar: seven
Encoding: 55 55 26
Width: 1120
Flags: W
HStem: 0 21G<-5 251> 1260 215<193 763>
LayerCount: 2
Fore
SplineSet
-5 0 m 1,0,-1
 763 1260 l 1,1,-1
 155 1260 l 1,2,-1
 191 1466 l 1,3,-1
 193 1475 l 1,4,-1
 1125 1475 l 1,5,-1
 251 5 l 1,6,-1
 247 0 l 1,7,-1
 -5 0 l 1,0,-1
EndSplineSet
EndChar

StartChar: eight
Encoding: 56 56 27
Width: 1120
Flags: W
HStem: -27 223<313.081 671.747> 657 219<460.997 743.246> 1280 223<522.084 828.895>
VStem: 5 239<261.909 526.864> 175 238.818<919.835 1169.12> 809 238<328.22 591.5> 875 240<981.383 1235.81>
LayerCount: 2
Fore
SplineSet
5 327 m 0,0,1
 5 631.889952153 5 631.889952153 266 778 c 1,2,3
 175 868 175 868 175 1003 c 0,4,5
 175 1043 175 1043 183 1086 c 0,6,7
 219 1286 219 1286 371.5 1394.5 c 128,-1,8
 524 1503 524 1503 720.5 1503 c 128,-1,9
 917 1503 917 1503 1029 1392 c 0,10,11
 1115 1307 1115 1307 1115 1171 c 0,12,13
 1115 1129 1115 1129 1106 1082 c 0,14,15
 1072 893 1072 893 914 776 c 1,16,17
 1048 683 1048 683 1047 510 c 0,18,19
 1047 313.43902439 1047 313.43902439 932 176 c 0,20,21
 850 78 850 78 717 25.5 c 128,-1,22
 584 -27 584 -27 450 -27 c 0,23,24
 229 -27 229 -27 101 87 c 0,25,26
 5 174 5 174 5 327 c 0,0,1
244 373 m 0,27,28
 244 296 244 296 303.5 246 c 128,-1,29
 363 196 363 196 484.5 196 c 128,-1,30
 606 196 606 196 695 254.5 c 128,-1,31
 784 313 784 313 804 430 c 0,32,33
 809 457 809 457 809 481 c 0,34,35
 809 559 809 559 749 608 c 128,-1,36
 689 657 689 657 570.5 657 c 128,-1,37
 452 657 452 657 361.5 599.5 c 0,38,39
 250.498935919 528.974462048 250.498935919 528.974462048 244 373 c 0,27,28
459.5 918.5 m 128,-1,41
 507 876 507 876 607 876 c 128,-1,42
 707 876 707 876 779 926 c 0,43,44
 850 976 850 976 870 1080 c 0,45,46
 875 1108 875 1108 875 1132 c 0,47,48
 875 1197 875 1197 829.5 1238.5 c 128,-1,49
 784 1280 784 1280 683 1280 c 0,50,51
 527 1280 527 1280 453 1165 c 0,52,53
 415.635316699 1101.34165067 415.635316699 1101.34165067 413.817658349 1031.17082534 c 128,-1,40
 412 961 412 961 459.5 918.5 c 128,-1,41
EndSplineSet
EndChar

StartChar: nine
Encoding: 57 57 28
Width: 1120
Flags: W
HStem: -27 223<237.58 520.782> 493 223<449.987 697.668> 1280 223<558.241 816.717>
VStem: 159.5 241<763.858 1093.86> 872.5 236<900.767 1223.28>
DStem2: 194.5 267 43.5 69 0.820398 -0.571793<-40.2244 185.803>
LayerCount: 2
Fore
SplineSet
11.5 92 m 1,0,-1
 161.5 290 l 1,1,-1
 194.5 267 l 2,2,3
 295.5 196 295.5 196 379 196 c 128,-1,4
 462.5 196 462.5 196 559.5 264.5 c 128,-1,5
 656.5 333 656.5 333 741.5 478 c 0,6,7
 771.5 532 771.5 532 790.5 578 c 1,8,9
 658.5 493 658.5 493 496 493 c 128,-1,10
 333.5 493 333.5 493 232.5 626 c 0,11,12
 159.5 724 159.5 724 159.5 859 c 0,13,14
 159.5 907 159.5 907 168.5 960 c 0,15,16
 203.5 1159 203.5 1159 309.5 1287 c 0,17,18
 485.5 1503 485.5 1503 735.5 1503 c 0,19,20
 916.5 1503 916.5 1503 1012.5 1387 c 128,-1,21
 1108.5 1271 1108.5 1271 1108.5 1064 c 0,22,23
 1108.5 965 1108.5 965 1086.5 846 c 0,24,25
 1039.5 581 1039.5 581 927.5 386 c 0,26,27
 779.5 129 779.5 129 560.5 26 c 0,28,29
 446.5 -27 446.5 -27 319 -27 c 128,-1,30
 191.5 -27 191.5 -27 43.5 69 c 1,31,-1
 20.5 85 l 1,32,-1
 11.5 92 l 1,0,-1
400.5 898 m 0,33,34
 400.5 806 400.5 806 447 761 c 128,-1,35
 493.5 716 493.5 716 569 716 c 128,-1,36
 644.5 716 644.5 716 727.5 781 c 0,37,38
 867.37890625 888.407226562 867.37890625 888.407226562 872.5 1083 c 0,39,40
 872.5 1158 872.5 1158 840.5 1207 c 0,41,42
 793.5 1280 793.5 1280 701 1280 c 128,-1,43
 608.5 1280 608.5 1280 534.5 1217 c 0,44,45
 436.5 1134 436.5 1134 408.5 979 c 0,46,47
 400.5 935 400.5 935 400.5 898 c 0,33,34
EndSplineSet
EndChar

StartChar: colon
Encoding: 58 58 29
Width: 1120
Flags: W
HStem: -55 382<404.285 592.575> 634 382<525.619 715.548>
VStem: 305 388<39.8403 232.121> 426 389<728.895 918.666>
LayerCount: 2
Fore
SplineSet
305 99 m 0,0,1
 305 200.684210526 305 200.684210526 380 263.842105263 c 128,-1,2
 455 327 455 327 534.5 327 c 128,-1,3
 614 327 614 327 654 277.5 c 128,-1,4
 694 228 694 228 693 171 c 0,5,6
 693 71.4242424242 693 71.4242424242 618 8.21212121212 c 128,-1,7
 543 -55 543 -55 464 -55 c 128,-1,8
 385 -55 385 -55 345 -6.5 c 128,-1,9
 305 42 305 42 305 99 c 0,0,1
426 788 m 0,10,11
 432.236397749 894.018761726 432.236397749 894.018761726 504.118198874 955.009380863 c 128,-1,12
 576 1016 576 1016 655.5 1016 c 128,-1,13
 735 1016 735 1016 775 966.5 c 128,-1,14
 815 917 815 917 815 861 c 0,15,16
 815 760.424242424 815 760.424242424 740.5 697.212121212 c 128,-1,17
 666 634 666 634 586 634 c 128,-1,18
 506 634 506 634 466 682.5 c 128,-1,19
 426 731 426 731 426 788 c 0,10,11
EndSplineSet
EndChar

StartChar: semicolon
Encoding: 59 59 30
Width: 1120
Flags: W
HStem: 634 382<555.619 746.203>
VStem: 334 386<7.07329 235.817> 456 388<728.342 921.735>
LayerCount: 2
Fore
SplineSet
276 -289 m 5,0,-1
 310 -96 l 5,1,2
 372 -60 372 -60 410 -16 c 1,3,-1
 384 2 l 1,4,5
 334 38 334 38 334 101 c 0,6,7
 334 116 334 116 336 133 c 0,8,9
 354 231 354 231 422 279 c 0,10,11
 492 327 492 327 567 327 c 128,-1,12
 642 327 642 327 681.5 275 c 128,-1,13
 721 223 721 223 720 157 c 0,14,15
 720 7.76363636364 720 7.76363636364 586 -97 c 0,16,17
 396 -245 396 -245 276 -289 c 5,0,-1
456 788 m 0,18,19
 456 890.626865672 456 890.626865672 531 953.313432836 c 128,-1,20
 606 1016 606 1016 686 1016 c 128,-1,21
 766 1016 766 1016 805 966.5 c 128,-1,22
 844 917 844 917 844 861 c 0,23,24
 844 759.575757576 844 759.575757576 770 696.787878788 c 128,-1,25
 696 634 696 634 616 634 c 128,-1,26
 536 634 536 634 496 682.5 c 128,-1,27
 456 731 456 731 456 788 c 0,18,19
EndSplineSet
EndChar

StartChar: less
Encoding: 60 60 31
Width: 1120
Flags: W
DStem2: 298 620 12 554 0.895797 -0.444464<0 733.913> 36 690 298 620 0.921441 0.388518<214.221 1050.58>
LayerCount: 2
Fore
SplineSet
12 554 m 1,0,-1
 35 684 l 1,1,-1
 36 690 l 1,2,-1
 1108 1142 l 1,3,-1
 1073 943 l 1,4,-1
 1072 937 l 1,5,-1
 298 620 l 1,6,-1
 960 303 l 1,7,-1
 927 115 l 1,8,-1
 925 101 l 1,9,-1
 12 554 l 1,0,-1
EndSplineSet
EndChar

StartChar: equal
Encoding: 61 61 32
Width: 1120
Flags: W
HStem: 281 205<23 1050> 736 205<70 1097>
LayerCount: 2
Fore
SplineSet
-13 281 m 1,0,-1
 23 486 l 1,1,-1
 1086 486 l 1,2,-1
 1050 281 l 1,3,-1
 -13 281 l 1,0,-1
34 736 m 1,4,-1
 70 941 l 1,5,-1
 1133 941 l 1,6,-1
 1097 736 l 1,7,-1
 34 736 l 1,4,-1
EndSplineSet
EndChar

StartChar: greater
Encoding: 62 62 33
Width: 1120
Flags: W
DStem2: 48 305 12 99 0.921133 0.389248<0 835.427> 195 1140 160 939 0.896187 -0.443676<57.8124 790.837>
LayerCount: 2
Fore
SplineSet
12 99 m 1,0,-1
 48 305 l 1,1,-1
 821 622 l 1,2,-1
 160 939 l 1,3,-1
 193 1126 l 1,4,-1
 195 1140 l 1,5,-1
 1108 688 l 1,6,-1
 1085 558 l 1,7,-1
 1084 552 l 1,8,-1
 12 99 l 1,0,-1
EndSplineSet
EndChar

StartChar: question
Encoding: 63 63 34
Width: 1120
Flags: W
HStem: -50 372<300.793 493.502> 1101 21G<138.444 390.444> 1321 223<469.507 711.24>
VStem: 208.444 378<39.144 234.245> 732.444 242<1034.41 1295.94>
DStem2: 318.444 398 546.444 398 0.171052 0.985262<39 343.849>
LayerCount: 2
Fore
SplineSet
158.444335938 1173 m 2,0,-1
 158.444335938 1178 l 1,1,2
 186.444335938 1285 186.444335938 1285 254.444335938 1367 c 0,3,4
 402.444335938 1544 402.444335938 1544 632.444335938 1544 c 0,5,6
 810.444335938 1544 810.444335938 1544 908.444335938 1435 c 0,7,8
 981.444335938 1353 981.444335938 1353 981.444335938 1230 c 0,9,10
 982.444335938 1190 982.444335938 1190 974.444335938 1145 c 0,11,12
 942.444335938 965 942.444335938 965 814.444335938 855 c 0,13,14
 782.444335938 830 782.444335938 830 700.444335938 773.5 c 128,-1,15
 618.444335938 717 618.444335938 717 607.444335938 697.5 c 128,-1,16
 596.444335938 678 596.444335938 678 584.444335938 610 c 2,17,-1
 548.444335938 407 l 1,18,-1
 546.444335938 398 l 1,19,-1
 318.444335938 398 l 1,20,-1
 368.444335938 686 l 2,21,22
 384.444335938 774 384.444335938 774 431.444335938 827.5 c 128,-1,23
 478.444335938 881 478.444335938 881 570.444335938 941.5 c 128,-1,24
 662.444335938 1002 662.444335938 1002 693.444335938 1037 c 128,-1,25
 724.444335938 1072 724.444335938 1072 732.444335938 1122.5 c 128,-1,26
 740.444335938 1173 740.444335938 1173 741.444335938 1208.5 c 128,-1,27
 742.444335938 1244 742.444335938 1244 705.444335938 1282.5 c 128,-1,28
 668.444335938 1321 668.444335938 1321 601.944335938 1321 c 128,-1,29
 535.444335938 1321 535.444335938 1321 488.944335938 1291.5 c 128,-1,30
 442.444335938 1262 442.444335938 1262 425.444335938 1226 c 128,-1,31
 408.444335938 1190 408.444335938 1190 396.444335938 1138 c 1,32,-1
 390.444335938 1109 l 1,33,-1
 388.444335938 1101 l 1,34,-1
 138.444335938 1101 l 1,35,-1
 152.444335938 1149 l 1,36,37
 158.444335938 1165 158.444335938 1165 158.444335938 1173 c 2,0,-1
208.444335938 103 m 4,38,39
 208.444335938 202.55859375 208.444335938 202.55859375 280.444335938 262.279296875 c 132,-1,40
 352.444335938 322 352.444335938 322 429.444335938 322 c 132,-1,41
 506.444335938 322 506.444335938 322 546.444335938 273 c 132,-1,42
 586.444335938 224 586.444335938 224 586.444335938 168 c 4,43,44
 586.444335938 71.3232421875 586.444335938 71.3232421875 514.444335938 10.6611328125 c 132,-1,45
 442.444335938 -50 442.444335938 -50 365.444335938 -50 c 132,-1,46
 288.444335938 -50 288.444335938 -50 248.444335938 -1.5 c 132,-1,47
 208.444335938 47 208.444335938 47 208.444335938 103 c 4,38,39
EndSplineSet
EndChar

StartChar: at
Encoding: 64 64 35
Width: 1120
Flags: W
HStem: -58 212<306.532 611.35> 1332 201<570.278 815.914>
VStem: -1.5 213<251.458 727.368> 247.5 223<529 702.18> 914.5 207<771.717 1223.8>
DStem2: 591.5 775 764.5 681 0.27962 0.960111<-182.544 89.1592> 793.5 303 855.5 119 0.81518 0.579207<-301.671 -31.6204>
LayerCount: 2
Fore
SplineSet
-1.5 411 m 0,0,1
 -1.5 504 -1.5 504 17.5 614 c 0,2,3
 83.5 985 83.5 985 284.5 1262 c 0,4,5
 367.5 1377 367.5 1377 488.5 1455 c 128,-1,6
 609.5 1533 609.5 1533 727.5 1533 c 128,-1,7
 845.5 1533 845.5 1533 933.5 1474.5 c 128,-1,8
 1021.5 1416 1021.5 1416 1071.5 1310.5 c 128,-1,9
 1121.5 1205 1121.5 1205 1121.5 1095.5 c 128,-1,10
 1121.5 986 1121.5 986 1105.5 900 c 0,11,12
 1061.5 654 1061.5 654 965.5 510 c 0,13,14
 847.5 336 847.5 336 706.5 336 c 0,15,16
 613.5 336 613.5 336 568.5 408 c 1,17,18
 477.5 327 477.5 327 391 327 c 128,-1,19
 304.5 327 304.5 327 266.5 413 c 0,20,21
 248.5 453 248.5 453 247.5 506 c 0,22,23
 247.5 614 247.5 614 313 750 c 128,-1,24
 378.5 886 378.5 886 439.5 953 c 0,25,26
 553.5 1074 553.5 1074 758.5 1074 c 0,27,28
 781.5 1074 781.5 1074 844.5 1071 c 2,29,-1
 877.5 1069 l 1,30,-1
 764.5 681 l 2,31,32
 728.995117188 557.504882812 728.995117188 557.504882812 747.5 539 c 0,33,34
 748.5 537 748.5 537 749.5 537 c 2,35,-1
 750.5 537 l 2,36,37
 768.5 537 768.5 537 789.5 565 c 0,38,39
 864.5 665 864.5 665 896.5 851 c 0,40,41
 914.5 953 914.5 953 914.5 1022.5 c 0,42,43
 914.5 1208.52636719 914.5 1208.52636719 818.5 1286 c 0,44,45
 761.5 1332 761.5 1332 704.5 1332 c 0,46,47
 604.5 1332 604.5 1332 502.5 1233 c 0,48,49
 309.5 1045 309.5 1045 227.5 592 c 0,50,51
 211.5 504 211.5 504 211.5 434 c 0,52,53
 211.5 280 211.5 280 287.5 214 c 1,54,55
 349.5 154 349.5 154 436.5 154 c 128,-1,56
 523.5 154 523.5 154 600 185.5 c 128,-1,57
 676.5 217 676.5 217 793.5 303 c 1,58,-1
 831.5 330 l 1,59,-1
 871.5 155 l 1,60,-1
 875.5 133 l 1,61,-1
 855.5 119 l 2,62,63
 601.5 -58 601.5 -58 383.5 -58 c 0,64,65
 214.5 -58 214.5 -58 106.5 66 c 128,-1,66
 -1.5 190 -1.5 190 -1.5 411 c 0,0,1
526.5 750 m 128,-1,68
 485.5 671 485.5 671 474.540039062 607.920898438 c 128,-1,69
 463.579101562 544.840820312 463.579101562 544.840820312 467.040039062 537.920898438 c 128,-1,70
 470.5 531 470.5 531 470.5 529 c 1,71,72
 474.5 531 474.5 531 493 547 c 128,-1,73
 511.5 563 511.5 563 528.5 598.5 c 128,-1,74
 545.5 634 545.5 634 591.5 775 c 1,75,-1
 618.5 860 l 1,76,77
 597.5 852 597.5 852 582.5 840.5 c 128,-1,67
 567.5 829 567.5 829 526.5 750 c 128,-1,68
EndSplineSet
EndChar

StartChar: A
Encoding: 65 65 36
Width: 1120
Flags: W
HStem: 0 21G<-20 241.631 887.465 1140> 434 173<536 804>
DStem2: 846 1601 744 1024 0.180615 -0.983554<549.088 970.067 1145.82 1427.05> 1137 13 804 607 0.180615 -0.983554<-1065.35 -644.376 -468.622 -468.622> 846 1601 744 1024 0.47577 0.87957<-1566.8 -1219.14 -1021.78 -556.04>
LayerCount: 2
Fore
SplineSet
-20 0 m 1,0,-1
 846 1601 l 1,1,-1
 1137 13 l 1,2,-1
 1140 0 l 1,3,-1
 890 0 l 1,4,-1
 835 434 l 1,5,-1
 441 434 l 1,6,-1
 232 0 l 1,7,-1
 -20 0 l 1,0,-1
536 607 m 1,8,-1
 804 607 l 1,9,-1
 744 1024 l 1,10,-1
 536 607 l 1,8,-1
EndSplineSet
EndChar

StartChar: B
Encoding: 66 66 37
Width: 1120
Flags: W
HStem: 0 204<308 675.246> 657 215<426 713.044> 1260 215<496 816.734>
VStem: 793 240<314.239 584.449> 851 238<986.487 1224.62>
DStem2: 50 98 308 204 0.17593 0.984403<149.737 609.745 828.077 1222.34>
LayerCount: 2
Fore
SplineSet
1089 1150 m 0,0,1
 1089 936.046783626 1089 936.046783626 881 784 c 1,2,3
 958 735 958 735 995.5 658.5 c 128,-1,4
 1033 582 1033 582 1033 523 c 0,5,6
 1033 214.009259259 1033 214.009259259 767 65 c 0,7,8
 644.878787879 -1.11022302463e-016 644.878787879 -1.11022302463e-016 466 0 c 2,9,-1
 31 0 l 1,10,-1
 38 43 l 2,11,12
 40 54 40 54 50 98 c 1,13,-1
 121 447 l 1,14,-1
 225 1028 l 1,15,-1
 280 1381 l 2,16,17
 286 1423 286 1423 288 1435 c 2,18,-1
 293 1466 l 1,19,-1
 295 1475 l 1,20,-1
 609 1475 l 2,21,22
 747 1475 747 1475 819 1464 c 0,23,24
 977 1440 977 1440 1042 1326 c 0,25,26
 1089 1244 1089 1244 1089 1150 c 0,0,1
308 204 m 1,27,-1
 498 204 l 1,28,29
 652 205 652 205 733 295 c 0,30,31
 793 363.181818182 793 363.181818182 793 459.090909091 c 128,-1,32
 793 555 793 555 725 605 c 0,33,34
 685 637 685 637 647.5 647 c 128,-1,35
 610 657 610 657 528 657 c 2,36,-1
 388 657 l 1,37,-1
 308 204 l 1,27,-1
426 872 m 1,38,-1
 525 872 l 2,39,40
 627 872 627 872 704 908 c 0,41,42
 851 976.680327869 851 976.680327869 851 1125 c 0,43,44
 851 1202 851 1202 792 1235 c 0,45,46
 750 1260 750 1260 612 1260 c 2,47,-1
 496 1260 l 1,48,-1
 426 872 l 1,38,-1
EndSplineSet
EndChar

StartChar: C
Encoding: 67 67 38
Width: 1120
Flags: W
HStem: -27 223<357.27 631.472> 1279 224<544.06 811.888>
VStem: 38 240<282.915 799.445> 845 237<1067 1244.44>
LayerCount: 2
Fore
SplineSet
444 -27 m 0,0,1
 38 -27 38 -27 38 445 c 0,2,3
 38 568 38 568 66 723 c 0,4,5
 151 1196 151 1196 375 1377 c 0,6,7
 530 1503 530 1503 721.5 1503 c 128,-1,8
 913 1503 913 1503 1008 1384 c 0,9,10
 1082 1293 1082 1293 1082 1174 c 0,11,12
 1082 1151 1082 1151 1078 1111 c 2,13,-1
 1075 1077 l 1,14,-1
 1074 1067 l 1,15,-1
 839 1067 l 1,16,-1
 840 1079 l 1,17,-1
 843 1108 l 2,18,19
 845 1125 845 1125 845 1141 c 0,20,21
 845 1212 845 1212 808.5 1245.5 c 128,-1,22
 772 1279 772 1279 695 1279 c 0,23,24
 564 1279 564 1279 473 1174 c 0,25,26
 361 1046 361 1046 304 727 c 0,27,28
 278 585 278 585 278 481 c 0,29,30
 278 196 278 196 484 196 c 0,31,32
 550 196 550 196 605.5 225 c 128,-1,33
 661 254 661 254 687 294 c 128,-1,34
 713 334 713 334 737 412 c 2,35,-1
 745 439 l 1,36,-1
 747 447 l 1,37,-1
 979 447 l 1,38,-1
 965 398 l 1,39,40
 921 258 921 258 866.5 178.5 c 128,-1,41
 812 99 812 99 703.5 36 c 128,-1,42
 595 -27 595 -27 444 -27 c 0,0,1
EndSplineSet
EndChar

StartChar: D
Encoding: 68 68 39
Width: 1120
Flags: W
HStem: 0 215<289.526 624.093> 1260 215<477.526 793.591>
DStem2: 31.5264 98 289.526 215 0.17593 0.984403<160.565 1222.34>
LayerCount: 2
Fore
SplineSet
12.5263671875 0 m 1,0,-1
 19.5263671875 43 l 2,1,2
 21.5263671875 54 21.5263671875 54 31.5263671875 98 c 1,3,-1
 102.526367188 448 l 1,4,-1
 206.526367188 1030 l 1,5,-1
 261.526367188 1381 l 2,6,7
 267.526367188 1423 267.526367188 1423 269.526367188 1435 c 2,8,-1
 274.526367188 1466 l 1,9,-1
 275.526367188 1475 l 1,10,-1
 651.526367188 1475 l 2,11,12
 1007.52636719 1475 1007.52636719 1475 1077.52636719 1232 c 0,13,14
 1133.65234375 1042.33496094 1133.65234375 1042.33496094 1084.58886719 773.16796875 c 128,-1,15
 1035.52636719 504 1035.52636719 504 965.026367188 353.5 c 0,16,17
 874.064453125 159.318359375 874.064453125 159.318359375 694.526367188 61 c 0,18,19
 652.526367188 38 652.526367188 38 587.526367188 19 c 128,-1,20
 522.526367188 0 522.526367188 0 391.526367188 0 c 2,21,-1
 12.5263671875 0 l 1,0,-1
289.526367188 215 m 1,22,-1
 415.526367188 215 l 2,23,24
 582.526367188 215 582.526367188 215 664.526367188 288 c 0,25,26
 724.526367188 340 724.526367188 340 765.526367188 443.5 c 128,-1,27
 806.526367188 547 806.526367188 547 839.026367188 725.5 c 128,-1,28
 871.526367188 904 871.526367188 904 871.526367188 985.5 c 128,-1,29
 871.526367188 1067 871.526367188 1067 862.526367188 1114 c 0,30,31
 837.526367188 1260 837.526367188 1260 607.526367188 1260 c 2,32,-1
 477.526367188 1260 l 1,33,-1
 289.526367188 215 l 1,22,-1
EndSplineSet
EndChar

StartChar: E
Encoding: 69 69 40
Width: 1120
Flags: W
HStem: 0 215<280 867> 646 215<396 801> 1260 215<468 1079>
DStem2: 22 98 280 215 0.17593 0.984403<160.565 598.565 816.897 1222.34>
LayerCount: 2
Fore
SplineSet
3 0 m 1,0,-1
 10 43 l 2,1,2
 12 54 12 54 22 98 c 1,3,-1
 93 447 l 1,4,-1
 197 1028 l 1,5,-1
 252 1381 l 2,6,7
 258 1423 258 1423 260 1435 c 2,8,-1
 265 1466 l 1,9,-1
 267 1475 l 1,10,-1
 1117 1475 l 1,11,-1
 1081 1269 l 1,12,-1
 1079 1260 l 1,13,-1
 468 1260 l 1,14,-1
 396 861 l 1,15,-1
 839 861 l 1,16,-1
 803 655 l 1,17,-1
 801 646 l 1,18,-1
 358 646 l 1,19,-1
 280 215 l 1,20,-1
 905 215 l 1,21,-1
 869 9 l 1,22,-1
 867 0 l 1,23,-1
 3 0 l 1,0,-1
EndSplineSet
EndChar

StartChar: F
Encoding: 70 70 41
Width: 1120
Flags: W
HStem: 0 21G<-10 246> 659 215<386 828> 1260 215<456 1092>
DStem2: -2 43 309 442 0.168067 0.985776<-1.04395 666.061 884.389 1276.66>
LayerCount: 2
Fore
SplineSet
-10 0 m 1,0,-1
 -7 13 l 1,1,-1
 -2 43 l 2,2,3
 0 54 0 54 10 97 c 1,4,-1
 81 448 l 1,5,-1
 185 1028 l 1,6,-1
 252 1466 l 1,7,-1
 253 1475 l 1,8,-1
 1130 1475 l 1,9,-1
 1093 1269 l 1,10,-1
 1092 1260 l 1,11,-1
 456 1260 l 1,12,-1
 386 874 l 1,13,-1
 866 874 l 1,14,-1
 829 668 l 1,15,-1
 828 659 l 1,16,-1
 348 659 l 1,17,-1
 309 442 l 2,18,19
 276 260 276 260 248 40 c 1,20,-1
 244 0 l 1,21,-1
 -10 0 l 1,0,-1
EndSplineSet
EndChar

StartChar: G
Encoding: 71 71 42
Width: 1120
Flags: W
HStem: -27 223<353.49 634.36> 0 21G<709.062 941.062> 562 215<499.062 810.062> 1280 223<549.381 793.803>
VStem: 42.0615 242<272.473 778.45> 835.062 238<1010.69 1242.87>
LayerCount: 2
Fore
SplineSet
284.061523438 464 m 0,0,1
 284.061523438 196 284.061523438 196 481.061523438 196 c 0,2,3
 628.061523438 196 628.061523438 196 722.061523438 324 c 0,4,5
 755.061523438 369 755.061523438 369 772.561523438 421.5 c 128,-1,6
 790.061523438 474 790.061523438 474 810.061523438 562 c 1,7,-1
 461.061523438 562 l 1,8,-1
 497.061523438 768 l 1,9,-1
 499.061523438 777 l 1,10,-1
 1078.06152344 777 l 1,11,-1
 941.061523438 9 l 1,12,-1
 940.061523438 0 l 1,13,-1
 709.061523438 0 l 1,14,-1
 720.061523438 62 l 1,15,16
 589.061523438 -27 589.061523438 -27 429.561523438 -27 c 128,-1,17
 270.061523438 -27 270.061523438 -27 169.061523438 63 c 0,18,19
 37.9833984375 179.801757812 37.9833984375 179.801757812 42.0615234375 400 c 0,20,21
 42.0615234375 532 42.0615234375 532 84.5615234375 771 c 128,-1,22
 127.061523438 1010 127.061523438 1010 214.061523438 1171 c 0,23,24
 393.061523438 1503 393.061523438 1503 723.061523438 1503 c 0,25,26
 724.061523438 1503 724.061523438 1503 725.061523438 1503 c 0,27,28
 911.061523438 1503 911.061523438 1503 999.061523438 1382 c 0,29,30
 1074.06152344 1279 1074.06152344 1279 1073.06152344 1144 c 0,31,32
 1073.06152344 1122 1073.06152344 1122 1071.06152344 1097.5 c 128,-1,33
 1069.06152344 1073 1069.06152344 1073 1068.06152344 1054 c 2,34,-1
 1065.06152344 1020 l 1,35,-1
 1064.06152344 1010 l 1,36,-1
 816.061523438 1010 l 1,37,-1
 823.061523438 1054 l 1,38,39
 835.061523438 1120 835.061523438 1120 835.061523438 1142 c 0,40,41
 835.061523438 1208 835.061523438 1208 795.061523438 1244 c 128,-1,42
 755.061523438 1280 755.061523438 1280 678.561523438 1280 c 128,-1,43
 602.061523438 1280 602.061523438 1280 527.561523438 1223 c 128,-1,44
 453.061523438 1166 453.061523438 1166 401.061523438 1046.5 c 128,-1,45
 349.061523438 927 349.061523438 927 316.561523438 748 c 128,-1,46
 284.061523438 569 284.061523438 569 284.061523438 464 c 0,0,1
EndSplineSet
EndChar

StartChar: H
Encoding: 72 72 43
Width: 1120
Flags: W
HStem: 0 21G<-23 231.951 625 881> 665 204<371 756> 1455 20G<238 495 888 1143>
DStem2: -16 43 295 449 0.175279 0.984519<41.8508 673.543 881.046 1445.64> 635 44 881 9 0.17593 0.984403<-0.210848 632.602 840.105 1443.35>
LayerCount: 2
Fore
SplineSet
-23 0 m 1,0,-1
 -16 43 l 2,1,2
 -14 54 -14 54 -4 97 c 1,3,-1
 67 448 l 1,4,-1
 170 1026 l 1,5,-1
 238 1466 l 1,6,-1
 239 1475 l 1,7,-1
 495 1475 l 1,8,-1
 483 1430 l 1,9,10
 430 1200 430 1200 399 1028 c 2,11,-1
 371 869 l 1,12,-1
 794 869 l 1,13,-1
 824 1032 l 2,14,15
 857 1216 857 1216 884 1433 c 2,16,-1
 888 1465 l 1,17,-1
 889 1475 l 1,18,-1
 1143 1475 l 1,19,-1
 1136 1432 l 2,20,21
 1133 1414 1133 1414 1124 1378 c 1,22,-1
 1052 1023 l 1,23,-1
 949 445 l 1,24,-1
 894 93 l 2,25,26
 890 62 890 62 890 61 c 2,27,-1
 881 9 l 1,28,-1
 880 0 l 1,29,-1
 625 0 l 1,30,-1
 635 44 l 2,31,32
 688 275 688 275 720 453 c 1,33,-1
 756 665 l 1,34,-1
 333 665 l 1,35,-1
 295 449 l 2,36,37
 262 264 262 264 234 41 c 1,38,-1
 230 0 l 1,39,-1
 -23 0 l 1,0,-1
EndSplineSet
EndChar

StartChar: I
Encoding: 73 73 44
Width: 1120
Flags: W
HStem: 0 215<147 348 589 747> 1260 215<373 537 778 973>
DStem2: 348 215 589 215 0.184655 0.982803<44.5019 1061.93>
LayerCount: 2
Fore
SplineSet
109 0 m 1,0,-1
 146 206 l 1,1,-1
 147 215 l 1,2,-1
 348 215 l 1,3,-1
 398 455 l 1,4,-1
 500 1024 l 1,5,-1
 537 1260 l 1,6,-1
 335 1260 l 1,7,-1
 372 1466 l 1,8,-1
 373 1475 l 1,9,-1
 1011 1475 l 1,10,-1
 974 1269 l 1,11,-1
 973 1260 l 1,12,-1
 778 1260 l 1,13,-1
 728 1020 l 1,14,-1
 626 451 l 1,15,-1
 589 215 l 1,16,-1
 785 215 l 1,17,-1
 748 9 l 1,18,-1
 747 0 l 1,19,-1
 109 0 l 1,0,-1
EndSplineSet
EndChar

StartChar: J
Encoding: 74 74 45
Width: 1120
Flags: W
HStem: -27 223<286.865 558.404> 1260 215<585 817>
VStem: 18 232<232.702 450.76> 685 234<480 579.251>
DStem2: 27 405 256 397 0.218214 0.975901<-24.4095 299.588>
LayerCount: 2
Fore
SplineSet
685 499 m 1,0,-1
 685 501 l 1,1,-1
 781 1025 l 2,2,3
 792 1082 792 1082 817 1260 c 1,4,-1
 547 1260 l 1,5,-1
 583 1466 l 1,6,-1
 585 1475 l 1,7,-1
 1102 1475 l 1,8,-1
 1011 1025 l 1,9,-1
 919 511 l 1,10,-1
 919 510 l 1,11,-1
 911 480 l 1,12,13
 879 334 879 334 869 300.5 c 128,-1,14
 859 267 859 267 834 226 c 0,15,16
 772 115 772 115 648 44 c 0,17,18
 525.722222222 -27 525.722222222 -27 353.361111111 -27 c 128,-1,19
 181 -27 181 -27 86 91 c 0,20,21
 18 177 18 177 18 305 c 0,22,23
 18 352 18 352 27 405 c 2,24,-1
 39 475 l 1,25,-1
 67 709 l 1,26,-1
 68 719 l 1,27,-1
 328 719 l 1,28,-1
 317 672 l 1,29,30
 276 508 276 508 270 472 c 2,31,-1
 256 397 l 2,32,33
 250 365 250 365 250 329 c 128,-1,34
 250 293 250 293 266 267 c 0,35,36
 308 196 308 196 409 196 c 0,37,38
 474 196 474 196 534 226 c 0,39,40
 627 274 627 274 651 355 c 0,41,42
 660 381 660 381 685 499 c 1,0,-1
EndSplineSet
EndChar

StartChar: K
Encoding: 75 75 46
Width: 1120
Flags: W
HStem: 0 21G<-23 230 718.307 1042> 1455 20G<239 492>
DStem2: -16 43 230 9 0.17593 0.984403<0.597625 475.758 851.142 1454.7>
LayerCount: 2
Fore
SplineSet
-23 0 m 1,0,-1
 -16 43 l 2,1,2
 -12 64 -12 64 -5 97 c 2,3,-1
 67 449 l 1,4,-1
 171 1029 l 1,5,-1
 225 1382 l 2,6,7
 230 1415 230 1415 234 1435 c 2,8,-1
 239 1466 l 1,9,-1
 240 1475 l 1,10,-1
 492 1475 l 1,11,-1
 397 1001 l 1,12,-1
 368 839 l 1,13,14
 423 864 423 864 519.5 952 c 128,-1,15
 616 1040 616 1040 726.5 1186.5 c 128,-1,16
 837 1333 837 1333 909 1465 c 2,17,-1
 927 1498 l 1,18,-1
 932 1508 l 1,19,-1
 1143 1394 l 1,20,-1
 1116 1358 l 2,21,22
 1074 1301 1074 1301 924 1121.5 c 128,-1,23
 774 942 774 942 694 869 c 128,-1,24
 614 796 614 796 518 735 c 1,25,-1
 1042 0 l 1,26,-1
 731 0 l 1,27,-1
 328 635 l 1,28,-1
 299 470 l 1,29,-1
 230 9 l 1,30,-1
 228 0 l 1,31,-1
 -23 0 l 1,0,-1
EndSplineSet
EndChar

StartChar: L
Encoding: 76 76 47
Width: 1120
Flags: W
HStem: 0 215<388 980> 1455 20G<365 615>
DStem2: 193 447 422 452 0.177304 0.984156<-193.75 1042.39>
LayerCount: 2
Fore
SplineSet
102 0 m 1,0,-1
 105 13 l 1,1,-1
 110 43 l 2,2,3
 112 54 112 54 122 98 c 1,4,-1
 193 447 l 1,5,-1
 297 1029 l 1,6,-1
 352 1382 l 1,7,8
 357 1423 357 1423 360 1436 c 2,9,-1
 365 1466 l 1,10,-1
 366 1475 l 1,11,-1
 615 1475 l 1,12,-1
 608 1432 l 2,13,14
 605 1413 605 1413 596 1378 c 1,15,-1
 525 1029 l 1,16,-1
 422 452 l 1,17,-1
 388 215 l 1,18,-1
 1018 215 l 1,19,-1
 981 9 l 1,20,-1
 980 0 l 1,21,-1
 102 0 l 1,0,-1
EndSplineSet
EndChar

StartChar: M
Encoding: 77 77 48
Width: 1120
Flags: W
HStem: 0 21G<-69 186 681 937> 1455 20G<204 430.574 962 1189>
DStem2: -61 43 253 470 0.160748 0.986995<7.13402 973.483> 579 806 863 959 0.500212 0.865903<0 274.543> 778 474 1004 445 0.169524 0.985526<-440.355 492.39>
LayerCount: 2
Fore
SplineSet
-69 0 m 1,0,-1
 -66 13 l 1,1,-1
 -61 43 l 2,2,3
 -59 54 -59 54 -49 97 c 1,4,-1
 22 449 l 1,5,-1
 204 1466 l 1,6,-1
 205 1475 l 1,7,-1
 426 1475 l 1,8,-1
 579 806 l 1,9,-1
 962 1469 l 1,10,-1
 965 1475 l 1,11,-1
 1189 1475 l 1,12,-1
 1004 445 l 1,13,-1
 941 39 l 1,14,-1
 937 10 l 1,15,-1
 936 0 l 1,16,-1
 681 0 l 1,17,-1
 691 45 l 2,18,19
 748 303 748 303 778 474 c 2,20,-1
 863 959 l 1,21,-1
 494 337 l 1,22,-1
 340 964 l 1,23,-1
 253 470 l 2,24,25
 219 276 219 276 190 43 c 2,26,-1
 186 10 l 1,27,-1
 185 0 l 1,28,-1
 -69 0 l 1,0,-1
EndSplineSet
EndChar

StartChar: N
Encoding: 78 78 49
Width: 1120
Flags: W
HStem: 0 21G<-9 245 636.445 850> 1455 20G<263 512.518 873 1129>
DStem2: -2 43 312 470 0.162411 0.986723<7.55364 1019.76> 508 1475 408 1009 0.222074 -0.97503<432.156 957.535> 801 1003 1034 1024 0.164226 0.986423<-469.194 477.58>
LayerCount: 2
Fore
SplineSet
-9 0 m 1,0,-1
 -2 43 l 2,1,2
 0 54 0 54 10 97 c 1,3,-1
 81 449 l 1,4,-1
 263 1466 l 1,5,-1
 264 1475 l 1,6,-1
 508 1475 l 1,7,-1
 719 541 l 1,8,-1
 801 1003 l 1,9,-1
 860 1379 l 2,10,11
 865 1417 865 1417 868 1435 c 2,12,-1
 873 1466 l 1,13,-1
 874 1475 l 1,14,-1
 1129 1475 l 1,15,-1
 1109 1391 l 1,16,-1
 1034 1024 l 1,17,-1
 850 -5 l 1,18,-1
 849 -14 l 1,19,-1
 641 -14 l 1,20,-1
 408 1009 l 1,21,-1
 312 470 l 2,22,23
 278 276 278 276 249 43 c 2,24,-1
 245 10 l 1,25,-1
 244 0 l 1,26,-1
 -9 0 l 1,0,-1
EndSplineSet
EndChar

StartChar: O
Encoding: 79 79 50
Width: 1120
Flags: W
HStem: -27 223<344.009 598.893> 1280 223<520.834 778.396>
VStem: 29.5 240<272.388 776.641>
LayerCount: 2
Fore
SplineSet
29.5 390 m 0,0,1
 29.5 396 29.5 396 29.5 402 c 0,2,3
 29.5 535 29.5 535 74 783 c 128,-1,4
 118.5 1031 118.5 1031 196.5 1180 c 128,-1,5
 274.5 1329 274.5 1329 404.5 1416 c 0,6,7
 535.5 1503 535.5 1503 700.5 1503 c 0,8,9
 813.5 1503 813.5 1503 903.5 1451 c 0,10,11
 1086.5 1345 1086.5 1345 1090.5 1082 c 1,12,-1
 1090.5 1065 l 2,13,14
 1090.5 934 1090.5 934 1046.5 689 c 128,-1,15
 1002.5 444 1002.5 444 925 295.5 c 128,-1,16
 847.5 147 847.5 147 717.5 60 c 0,17,18
 588.977539062 -27 588.977539062 -27 424.5 -27 c 0,19,20
 183.5 -27 183.5 -27 80.5 163 c 0,21,22
 32.5 254 32.5 254 29.5 390 c 0,0,1
299.5 727 m 0,23,24
 269.5 562 269.5 562 269.5 455.5 c 128,-1,25
 269.5 349 269.5 349 297.5 298 c 0,26,27
 352.5 196 352.5 196 466.5 196 c 128,-1,28
 580.5 196 580.5 196 670.5 309 c 128,-1,29
 760.5 422 760.5 422 820.5 747 c 0,30,31
 879.95703125 1069.21875 879.95703125 1069.21875 825.228515625 1174.609375 c 128,-1,32
 770.5 1280 770.5 1280 655 1280 c 128,-1,33
 539.5 1280 539.5 1280 449.5 1166.5 c 128,-1,34
 359.5 1053 359.5 1053 299.5 727 c 0,23,24
EndSplineSet
EndChar

StartChar: P
Encoding: 80 80 51
Width: 1120
Flags: W
HStem: 0 21G<35 291> 536 213<408 704.984> 1260 215<501 799.708>
VStem: 847 238<893.34 1214.26>
DStem2: 42 43 353 437 0.175279 0.984519<41.0415 543.035 759.222 1278.61>
LayerCount: 2
Fore
SplineSet
35 0 m 1,0,-1
 42 43 l 2,1,2
 44 54 44 54 55 97 c 1,3,-1
 126 450 l 1,4,-1
 229 1028 l 1,5,-1
 296 1466 l 1,6,-1
 298 1475 l 1,7,-1
 652 1475 l 2,8,9
 833 1475 833 1475 934.5 1419.5 c 0,10,11
 1081.8318417 1338.93923927 1081.8318417 1338.93923927 1085 1114 c 0,12,13
 1085 896.304093567 1085 896.304093567 962.5 743 c 0,14,15
 877 636 877 636 737 581 c 0,16,17
 667 554 667 554 602.5 545 c 128,-1,18
 538 536 538 536 420 536 c 2,19,-1
 371 536 l 1,20,-1
 353 437 l 2,21,22
 320 256 320 256 293 40 c 1,23,-1
 289 0 l 1,24,-1
 35 0 l 1,0,-1
408 749 m 1,25,-1
 483 749 l 2,26,27
 616 749 616 749 681 779 c 0,28,29
 840.47223497 855.055988986 840.47223497 855.055988986 847 1077 c 0,30,31
 847 1122 847 1122 830 1170.5 c 0,32,33
 803.092216894 1247.26632239 803.092216894 1247.26632239 709 1257 c 0,34,35
 678 1260 678 1260 585 1260 c 2,36,-1
 501 1260 l 1,37,-1
 408 749 l 1,25,-1
EndSplineSet
EndChar

StartChar: Q
Encoding: 81 81 52
Width: 1120
Flags: W
HStem: -27 223<344.522 598.982> 1280 223<520.744 777.32>
VStem: 30 241<272.388 783.95> 851 239<687.926 1203.43>
LayerCount: 2
Fore
SplineSet
30 390 m 0,0,1
 30 396 30 396 30 402 c 0,2,3
 30 535 30 535 74 784 c 128,-1,4
 118 1033 118 1033 196.5 1181 c 128,-1,5
 275 1329 275 1329 405 1416 c 128,-1,6
 535 1503 535 1503 674 1503 c 0,7,8
 939 1503 939 1503 1042 1310 c 0,9,10
 1088 1218 1088 1218 1090 1082 c 0,11,12
 1090 1075 1090 1075 1090 1068 c 0,13,14
 1090 935 1090 935 1046.5 689 c 128,-1,15
 1003 443 1003 443 938.5 321 c 128,-1,16
 874 199 874 199 817 140 c 1,17,-1
 982 -121 l 1,18,-1
 691 -121 l 1,19,-1
 619 12 l 1,20,21
 526 -27 526 -27 426 -27 c 0,22,23
 182 -27 182 -27 80 163 c 0,24,25
 32 254 32 254 30 390 c 0,0,1
301 728 m 0,26,27
 271 562 271 562 271 455 c 128,-1,28
 271 348 271 348 298 298 c 0,29,30
 353 196 353 196 466.5 196 c 128,-1,31
 580 196 580 196 670.5 309 c 128,-1,32
 761 422 761 422 821 747 c 0,33,34
 851 914 851 914 851 1020.5 c 128,-1,35
 851 1127 851 1127 824 1178 c 0,36,37
 770 1280 770 1280 655 1280 c 128,-1,38
 540 1280 540 1280 450 1167 c 128,-1,39
 360 1054 360 1054 301 728 c 0,26,27
EndSplineSet
EndChar

StartChar: R
Encoding: 82 82 53
Width: 1120
Flags: W
HStem: 0 21G<27 280 773.213 1061> 566 215<406 530.687> 1260 215<492 813.426>
VStem: 855 238<927.62 1219.91>
DStem2: 34 43 278 0 0.17593 0.984403<0.597625 573.603 791.935 1278.59> 766 632 532 569 0.422964 -0.906147<-1.66336 579.452>
LayerCount: 2
Fore
SplineSet
27 0 m 1,0,-1
 34 43 l 2,1,2
 38 64 38 64 45 97 c 2,3,-1
 117 447 l 1,4,-1
 220 1025 l 1,5,-1
 275 1382 l 2,6,7
 280 1415 280 1415 284 1435 c 2,8,-1
 289 1466 l 1,9,-1
 290 1475 l 1,10,-1
 681 1475 l 2,11,12
 847 1475 847 1475 946 1419.5 c 128,-1,13
 1045 1364 1045 1364 1078 1240 c 0,14,15
 1093 1187 1093 1187 1093 1135.5 c 0,16,17
 1093 912.220183486 1093 912.220183486 945 752 c 0,18,19
 889 693 889 693 766 632 c 1,20,-1
 1061 0 l 1,21,-1
 782 0 l 1,22,-1
 532 569 l 1,23,24
 490 566 490 566 444 566 c 2,25,-1
 368 566 l 1,26,-1
 344 437 l 1,27,-1
 284 39 l 1,28,-1
 280 10 l 1,29,-1
 278 0 l 1,30,-1
 27 0 l 1,0,-1
406 781 m 1,31,-1
 536 781 l 2,32,33
 638 781 638 781 697 815 c 0,34,35
 821 884 821 884 849 1039 c 0,36,37
 855 1075 855 1075 855 1104 c 0,38,39
 855 1201 855 1201 793.5 1230.5 c 128,-1,40
 732 1260 732 1260 576 1260 c 2,41,-1
 492 1260 l 1,42,-1
 406 781 l 1,31,-1
EndSplineSet
EndChar

StartChar: S
Encoding: 83 83 54
Width: 1120
Flags: W
HStem: -27 223<327.029 633.147> 1110 21G<947.462 989.118> 1280 223<531.717 821.378>
VStem: 209 238<982.067 1197.58> 757 239<313.188 554.184>
DStem2: 578 912 416 749 0.85368 -0.520798<-171.634 364.968>
LayerCount: 2
Fore
SplineSet
-19 271 m 1,0,-1
 189 416 l 1,1,-1
 209 378 l 1,2,3
 308 196 308 196 468 196 c 0,4,5
 579 196 579 196 658 257.5 c 0,6,7
 757 334.569620253 757 334.569620253 757 454 c 0,8,9
 757 504 757 504 726.5 540.5 c 128,-1,10
 696 577 696 577 575 652 c 1,11,-1
 416 749 l 2,12,13
 206.640482128 877.317123857 206.640482128 877.317123857 209 1059 c 0,14,15
 209 1091 209 1091 215 1125 c 0,16,17
 244 1286 244 1286 380 1394.5 c 128,-1,18
 516 1503 516 1503 697.5 1503 c 128,-1,19
 879 1503 879 1503 1043 1379 c 0,20,21
 1066 1361 1066 1361 1114 1306 c 1,22,-1
 1132 1286 l 1,23,-1
 1139 1279 l 1,24,-1
 969 1110 l 1,25,-1
 941 1136 l 2,26,27
 891 1183 891 1183 866 1204 c 0,28,29
 773 1280 773 1280 682.5 1280 c 128,-1,30
 592 1280 592 1280 527 1232 c 0,31,32
 441.388786765 1168.77941176 441.388786765 1168.77941176 447 1079 c 1,33,34
 447 992.055555556 447 992.055555556 578 912 c 2,35,-1
 724 822 l 2,36,37
 871 732 871 732 931.5 662.5 c 128,-1,38
 992 593 992 593 995 524 c 0,39,40
 996 508 996 508 996 493 c 0,41,42
 996 270 996 270 845 127 c 0,43,44
 685 -27 685 -27 446.5 -27 c 128,-1,45
 208 -27 208 -27 68 142 c 0,46,47
 43 172 43 172 3 238 c 1,48,-1
 -19 271 l 1,0,-1
EndSplineSet
EndChar

StartChar: T
Encoding: 84 84 55
Width: 1120
Flags: W
HStem: 0 21G<190 445> 1260 215<44 428 658 1076>
DStem2: 282 444 510 441 0.185607 0.982624<-396.205 828.92>
LayerCount: 2
Fore
SplineSet
6 1260 m 1,0,-1
 43 1466 l 1,1,-1
 44 1475 l 1,2,-1
 1114 1475 l 1,3,-1
 1077 1269 l 1,4,-1
 1076 1260 l 1,5,-1
 658 1260 l 1,6,-1
 510 441 l 1,7,-1
 449 40 l 1,8,-1
 445 10 l 1,9,-1
 444 0 l 1,10,-1
 190 0 l 1,11,-1
 282 444 l 1,12,-1
 428 1260 l 1,13,-1
 6 1260 l 1,0,-1
EndSplineSet
EndChar

StartChar: U
Encoding: 85 85 56
Width: 1120
Flags: W
HStem: -27 223<303.539 553.554> 1455 20G<198 454 846 1102>
VStem: 18 230<246.116 648.5>
DStem2: 38 515 259 457 0.165912 0.986141<-178.656 961.843> 691 524 919 513 0.186877 0.982383<-255.352 963.243>
LayerCount: 2
Fore
SplineSet
18 335 m 0,0,1
 18 405 18 405 38 515 c 2,2,-1
 130 1030 l 1,3,-1
 185 1382 l 2,4,5
 191 1425 191 1425 193 1435 c 2,6,-1
 198 1466 l 1,7,-1
 199 1475 l 1,8,-1
 454 1475 l 1,9,-1
 442 1430 l 1,10,11
 388 1195 388 1195 360 1031 c 1,12,-1
 268 521 l 1,13,-1
 259 457 l 2,14,15
 244.630630631 355.108108108 244.630630631 355.108108108 248 345 c 0,16,17
 256 272 256 272 305.5 234 c 128,-1,18
 355 196 355 196 430.5 196 c 128,-1,19
 506 196 506 196 576.5 257.5 c 128,-1,20
 647 319 647 319 669 417 c 1,21,-1
 691 524 l 1,22,-1
 783 1034 l 2,23,24
 813 1201 813 1201 842 1434 c 1,25,-1
 846 1465 l 1,26,-1
 847 1475 l 1,27,-1
 1102 1475 l 1,28,-1
 1011 1027 l 1,29,-1
 919 513 l 2,30,31
 883 307 883 307 804 197 c 128,-1,32
 725 87 725 87 604.5 30 c 128,-1,33
 484 -27 484 -27 384 -27 c 0,34,35
 237 -27 237 -27 127.5 70 c 128,-1,36
 18 167 18 167 18 335 c 0,0,1
EndSplineSet
EndChar

StartChar: V
Encoding: 86 86 57
Width: 1120
Flags: W
HStem: -14 21G<154 435> 1455 20G<69 322 793 1051>
VStem: 137 227<373 745.395>
DStem2: 793 1468 1028 1423 0.364973 0.931018<-524.66 7.61205>
LayerCount: 2
Fore
SplineSet
69 1475 m 1,0,-1
 322 1475 l 1,1,-1
 322 1464 l 1,2,-1
 364 373 l 1,3,-1
 793 1468 l 1,4,-1
 796 1475 l 1,5,-1
 1051 1475 l 1,6,-1
 1028 1423 l 1,7,8
 816.429565794 951.126615844 816.429565794 951.126615844 444 17 c 1,9,-1
 435 -7 l 1,10,-1
 432 -14 l 1,11,-1
 154 -14 l 1,12,-1
 154 21 l 1,13,-1
 137 387 l 1,14,15
 109 1024 109 1024 74 1426 c 1,16,-1
 70 1463 l 1,17,-1
 69 1475 l 1,0,-1
EndSplineSet
EndChar

StartChar: W
Encoding: 87 87 58
Width: 1120
Flags: W
HStem: -14 21G<-37 209 523.601 770> 1455 20G<105 361 901 1157>
DStem2: 52.5 792.5 245 486 0.0955978 0.99542<-286.694 653.902> 105 1465 355 1432 0.0955978 0.99542<-730.984 10.0498> 669 483 846.5 332.5 0.247945 0.968774<0 970.656>
LayerCount: 2
Fore
SplineSet
-37 -14 m 1,0,-1
 -36 -2 l 1,1,-1
 -32 28 l 2,2,3
 -1 260 -1 260 8 329.5 c 128,-1,4
 17 399 17 399 52.5 792.5 c 128,-1,5
 88 1186 88 1186 103 1432 c 2,6,-1
 105 1465 l 1,7,-1
 106 1475 l 1,8,-1
 361 1475 l 1,9,-1
 359 1463 l 1,10,-1
 355 1432 l 1,11,12
 297 1065 297 1065 264 704 c 1,13,-1
 245 486 l 1,14,-1
 559 1120 l 1,15,-1
 574 1152 l 1,16,-1
 669 483 l 1,17,-1
 728 708 l 2,18,19
 789 939 789 939 814.5 1051.5 c 128,-1,20
 840 1164 840 1164 895 1436 c 2,21,-1
 901 1466 l 1,22,-1
 902 1475 l 1,23,-1
 1157 1475 l 1,24,-1
 1143 1429 l 1,25,26
 1056 1133 1056 1133 957 756.5 c 128,-1,27
 858 380 858 380 846.5 332.5 c 128,-1,28
 835 285 835 285 776 24 c 1,29,-1
 770 -5 l 1,30,-1
 768 -14 l 1,31,-1
 526 -14 l 1,32,-1
 461 528 l 1,33,-1
 209 -8 l 1,34,-1
 206 -14 l 1,35,-1
 -37 -14 l 1,0,-1
EndSplineSet
EndChar

StartChar: X
Encoding: 88 88 59
Width: 1120
Flags: W
HStem: 0 21G<-73 202 667 938> 1455 20G<203 476.185 910.333 1193>
DStem2: 447 745 529 538 0.578186 0.815905<-643.415 -121.481>
LayerCount: 2
Fore
SplineSet
-73 0 m 1,0,-1
 447 745 l 1,1,2
 354 1030 354 1030 222 1418 c 1,3,-1
 208 1461 l 1,4,-1
 203 1475 l 1,5,-1
 471 1475 l 1,6,-1
 478 1448 l 1,7,8
 529 1233 529 1233 605 956 c 1,9,10
 760 1201 760 1201 908 1451 c 1,11,-1
 922 1475 l 1,12,-1
 1193 1475 l 1,13,-1
 689 745 l 1,14,15
 795 407 795 407 919 57 c 1,16,-1
 934 14 l 1,17,-1
 938 0 l 1,18,-1
 670 0 l 1,19,-1
 667 8 l 1,20,-1
 662 27 l 1,21,22
 603 279 603 279 529 538 c 1,23,24
 357 268 357 268 213 24 c 1,25,-1
 202 5 l 1,26,-1
 198 0 l 1,27,-1
 -73 0 l 1,0,-1
EndSplineSet
EndChar

StartChar: Y
Encoding: 89 89 60
Width: 1120
Flags: W
HStem: 0 21G<168 424> 1455 20G<41 303.185 806.333 1079>
DStem2: 298 1475 68 1384 0.282593 -0.95924<0 612.832> 226 276 522 620 0.158622 0.987339<-241.257 463.529> 450 863 292 623 0.282593 -0.95924<-629.476 0> 450 863 522 620 0.545849 0.837883<0 713.657>
LayerCount: 2
Fore
SplineSet
41 1475 m 1,0,-1
 298 1475 l 1,1,-1
 305 1448 l 1,2,3
 380 1128 380 1128 450 863 c 1,4,5
 615 1128 615 1128 804 1451 c 2,6,-1
 818 1475 l 1,7,-1
 1079 1475 l 1,8,-1
 1042 1417 l 1,9,10
 763 997 763 997 522 620 c 1,11,-1
 490 446 l 1,12,-1
 428 40 l 1,13,-1
 424 10 l 1,14,-1
 423 0 l 1,15,-1
 168 0 l 1,16,-1
 170 13 l 1,17,-1
 176 42 l 2,18,19
 184 82 184 82 226 276 c 1,20,-1
 292 623 l 1,21,22
 208 920 208 920 68 1384 c 1,23,-1
 41 1475 l 1,0,-1
EndSplineSet
EndChar

StartChar: Z
Encoding: 90 90 61
Width: 1120
Flags: W
HStem: 0 215<321 915> 1260 215<277 809>
LayerCount: 2
Fore
SplineSet
-10 0 m 1,0,-1
 18 154 l 1,1,-1
 18 157 l 1,2,-1
 20 159 l 1,3,4
 307 536 307 536 809 1260 c 1,5,-1
 239 1260 l 1,6,-1
 276 1466 l 1,7,-1
 277 1475 l 1,8,-1
 1130 1475 l 1,9,-1
 1102 1322 l 1,10,-1
 1102 1319 l 1,11,-1
 1101 1317 l 1,12,-1
 1097 1311 l 1,13,14
 759 843 759 843 321 215 c 1,15,-1
 953 215 l 1,16,-1
 916 9 l 1,17,-1
 915 0 l 1,18,-1
 -10 0 l 1,0,-1
EndSplineSet
EndChar

StartChar: bracketleft
Encoding: 91 91 62
Width: 1120
Flags: W
HStem: -91 215<340 755> 1351 215<556 1009>
DStem2: 73 -91 340 124 0.173548 0.984825<258.075 1503.94>
LayerCount: 2
Fore
SplineSet
73 -91 m 1,0,-1
 363 1557 l 1,1,-1
 365 1566 l 1,2,-1
 1047 1566 l 1,3,-1
 1011 1360 l 1,4,-1
 1009 1351 l 1,5,-1
 556 1351 l 1,6,-1
 340 124 l 1,7,-1
 793 124 l 1,8,-1
 757 -82 l 1,9,-1
 755 -91 l 1,10,-1
 73 -91 l 1,0,-1
EndSplineSet
EndChar

StartChar: backslash
Encoding: 92 92 63
Width: 1120
Flags: W
VStem: 261 595
DStem2: 500 1570 264 1557 0.211333 -0.977414<0 1652.97>
LayerCount: 2
Fore
SplineSet
261 1570 m 1,0,-1
 500 1570 l 1,1,-1
 856 -82 l 1,2,-1
 859 -95 l 1,3,-1
 621 -95 l 1,4,-1
 264 1557 l 1,5,-1
 261 1570 l 1,0,-1
EndSplineSet
EndChar

StartChar: bracketright
Encoding: 93 93 64
Width: 1120
Flags: W
HStem: -91 215<111 564> 1351 215<365 780>
DStem2: 564 124 757 -82 0.173548 0.984825<0 1245.87>
LayerCount: 2
Fore
SplineSet
73 -91 m 1,0,-1
 109 115 l 1,1,-1
 111 124 l 1,2,-1
 564 124 l 1,3,-1
 780 1351 l 1,4,-1
 327 1351 l 1,5,-1
 363 1557 l 1,6,-1
 365 1566 l 1,7,-1
 1047 1566 l 1,8,-1
 757 -82 l 1,9,-1
 755 -91 l 1,10,-1
 73 -91 l 1,0,-1
EndSplineSet
EndChar

StartChar: asciicircum
Encoding: 94 94 65
Width: 1120
Flags: W
DStem2: 94 669 397 675 0.507153 0.861856<152.146 636.857> 827 1517 636 1089 0.228463 -0.973553<373.044 803.183>
LayerCount: 2
Fore
SplineSet
94 669 m 1,0,-1
 593 1517 l 1,1,-1
 827 1517 l 1,2,-1
 1023 683 l 1,3,-1
 1026 669 l 1,4,-1
 729 669 l 1,5,-1
 636 1089 l 1,6,-1
 397 675 l 1,7,-1
 394 669 l 1,8,-1
 94 669 l 1,0,-1
EndSplineSet
EndChar

StartChar: underscore
Encoding: 95 95 66
Width: 1120
Flags: W
HStem: -325 227<11 1109>
LayerCount: 2
Fore
SplineSet
-29 -325 m 1,0,-1
 9 -107 l 1,1,-1
 11 -98 l 1,2,-1
 1149 -98 l 1,3,-1
 1111 -316 l 1,4,-1
 1109 -325 l 1,5,-1
 -29 -325 l 1,0,-1
EndSplineSet
EndChar

StartChar: grave
Encoding: 96 96 67
Width: 1120
Flags: W
HStem: 1147 473
VStem: 292 536
LayerCount: 2
Fore
SplineSet
292 1445 m 1,0,-1
 478 1620 l 1,1,-1
 828 1294 l 1,2,-1
 689 1147 l 1,3,-1
 292 1445 l 1,0,-1
EndSplineSet
EndChar

StartChar: a
Encoding: 97 97 68
Width: 1120
Flags: W
HStem: -27 223<351.114 606.096> 864 223<472.908 759.923>
VStem: 39.5 239<273.517 648.283>
LayerCount: 2
Fore
SplineSet
39.5 390 m 2,0,1
 39.5 395 l 2,2,3
 39.5 762.538085938 39.5 762.538085938 310.5 971 c 0,4,5
 462.5 1087 462.5 1087 636.5 1087 c 0,6,7
 747.5 1087 747.5 1087 833.5 1046 c 9,8,-1
 857.5 1088 l 5,9,-1
 1080.5 1088 l 5,10,-1
 1018.5 861 l 1,11,-1
 969.5 590 l 2,12,13
 916.5 299.088867188 916.5 299.088867188 916.5 230.544921875 c 128,-1,14
 916.5 162 916.5 162 930.5 40 c 2,15,-1
 934.5 4 l 1,16,-1
 935.5 -7 l 1,17,-1
 712.5 -32 l 1,18,-1
 701.5 -33 l 1,19,-1
 700.5 -22 l 2,20,21
 697.5 3 697.5 3 691.5 59 c 1,22,23
 573.5 -27 573.5 -27 414 -27 c 128,-1,24
 254.5 -27 254.5 -27 147 91.5 c 128,-1,25
 39.5 210 39.5 210 39.5 390 c 2,0,1
278.5 435 m 0,26,27
 278.5 328 278.5 328 330.5 262 c 128,-1,28
 382.5 196 382.5 196 459.5 196 c 128,-1,29
 536.5 196 536.5 196 585 225.5 c 128,-1,30
 633.5 255 633.5 255 692.5 328 c 1,31,-1
 778.5 804 l 1,32,33
 715.5 864 715.5 864 630.5 864 c 128,-1,34
 545.5 864 545.5 864 477.5 823 c 0,35,36
 323.5 731 323.5 731 288.5 537 c 0,37,38
 278.5 482 278.5 482 278.5 435 c 0,26,27
EndSplineSet
EndChar

StartChar: b
Encoding: 98 98 69
Width: 1120
Flags: W
HStem: -27 223<437.252 681.314> 898 223<513.544 785.793> 1481 20G<341.5 597.5>
VStem: 867.5 239<424.77 812.359>
DStem2: 194.5 595 374.5 325 0.162279 0.986745<-291.278 313.871 532.974 918.17> 341.5 1492 597.5 1501 0.162279 0.986745<-1100.32 -574.406 -278.995 9.20526>
LayerCount: 2
Fore
SplineSet
13.5 -6 m 1,0,-1
 34.5 42 l 2,1,2
 44.5 64 44.5 64 74.5 126 c 128,-1,3
 104.5 188 104.5 188 128.5 275 c 128,-1,4
 152.5 362 152.5 362 194.5 595 c 2,5,-1
 276.5 1060 l 1,6,-1
 300.5 1216 l 1,7,8
 331.5 1427 331.5 1427 336.5 1460 c 2,9,-1
 341.5 1492 l 1,10,-1
 343.5 1501 l 1,11,-1
 597.5 1501 l 1,12,-1
 511.5 1083 l 1,13,14
 605.5 1121 605.5 1121 706.5 1121 c 0,15,16
 883.5 1121 883.5 1121 992.5 1003 c 0,17,18
 1106.5 884 1106.5 884 1106.5 685 c 0,19,20
 1106.5 615 1106.5 615 1092.5 534 c 0,21,22
 1037.5 228 1037.5 228 821.5 79 c 0,23,24
 669.5 -27 669.5 -27 520 -27 c 128,-1,25
 370.5 -27 370.5 -27 280.5 60 c 1,26,27
 267.5 31 267.5 31 252.5 -1 c 1,28,-1
 239.5 -26 l 1,29,-1
 236.5 -33 l 1,30,-1
 28.5 -8 l 1,31,-1
 13.5 -6 l 1,0,-1
374.5 325 m 1,32,33
 406.5 252 406.5 252 445 224 c 128,-1,34
 483.5 196 483.5 196 541.5 196 c 0,35,36
 633.5 196 633.5 196 713.5 264 c 0,37,38
 824.5 359 824.5 359 857.5 540 c 0,39,40
 868.5 600 868.5 600 867.5 650 c 0,41,42
 867.5 792 867.5 792 780.5 858 c 0,43,44
 725.5 898 725.5 898 639.5 898 c 128,-1,45
 553.5 898 553.5 898 466.5 836 c 1,46,-1
 374.5 325 l 1,32,33
EndSplineSet
EndChar

StartChar: c
Encoding: 99 99 70
Width: 1120
Flags: W
HStem: -27 223<365.603 649.859> 898 223<473.108 762.35>
VStem: 42 238<280.569 656.361>
DStem2: 722 291 930 191 0.738029 0.674769<-177.606 128.544>
LayerCount: 2
Fore
SplineSet
42 398 m 0,0,1
 42 465 42 465 55 541 c 0,2,3
 125 930 125 930 427 1065 c 0,4,5
 544 1121 544 1121 653 1121 c 0,6,7
 873 1121 873 1121 986 975 c 0,8,9
 1016 936 1016 936 1059 856 c 2,10,-1
 1078 821 l 1,11,-1
 864 694 l 1,12,-1
 853 687 l 1,13,-1
 836 727 l 2,14,15
 809 791 809 791 797 811 c 0,16,17
 741 898 741 898 645.5 898 c 128,-1,18
 550 898 550 898 472 853 c 0,19,20
 333 772 333 772 290 536 c 0,21,22
 280 481 280 481 280 435 c 0,23,24
 280 285 280 285 387 227 c 0,25,26
 439 196 439 196 501 196 c 0,27,28
 607 196 607 196 722 291 c 0,29,30
 733 300 733 300 792 355 c 2,31,-1
 827 387 l 1,32,-1
 955 227 l 1,33,-1
 962 219 l 1,34,-1
 930 191 l 1,35,36
 861 129 861 129 797 82 c 128,-1,37
 733 35 733 35 646 4 c 128,-1,38
 559 -27 559 -27 473 -27 c 0,39,40
 213 -27 213 -27 101 161 c 0,41,42
 42 259 42 259 42 398 c 0,0,1
EndSplineSet
EndChar

StartChar: d
Encoding: 100 100 71
Width: 1120
Flags: W
HStem: -27 223<319.785 574.273> 898 223<447.407 734.012> 1481 20G<857 1113>
VStem: 7 240<272.851 661.211> 660 239<-8.07064 58.496>
DStem2: 938 591 661 328 0.188847 0.982006<-382.35 479.705>
LayerCount: 2
Fore
SplineSet
7 400 m 0,0,1
 7 466 7 466 22 548 c 0,2,3
 75 842 75 842 285 1005 c 0,4,5
 437 1121 437 1121 611 1121 c 0,6,7
 712 1121 712 1121 796 1082 c 1,8,-1
 845 1406 l 1,9,-1
 852 1460 l 1,10,-1
 857 1492 l 1,11,-1
 858 1501 l 1,12,-1
 1113 1501 l 1,13,-1
 1103 1456 l 2,14,15
 1096 1423 1096 1423 1053 1212 c 2,16,-1
 1021 1056 l 1,17,-1
 938 591 l 2,18,19
 882.192139738 282.19650655 882.192139738 282.19650655 883.596069869 211.098253275 c 128,-1,20
 885 140 885 140 899 40 c 1,21,-1
 903 4 l 1,22,-1
 904 -7 l 1,23,-1
 681 -32 l 1,24,-1
 670 -33 l 1,25,-1
 669 -22 l 1,26,-1
 666 3 l 2,27,28
 662 32 662 32 660 59 c 1,29,30
 542 -27 542 -27 382.5 -27 c 128,-1,31
 223 -27 223 -27 108 99 c 0,32,33
 7 208.911764706 7 208.911764706 7 400 c 0,0,1
247 435 m 0,34,35
 247 328 247 328 299.5 262 c 128,-1,36
 352 196 352 196 428.5 196 c 128,-1,37
 505 196 505 196 553 225.5 c 128,-1,38
 601 255 601 255 661 328 c 1,39,-1
 753 838 l 1,40,41
 689 898 689 898 604.5 898 c 128,-1,42
 520 898 520 898 452 857 c 0,43,44
 298 765 298 765 257 537 c 0,45,46
 247 482 247 482 247 435 c 0,34,35
EndSplineSet
EndChar

StartChar: e
Encoding: 101 101 72
Width: 1120
Flags: W
HStem: -27 223<362.443 724.99> 462 173<331.878 822.878> 898 223<493.222 755.396>
VStem: 61.8779 227<268.078 461.188>
LayerCount: 2
Fore
SplineSet
298.877929688 3 m 0,0,1
 61.8779296875 91.875 61.8779296875 91.875 61.8779296875 415 c 0,2,3
 61.8779296875 472 61.8779296875 472 74.8779296875 544 c 0,4,5
 116.877929688 778 116.877929688 778 259.877929688 935 c 0,6,7
 333.877929688 1017 333.877929688 1017 443.877929688 1069 c 128,-1,8
 553.877929688 1121 553.877929688 1121 674.877929688 1121 c 0,9,10
 923.877929688 1121 923.877929688 1121 1014.87792969 918 c 0,11,12
 1082.0546875 769.904296875 1082.0546875 769.904296875 1044.87792969 564 c 0,13,14
 1042.87792969 555 1042.87792969 555 1032.87792969 499 c 1,15,-1
 1023.87792969 462 l 1,16,-1
 290.877929688 462 l 1,17,18
 287.877929688 436 287.877929688 436 288.877929688 413 c 0,19,20
 288.877929688 266 288.877929688 266 401.877929688 217 c 0,21,22
 451.877929688 196 451.877929688 196 512.877929688 196 c 0,23,24
 649.877929688 196 649.877929688 196 861.877929688 298 c 1,25,-1
 903.877929688 320 l 1,26,-1
 964.877929688 111 l 1,27,-1
 967.877929688 102 l 1,28,-1
 926.877929688 85 l 1,29,30
 845.877929688 53 845.877929688 53 838.877929688 50 c 1,31,-1
 837.877929688 50 l 1,32,33
 632.877929688 -27 632.877929688 -27 467.877929688 -27 c 0,34,35
 464.877929688 -27 464.877929688 -27 461.877929688 -27 c 0,36,37
 374.877929688 -27 374.877929688 -27 298.877929688 3 c 0,0,1
331.877929688 635 m 1,38,-1
 822.877929688 635 l 1,39,40
 822.877929688 642 822.877929688 642 822.877929688 675.5 c 0,41,42
 822.877929688 773.709960938 822.877929688 773.709960938 771.877929688 835.854492188 c 128,-1,43
 720.877929688 898 720.877929688 898 630.877929688 898 c 128,-1,44
 540.877929688 898 540.877929688 898 456.877929688 827 c 0,45,46
 412.877929688 791 412.877929688 791 387.377929688 751.5 c 128,-1,47
 361.877929688 712 361.877929688 712 331.877929688 635 c 1,38,-1
EndSplineSet
EndChar

StartChar: f
Encoding: 102 102 73
Width: 1120
Flags: W
HStem: -417 21G<59 290> 879 215<51 292 560 874> 1363 223<635.854 924.962>
DStem2: 59 -417 290 -408 0.176925 0.984224<40.6928 1316.78 1575.8 1803.66>
LayerCount: 2
Fore
SplineSet
13 879 m 1,0,-1
 50 1085 l 1,1,-1
 51 1094 l 1,2,-1
 330 1094 l 1,3,-1
 345 1174 l 2,4,5
 362 1270 362 1270 385 1326 c 0,6,7
 433 1440 433 1440 553.5 1513 c 128,-1,8
 674 1586 674 1586 798 1586 c 128,-1,9
 922 1586 922 1586 1099 1507 c 1,10,-1
 1107 1504 l 1,11,-1
 1066 1272 l 1,12,-1
 1064 1258 l 1,13,-1
 1011 1281 l 2,14,15
 882 1338 882 1338 843.5 1350.5 c 128,-1,16
 805 1363 805 1363 762 1363 c 0,17,18
 672 1363 672 1363 631 1314.5 c 128,-1,19
 590 1266 590 1266 572 1165 c 2,20,-1
 560 1094 l 1,21,-1
 912 1094 l 1,22,-1
 875 888 l 1,23,-1
 874 879 l 1,24,-1
 522 879 l 1,25,-1
 290 -408 l 1,26,-1
 289 -417 l 1,27,-1
 59 -417 l 1,28,-1
 292 879 l 1,29,-1
 13 879 l 1,0,-1
EndSplineSet
EndChar

StartChar: g
Encoding: 103 103 74
Width: 1120
Flags: W
HStem: -418 223<269.77 544.035> 2 216<355.576 621.543> 898 223<465.274 741.851> 1074 20G<892 1132>
VStem: 58 240<279.846 650.151>
DStem2: 708 326 893 49 0.176865 0.984235<-50.565 516.615>
LayerCount: 2
Fore
SplineSet
-12 -203 m 1,0,-1
 186 -52 l 1,1,-1
 210 -86 l 1,2,3
 282 -195 282 -195 413 -195 c 0,4,5
 503 -195 503 -195 570.5 -129 c 128,-1,6
 638 -63 638 -63 663 58 c 1,7,8
 543 2 543 2 416 2 c 2,9,-1
 412 2 l 2,10,11
 278 2 278 2 190 76 c 0,12,13
 58 188 58 188 58 384 c 0,14,15
 58 444 58 444 82.5 578 c 128,-1,16
 107 712 107 712 163 820 c 0,17,18
 321 1121 321 1121 641 1121 c 0,19,20
 719 1121 719 1121 771 1101 c 128,-1,21
 823 1081 823 1081 878 1045 c 1,22,23
 884 1059 884 1059 888 1066 c 2,24,-1
 902 1094 l 1,25,-1
 1132 1094 l 1,26,-1
 1111 1044 l 2,27,28
 1040 875 1040 875 1024 778 c 1,29,-1
 893 49 l 2,30,31
 861 -126 861 -126 751 -241 c 0,32,33
 673 -323 673 -323 572 -370.5 c 128,-1,34
 471 -418 471 -418 374 -418 c 0,35,36
 167 -418 167 -418 47 -273 c 0,37,38
 35 -258 35 -258 15 -235 c 2,39,-1
 -5 -212 l 1,40,-1
 -12 -203 l 1,0,-1
306 505 m 0,41,42
 298 464 298 464 298 410 c 128,-1,43
 298 356 298 356 328 301 c 0,44,45
 373 218 373 218 463 218 c 0,46,47
 591 218 591 218 708 326 c 1,48,-1
 797 800 l 1,49,50
 720 898 720 898 603 898 c 0,51,52
 481 898 481 898 411 796 c 128,-1,53
 341 694 341 694 306 505 c 0,41,42
EndSplineSet
EndChar

StartChar: h
Encoding: 104 104 75
Width: 1120
Flags: W
HStem: 0 21G<70 326 665 922> 898 223<624.964 800.082> 1481 20G<337 593>
VStem: 811 239<527.992 892.236>
DStem2: 77 43 387 431 0.176156 0.984362<41.2621 738.936 1014.61 1481.35> 758 434 920 0 0.163933 0.986472<-401.572 356.041>
LayerCount: 2
Fore
SplineSet
811 788 m 0,0,1
 811 898 811 898 740 898 c 0,2,3
 701 898 701 898 636.5 861 c 128,-1,4
 572 824 572 824 517.5 762.5 c 0,5,6
 468.736842105 707.473684211 468.736842105 707.473684211 440 650 c 1,7,8
 425.791666667 635.791666667 425.791666667 635.791666667 416.395833333 585.395833333 c 128,-1,9
 407 535 407 535 405 528 c 2,10,-1
 387 431 l 2,11,12
 355 254 355 254 328 40 c 1,13,-1
 324 0 l 1,14,-1
 70 0 l 1,15,-1
 77 43 l 2,16,17
 79 54 79 54 89 96 c 1,18,-1
 160 446 l 1,19,-1
 270 1061 l 1,20,-1
 323 1404 l 2,21,22
 329 1449 329 1449 331 1461 c 2,23,-1
 337 1492 l 1,24,-1
 339 1501 l 1,25,-1
 593 1501 l 1,26,-1
 497 1044 l 1,27,-1
 489 1000 l 1,28,29
 640 1121 640 1121 789 1121 c 0,30,31
 898 1121 898 1121 975 1042 c 0,32,33
 1046.14399575 972.104144527 1046.14399575 972.104144527 1050 841 c 0,34,35
 1050 775 1050 775 1034 686 c 2,36,-1
 989 439 l 1,37,-1
 935 92 l 1,38,39
 931 58 931 58 927 39 c 2,40,-1
 922 9 l 1,41,-1
 920 0 l 1,42,-1
 665 0 l 1,43,-1
 675 42 l 2,44,45
 727 263 727 263 758 434 c 2,46,-1
 794 635 l 2,47,48
 811 728 811 728 811 788 c 0,0,1
EndSplineSet
EndChar

StartChar: i
Encoding: 105 105 76
Width: 1120
Flags: W
HStem: -27 223<568.917 754.096> 879 215<158 425> 1178 312<534.096 714.096>
VStem: 328 235<199.875 554.531> 466 316<1293.82 1422.92>
DStem2: 351 435 581 439 0.196116 0.980581<-106.725 449.89>
LayerCount: 2
Fore
SplineSet
630 196 m 0,0,1
 758.714285714 196 758.714285714 196 829 319 c 1,2,-1
 1000 274 l 1,3,-1
 974 235 l 2,4,5
 970.888888889 231.888888889 970.888888889 231.888888889 942 193 c 0,6,7
 782 -27 782 -27 590 -27 c 0,8,9
 423 -27 423 -27 361 75 c 0,10,11
 328 130 328 130 328 223.5 c 128,-1,12
 328 317 328 317 351 435 c 1,13,-1
 390 647 l 1,14,-1
 425 879 l 1,15,-1
 120 879 l 1,16,-1
 157 1085 l 1,17,-1
 158 1094 l 1,18,-1
 712 1094 l 1,19,-1
 703 1052 l 1,20,21
 636 746 636 746 620 657 c 2,22,-1
 581 439 l 2,23,24
 563 338 563 338 563 282 c 0,25,26
 563 196 563 196 630 196 c 0,0,1
597.5 1178 m 132,-1,28
 532 1178 532 1178 499 1219.5 c 132,-1,29
 466 1261 466 1261 466 1291.5 c 132,-1,30
 466 1322 466 1322 468 1337 c 4,31,32
 479 1400 479 1400 533 1445 c 132,-1,33
 587 1490 587 1490 651.5 1490 c 132,-1,34
 716 1490 716 1490 749 1448.5 c 132,-1,35
 782 1407 782 1407 782 1377 c 4,36,37
 782 1280 782 1280 722.5 1229 c 132,-1,27
 663 1178 663 1178 597.5 1178 c 132,-1,28
EndSplineSet
EndChar

StartChar: j
Encoding: 106 106 77
Width: 1120
Flags: W
HStem: -333 223<302.989 505.303> 879 215<453.994 721.994> 1178 312<829.77 1008.34>
VStem: 41.9941 234.5<-84.3748 192.797>
DStem2: 569.994 43 801.994 34 0.189421 0.981896<-120.718 849.657>
LayerCount: 2
Fore
SplineSet
97.994140625 -204 m 0,0,1
 41.994140625 -118 41.994140625 -118 41.994140625 -23 c 128,-1,2
 41.994140625 72 41.994140625 72 63.994140625 156 c 1,3,-1
 69.994140625 185 l 1,4,-1
 71.994140625 193 l 1,5,-1
 309.994140625 193 l 1,6,-1
 305.994140625 180 l 1,7,-1
 299.994140625 148 l 1,8,9
 276.994140625 47.7861328125 276.994140625 47.7861328125 276.494140625 7.892578125 c 128,-1,10
 275.994140625 -32 275.994140625 -32 306.994140625 -71 c 128,-1,11
 337.994140625 -110 337.994140625 -110 381.994140625 -110 c 0,12,13
 471.994140625 -110 471.994140625 -110 529.994140625 -41 c 0,14,15
 557.994140625 -5 557.994140625 -5 569.994140625 43 c 128,-1,16
 581.994140625 91 581.994140625 91 631.994140625 356 c 1,17,-1
 683.994140625 646 l 1,18,-1
 721.994140625 879 l 1,19,-1
 415.994140625 879 l 1,20,-1
 451.994140625 1085 l 1,21,-1
 453.994140625 1094 l 1,22,-1
 1007.99414062 1094 l 1,23,-1
 1003.99414062 1081 l 1,24,-1
 997.994140625 1050 l 1,25,26
 935.994140625 763 935.994140625 763 913.994140625 648 c 1,27,-1
 861.994140625 348 l 1,28,29
 843.994140625 254 843.994140625 254 831.994140625 190 c 2,30,-1
 801.994140625 34 l 1,31,32
 763.994140625 -128 763.994140625 -128 637.994140625 -230.5 c 128,-1,33
 511.994140625 -333 511.994140625 -333 359.994140625 -333 c 0,34,35
 277.994140625 -333 277.994140625 -333 208.994140625 -299 c 128,-1,36
 139.994140625 -265 139.994140625 -265 97.994140625 -204 c 0,0,1
1008.99414062 1223 m 132,-1,38
 955.994140625 1178 955.994140625 1178 890.994140625 1178 c 132,-1,39
 825.994140625 1178 825.994140625 1178 793.994140625 1219.5 c 132,-1,40
 761.994140625 1261 761.994140625 1261 761.994140625 1291.5 c 132,-1,41
 761.994140625 1322 761.994140625 1322 763.994140625 1337 c 4,42,43
 774.994140625 1400 774.994140625 1400 828.494140625 1445 c 132,-1,44
 881.994140625 1490 881.994140625 1490 945.994140625 1490 c 132,-1,45
 1009.99414062 1490 1009.99414062 1490 1043.49414062 1448.5 c 4,46,47
 1089.77246094 1391.16992188 1089.77246094 1391.16992188 1073.99414062 1332 c 5,48,37
 1061.99414062 1268 1061.99414062 1268 1008.99414062 1223 c 132,-1,38
EndSplineSet
EndChar

StartChar: k
Encoding: 107 107 78
Width: 1120
Flags: W
HStem: 0 21G<11 264 677.749 1001> 1074 20G<799 1109> 1481 20G<278 531>
DStem2: 18 43 264 9 0.176156 0.984362<0.654482 461.678 683.668 1481.35> 803 1094 766 772 0.729073 0.684436<-530.271 0>
LayerCount: 2
Fore
SplineSet
11 0 m 1,0,-1
 18 43 l 2,1,2
 22 63 22 63 29 97 c 2,3,-1
 101 446 l 1,4,-1
 208 1045 l 1,5,-1
 263 1405 l 2,6,7
 268 1438 268 1438 272 1461 c 2,8,-1
 278 1492 l 1,9,-1
 280 1501 l 1,10,-1
 531 1501 l 1,11,-1
 510 1400 l 1,12,13
 438 1045 438 1045 435 1027 c 2,14,-1
 373 674 l 1,15,16
 657 916 657 916 799 1090 c 1,17,-1
 803 1094 l 1,18,-1
 1109 1094 l 1,19,-1
 1039 1028 l 1,20,21
 848 845 848 845 766 772 c 128,-1,22
 684 699 684 699 544 587 c 1,23,-1
 1001 0 l 1,24,-1
 691 0 l 1,25,-1
 369 486 l 1,26,-1
 331 456 l 1,27,28
 321 394 321 394 277 97 c 1,29,-1
 269 41 l 1,30,-1
 264 9 l 1,31,-1
 262 0 l 1,32,-1
 11 0 l 1,0,-1
EndSplineSet
EndChar

StartChar: l
Encoding: 108 108 79
Width: 1120
Flags: W
HStem: -27 223<519.167 715.327> 1286 215<183 447>
VStem: 277 238<209.969 538.406>
DStem2: 304 445 532 444 0.18771 0.982225<-104.488 651.423>
LayerCount: 2
Fore
SplineSet
145 1286 m 1,0,-1
 181 1492 l 1,1,-1
 183 1501 l 1,2,-1
 734 1501 l 1,3,-1
 640 1044 l 1,4,-1
 532 444 l 1,5,6
 515 338 515 338 515 297 c 128,-1,7
 515 256 515 256 518 240 c 0,8,9
 527 196 527 196 581 196 c 128,-1,10
 635 196 635 196 677 219 c 0,11,12
 774 272 774 272 790 295 c 1,13,-1
 804 319 l 1,14,-1
 975 274 l 1,15,-1
 948 235 l 1,16,-1
 948 234 l 1,17,18
 943 228 943 228 904 174 c 128,-1,19
 865 120 865 120 805.5 71 c 0,20,21
 686.5 -27 686.5 -27 529.75 -27 c 128,-1,22
 373 -27 373 -27 306 83 c 0,23,24
 277 130 277 130 277 221 c 128,-1,25
 277 312 277 312 304 445 c 1,26,-1
 411 1047 l 1,27,28
 433 1206 433 1206 447 1286 c 1,29,-1
 145 1286 l 1,0,-1
EndSplineSet
EndChar

StartChar: m
Encoding: 109 109 80
Width: 1120
Flags: W
HStem: 0 21G<-4 250 362 616 728 980> 898 224<423.595 623.25 783.899 946.5> 1074 20G<147 382.667>
VStem: 891.5 232.5<627.594 887.171>
DStem2: -2 13 259 89 0.193372 0.981125<36.2137 435.957 470.829 854.146 857.967 909.977> 418 267 652 263 0.194962 0.980811<-182.541 634.44> 817 434 1018 267 0.162207 0.986757<-401.975 457.999>
LayerCount: 2
Fore
SplineSet
492 654 m 1,0,1
 521 816 521 816 521.5 857 c 128,-1,2
 522 898 522 898 502 898 c 0,3,4
 454 898 454 898 386 811 c 1,5,6
 359 691 359 691 353 658 c 2,7,-1
 312 431 l 1,8,-1
 259 89 l 1,9,10
 254 64 254 64 252 40 c 2,11,-1
 248 0 l 1,12,-1
 -4 0 l 1,13,-1
 -2 13 l 1,14,-1
 4 42 l 2,15,16
 36 196 36 196 57 295.5 c 128,-1,17
 78 395 78 395 86 440 c 2,18,-1
 118 619 l 2,19,20
 156 828 156 828 156 912 c 128,-1,21
 156 996 156 996 152 1047 c 1,22,-1
 148 1082 l 1,23,-1
 147 1094 l 1,24,-1
 381 1094 l 1,25,26
 384.333333333 1079 384.333333333 1079 388 1057 c 1,27,28
 486 1122 486 1122 577.5 1122 c 128,-1,29
 669 1122 669 1122 722 1040 c 1,30,31
 830 1122 830 1122 918 1122 c 0,32,33
 975 1122 975 1122 1029 1090 c 0,34,35
 1124 1035 1124 1035 1124 914 c 0,36,37
 1122 864 1122 864 1100 740 c 2,38,-1
 1045 437 l 1,39,-1
 1018 267 l 2,40,41
 1004 174 1004 174 995.5 117 c 128,-1,42
 987 60 987 60 984 40 c 2,43,-1
 980 10 l 1,44,-1
 979 0 l 1,45,-1
 728 0 l 1,46,-1
 730 13 l 1,47,-1
 736 42 l 1,48,49
 801 345 801 345 817 434 c 2,50,-1
 881 788 l 2,51,52
 891 845 891 845 891.5 861 c 128,-1,53
 892 877 892 877 883.5 887.5 c 128,-1,54
 875 898 875 898 862 898 c 0,55,56
 825 898 825 898 754 827 c 1,57,58
 735 749 735 749 719 658 c 2,59,-1
 678 431 l 1,60,-1
 652 263 l 2,61,62
 623 74 623 74 618 40 c 1,63,-1
 614 0 l 1,64,-1
 362 0 l 1,65,-1
 364 13 l 1,66,-1
 370 42 l 2,67,68
 379 82 379 82 418 267 c 1,69,-1
 492 654 l 1,0,1
EndSplineSet
EndChar

StartChar: n
Encoding: 110 110 81
Width: 1120
Flags: W
HStem: 0 21G<61 318 677 933> 898 223<622.299 811.576> 1074 20G<214 439>
VStem: 218 222<973 1094>
DStem2: 61 0 316 0 0.152898 0.988242<38.9889 635.324> 677 0 931 0 0.158553 0.987351<40.2724 310.237 441.951 456.34 629.232 863.05>
LayerCount: 2
Fore
SplineSet
61 0 m 1,0,-1
 82 94 l 1,1,2
 145 401 145 401 152 439 c 2,3,-1
 166 517 l 2,4,5
 205 738 205 738 211.5 808.5 c 128,-1,6
 218 879 218 879 218 940.5 c 128,-1,7
 218 1002 218 1002 217 1048 c 1,8,-1
 215 1083 l 1,9,-1
 214 1094 l 1,10,-1
 438 1094 l 1,11,-1
 439 1083 l 1,12,-1
 440 1059 l 2,13,14
 441 1032 441 1032 441 1010.5 c 128,-1,15
 441 989 441 989 440 973 c 1,16,17
 482 1009 482 1009 543 1045 c 0,18,19
 670 1121 670 1121 798.5 1121 c 128,-1,20
 927 1121 927 1121 1005 1020 c 0,21,22
 1059 950.045454545 1059 950.045454545 1059 865.022727273 c 128,-1,23
 1059 780 1059 780 1041 685 c 1,24,-1
 998 437 l 1,25,-1
 971 267 l 2,26,27
 942 79 942 79 937 40 c 2,28,-1
 933 10 l 1,29,-1
 931 0 l 1,30,-1
 677 0 l 1,31,-1
 768 433 l 1,32,-1
 804 634 l 1,33,34
 834.071672355 796.052901024 834.071672355 796.052901024 813 854 c 0,35,36
 804 873 804 873 784.5 885.5 c 128,-1,37
 765 898 765 898 746 898 c 0,38,39
 691 898 691 898 617.5 851.5 c 128,-1,40
 544 805 544 805 481.5 725 c 128,-1,41
 419 645 419 645 398 530 c 1,42,-1
 329 89 l 1,43,-1
 318 10 l 1,44,-1
 316 0 l 1,45,-1
 61 0 l 1,0,-1
EndSplineSet
EndChar

StartChar: o
Encoding: 111 111 82
Width: 1120
Flags: W
HStem: -27 223<363.3 642.041> 898 223<474.723 756.437>
VStem: 67 238<254.404 662.299> 815 238<429.564 837.915>
LayerCount: 2
Fore
SplineSet
67 384 m 0,0,1
 67 458 67 458 83 546 c 0,2,3
 152 929 152 929 430 1064 c 0,4,5
 540 1121 540 1121 682.5 1121 c 128,-1,6
 825 1121 825 1121 939 1017.5 c 128,-1,7
 1053 914 1053 914 1053 709 c 0,8,9
 1053 634 1053 634 1037 547 c 0,10,11
 967 159 967 159 690 30 c 1,12,13
 578 -27 578 -27 458 -27 c 0,14,15
 294 -27 294 -27 180.5 76 c 128,-1,16
 67 179 67 179 67 384 c 0,0,1
815 685 m 0,17,18
 815 898 815 898 620 898 c 0,19,20
 382 898 382 898 319 545 c 0,21,22
 306 471 306 471 305 413 c 0,23,24
 305 196 305 196 494 196 c 0,25,26
 737 196 737 196 801 546 c 0,27,28
 815 625 815 625 815 685 c 0,17,18
EndSplineSet
EndChar

StartChar: p
Encoding: 112 112 83
Width: 1120
Flags: W
HStem: -422 21G<6 261> -27 223<385.523 676.68> 896 223<546.086 801.25>
VStem: 875 239<431.865 816.67>
DStem2: 99 33 324 12 0.166286 0.986078<-421.893 16.7068 242.109 836.058>
LayerCount: 2
Fore
SplineSet
6 -422 m 1,0,-1
 8 -409 l 1,1,-1
 14 -377 l 1,2,3
 84 -48 84 -48 99 33 c 2,4,-1
 182 499 l 2,5,6
 235 791.894736842 235 791.894736842 235 895 c 0,7,8
 235 918 235 918 234 941 c 1,9,-1
 222 1053 l 1,10,-1
 218 1099 l 1,11,-1
 439 1124 l 1,12,-1
 450 1125 l 1,13,-1
 456 1069 l 1,14,15
 459 1053 459 1053 460 1033 c 1,16,17
 578 1119 578 1119 738 1119 c 128,-1,18
 898 1119 898 1119 1014 991 c 0,19,20
 1114 878 1114 878 1114 693 c 0,21,22
 1114 623 1114 623 1100 543 c 0,23,24
 1048 253 1048 253 836 92 c 0,25,26
 682.711864407 -27 682.711864407 -27 509 -27 c 0,27,28
 406 -27 406 -27 324 12 c 1,29,-1
 265 -380 l 1,30,-1
 261 -412 l 1,31,-1
 260 -422 l 1,32,-1
 6 -422 l 1,0,-1
367 256 m 1,33,34
 431 196 431 196 515 196 c 128,-1,35
 599 196 599 196 671 237 c 0,36,37
 824 326 824 326 865 556 c 0,38,39
 875 610 875 610 875 656 c 0,40,41
 875 764 875 764 822 830 c 128,-1,42
 769 896 769 896 693 896 c 128,-1,43
 617 896 617 896 568 867 c 128,-1,44
 519 838 519 838 460 764 c 1,45,-1
 367 256 l 1,33,34
EndSplineSet
EndChar

StartChar: q
Encoding: 113 113 84
Width: 1120
Flags: W
HStem: -422 21G<521 777> -27 223<335.55 606.941> 896 223<438.518 683.431>
VStem: 13 240<282.997 664.047>
LayerCount: 2
Fore
SplineSet
13 410 m 0,0,1
 13 477 13 477 27 556 c 0,2,3
 81 858 81 858 298 1012 c 0,4,5
 448 1119 448 1119 599.5 1119 c 128,-1,6
 751 1119 751 1119 839 1032 c 1,7,8
 853 1065 853 1065 868 1094 c 2,9,-1
 880 1118 l 1,10,-1
 883 1125 l 1,11,-1
 1092 1100 l 1,12,-1
 1107 1098 l 1,13,-1
 1073 1021 l 1,14,15
 1017 904 1017 904 993 820 c 128,-1,16
 969 736 969 736 926 491 c 2,17,-1
 842 22 l 1,18,-1
 781 -380 l 1,19,-1
 777 -412 l 1,20,-1
 775 -422 l 1,21,-1
 521 -422 l 1,22,-1
 524 -409 l 1,23,-1
 530 -377 l 2,24,25
 538 -335 538 -335 581 -131 c 1,26,-1
 609 11 l 1,27,28
 514 -27 514 -27 414 -27 c 0,29,30
 237 -27 237 -27 128 91 c 0,31,32
 13 212.052631579 13 212.052631579 13 410 c 0,0,1
253 442 m 0,33,34
 253 301 253 301 339 237 c 0,35,36
 395 196 395 196 481 196 c 128,-1,37
 567 196 567 196 654 258 c 1,38,-1
 746 767 l 1,39,40
 714 840 714 840 676 868 c 0,41,42
 637 896 637 896 579 896 c 0,43,44
 487 896 487 896 408 829 c 0,45,46
 297 734 297 734 264 552 c 0,47,48
 253 492 253 492 253 442 c 0,33,34
EndSplineSet
EndChar

StartChar: r
Encoding: 114 114 85
Width: 1120
Flags: W
HStem: 0 21G<77 332> 898 223<654.284 876> 1074 20G<227 455>
VStem: 231 227<953.938 1094> 814 229<670.414 891.108>
DStem2: 97 94 343 89 0.198662 0.980068<-45.6394 354.189 432.435 690.435>
LayerCount: 2
Fore
SplineSet
77 0 m 1,0,-1
 97 94 l 1,1,2
 165 423 165 423 168 441 c 2,3,-1
 182 518 l 2,4,5
 231 788 231 788 231 978 c 0,6,7
 231 1014 231 1014 229 1047 c 2,8,-1
 227 1083 l 1,9,-1
 227 1094 l 1,10,-1
 455 1094 l 1,11,-1
 455 1083 l 1,12,-1
 456 1059 l 2,13,14
 458 1022 458 1022 458 980 c 2,15,-1
 458 949 l 1,16,17
 513 1003 513 1003 601.5 1062 c 128,-1,18
 690 1121 690 1121 814 1121 c 128,-1,19
 938 1121 938 1121 1001 1026 c 0,20,21
 1043 961.833333333 1043 961.833333333 1043 886.416666667 c 128,-1,22
 1043 811 1043 811 1030 711 c 1,23,-1
 1025 679 l 1,24,-1
 1024 670 l 1,25,-1
 793 670 l 1,26,-1
 800 714 l 2,27,28
 814 798 814 798 814 825.5 c 128,-1,29
 814 853 814 853 809 869.5 c 0,30,31
 800.363636364 898 800.363636364 898 769 898 c 0,32,33
 696 898 696 898 599 809 c 128,-1,34
 502 720 502 720 445 593 c 0,35,36
 413 523 413 523 404 475 c 1,37,-1
 343 89 l 1,38,-1
 332 10 l 1,39,-1
 331 0 l 1,40,-1
 77 0 l 1,0,-1
EndSplineSet
EndChar

StartChar: s
Encoding: 115 115 86
Width: 1120
Flags: W
HStem: -27 223<391.022 682.264> 898 223<525.55 796.28>
VStem: 245 237<707.089 855.073> 723 236<238.874 413.379>
DStem2: 604 667 494 496 0.936329 -0.351123<-142.405 210.44>
LayerCount: 2
Fore
SplineSet
55 201 m 1,0,-1
 221 392 l 1,1,-1
 251 356 l 1,2,3
 390 196 390 196 554 196 c 0,4,5
 620 196 620 196 666 227.5 c 128,-1,6
 712 259 712 259 722 314 c 0,7,8
 724 324 724 324 723 333 c 0,9,10
 723 409 723 409 598 457 c 1,11,-1
 494 496 l 1,12,13
 245 588 245 588 245 765 c 0,14,15
 245 905.627118644 245 905.627118644 389 1024 c 0,16,17
 507 1121 507 1121 682 1121 c 128,-1,18
 857 1121 857 1121 987 1024 c 0,19,20
 1026 994 1026 994 1038 984 c 2,21,-1
 1057 969 l 1,22,-1
 1065 962 l 1,23,-1
 932 775 l 1,24,-1
 926 765 l 1,25,-1
 892 791 l 2,26,27
 751 898 751 898 648 898 c 0,28,29
 587 898 587 898 538.5 864 c 0,30,31
 482 824.391752577 482 824.391752577 482 778 c 0,32,33
 482 713 482 713 604 667 c 1,34,-1
 689 636 l 2,35,36
 769 606 769 606 834.5 566.5 c 128,-1,37
 900 527 900 527 929.5 465.5 c 128,-1,38
 959 404 959 404 959 363 c 0,39,40
 959 186.398373984 959 186.398373984 807 69 c 0,41,42
 682.404255319 -27 682.404255319 -27 523 -27 c 0,43,44
 282 -27 282 -27 80 174 c 2,45,-1
 61 193 l 1,46,-1
 55 201 l 1,0,-1
EndSplineSet
EndChar

StartChar: t
Encoding: 116 116 87
Width: 1120
Flags: W
HStem: -27 223<479.254 670.861> 879 215<141 345 615 966>
DStem2: 254 373 485 382 0.180104 0.983647<-98.9246 514.115> 432 1425 677 1389 0.196116 0.980581<-970.517 -552.459 -288.683 9.02134>
LayerCount: 2
Fore
SplineSet
103 879 m 1,0,-1
 140 1085 l 1,1,-1
 141 1094 l 1,2,-1
 383 1094 l 1,3,-1
 426 1394 l 1,4,-1
 432 1425 l 1,5,-1
 433 1434 l 1,6,-1
 687 1434 l 1,7,-1
 677 1389 l 1,8,9
 652 1269 652 1269 615 1094 c 1,10,-1
 1004 1094 l 1,11,-1
 967 888 l 1,12,-1
 966 879 l 1,13,-1
 576 879 l 1,14,-1
 485 382 l 2,15,16
 465.194174757 271.417475728 465.194174757 271.417475728 479 230 c 0,17,18
 492 196 492 196 545.5 196 c 0,19,20
 671.792079208 196 671.792079208 196 777 357 c 1,21,-1
 795 387 l 1,22,-1
 1017 329 l 1,23,-1
 982 281 l 2,24,25
 966 259 966 259 941 225 c 0,26,27
 761 -27 761 -27 504 -27 c 0,28,29
 341 -27 341 -27 270 83 c 0,30,31
 237 137 237 137 237 208 c 0,32,33
 237 283.75 237 283.75 254 373 c 2,34,-1
 345 879 l 1,35,-1
 103 879 l 1,0,-1
EndSplineSet
EndChar

StartChar: u
Encoding: 117 117 88
Width: 1120
Flags: W
HStem: -27 223<310.091 503.805> 0 21G<681 906> 1074 20G<191 445 804 1057>
VStem: 63 237<203.261 566.828> 677 226<0 118.228>
DStem2: 79 408 318 460 0.163933 0.986472<-65.5215 695.408>
LayerCount: 2
Fore
SplineSet
300 303 m 0,0,1
 300 196 300 196 378 196 c 0,2,3
 433 196 433 196 506.5 241.5 c 128,-1,4
 580 287 580 287 640 367.5 c 128,-1,5
 700 448 700 448 722 564 c 1,6,-1
 740 664 l 1,7,-1
 800 1055 l 1,8,-1
 804 1084 l 1,9,-1
 806 1094 l 1,10,-1
 1057 1094 l 1,11,-1
 1045 1025 l 1,12,-1
 1045 1024 l 1,13,-1
 1039 998 l 1,14,15
 973 684 973 684 968 654 c 2,16,-1
 954 576 l 2,17,18
 915 354 915 354 908.5 281 c 0,19,20
 897.787037037 160.685185185 897.787037037 160.685185185 903 46 c 1,21,-1
 905 11 l 1,22,-1
 906 0 l 1,23,-1
 682 0 l 1,24,-1
 681 10 l 1,25,-1
 679 34 l 2,26,27
 677 64 677 64 677 86.5 c 128,-1,28
 677 109 677 109 678 121 c 1,29,30
 615 64 615 64 521 18.5 c 128,-1,31
 427 -27 427 -27 336 -27 c 0,32,33
 195 -27 195 -27 116 74 c 0,34,35
 63 141.454545455 63 141.454545455 63 227.727272727 c 128,-1,36
 63 314 63 314 79 408 c 1,37,-1
 124 656 l 1,38,-1
 177 1001 l 1,39,40
 181 1034 181 1034 185 1055 c 2,41,-1
 191 1085 l 1,42,-1
 193 1094 l 1,43,-1
 445 1094 l 1,44,-1
 354 661 l 1,45,-1
 318 460 l 2,46,47
 300 362 300 362 300 303 c 0,0,1
EndSplineSet
EndChar

StartChar: v
Encoding: 118 118 89
Width: 1120
Flags: W
HStem: -27 21G<235 475> 1100 20G<76 329.471 787 1044>
DStem2: 327 1120 77 1108 0.12262 -0.992454<0 782.908> 423 343 743 537 0.449134 0.893464<0 859.054>
LayerCount: 2
Fore
SplineSet
76 1120 m 1,0,-1
 327 1120 l 1,1,-1
 423 343 l 1,2,-1
 787 1114 l 1,3,-1
 790 1120 l 1,4,-1
 1044 1120 l 1,5,-1
 743 537 l 1,6,7
 571.612430168 208.014664804 571.612430168 208.014664804 483 4 c 1,8,-1
 475 -20 l 1,9,-1
 472 -27 l 1,10,-1
 236 -27 l 1,11,-1
 235 -16 l 1,12,-1
 234 7 l 1,13,14
 222 202 222 202 168 541 c 1,15,-1
 82 1068 l 1,16,-1
 77 1108 l 1,17,-1
 76 1120 l 1,0,-1
EndSplineSet
EndChar

StartChar: w
Encoding: 119 119 90
Width: 1120
Flags: W
HStem: -27 21G<-4 228 490.247 722> 1100 20G<4 272 849.556 1124>
VStem: -4 231
LayerCount: 2
Fore
SplineSet
-4 11 m 1,0,1
 12 547 12 547 12 769 c 128,-1,2
 12 991 12 991 8 1071 c 1,3,-1
 4 1108 l 1,4,-1
 4 1120 l 1,5,-1
 272 1120 l 1,6,-1
 270 1108 l 1,7,-1
 268 1080 l 1,8,-1
 266 1056 l 1,9,10
 234 723 234 723 228 415 c 1,11,12
 328 640 328 640 398 811 c 1,13,-1
 406 835 l 1,14,-1
 408 842 l 1,15,-1
 624 842 l 1,16,-1
 624 831 l 1,17,-1
 626 788 l 1,18,19
 636 604 636 604 652 419 c 1,20,21
 758 736 758 736 840 1060 c 2,22,-1
 846 1084 l 1,23,-1
 854 1120 l 1,24,-1
 1124 1120 l 1,25,-1
 1102 1066 l 1,26,27
 1066 987 1066 987 935 612 c 128,-1,28
 804 237 804 237 732 8 c 1,29,-1
 722 -19 l 1,30,-1
 720 -27 l 1,31,-1
 492 -27 l 1,32,-1
 448 475 l 1,33,34
 320 193 320 193 293 130 c 128,-1,35
 266 67 266 67 254 40.5 c 128,-1,36
 242 14 242 14 238 4 c 2,37,-1
 228 -20 l 1,38,-1
 227 -27 l 1,39,-1
 -4 -27 l 1,40,-1
 -4 11 l 1,0,1
EndSplineSet
EndChar

StartChar: x
Encoding: 120 120 91
Width: 1120
Flags: W
HStem: 0 21G<-91 211 803.819 1109> 1074 20G<195 478.803 933 1211>
LayerCount: 2
Fore
SplineSet
-91 0 m 1,0,-1
 479 585 l 1,1,-1
 203 1078 l 1,2,-1
 195 1094 l 1,3,-1
 469 1094 l 1,4,-1
 643 739 l 1,5,-1
 933 1090 l 1,6,-1
 936 1094 l 1,7,-1
 1211 1094 l 1,8,-1
 750 585 l 1,9,-1
 1109 0 l 1,10,-1
 814 0 l 1,11,-1
 589 442 l 1,12,-1
 211 4 l 1,13,-1
 208 0 l 1,14,-1
 -91 0 l 1,0,-1
EndSplineSet
EndChar

StartChar: y
Encoding: 121 121 92
Width: 1120
Flags: W
HStem: -338 223<133.56 265.615> 1074 20G<232 489.655 980 1241>
VStem: 232 254<840 1094>
DStem2: 486 1094 232 1094 0.216818 -0.976212<0 683.659> 437 171 609 49 0.517503 0.855681<-353.874 0 302.931 1205.87>
LayerCount: 2
Fore
SplineSet
-121 -35 m 1,0,-1
 93 67 l 1,1,-1
 97 54 l 1,2,-1
 105 23 l 2,3,4
 109 6 109 6 116.5 -28 c 128,-1,5
 124 -62 124 -62 144.5 -88.5 c 128,-1,6
 165 -115 165 -115 190 -115 c 128,-1,7
 215 -115 215 -115 238.5 -97.5 c 128,-1,8
 262 -80 262 -80 322.5 -2.5 c 128,-1,9
 383 75 383 75 437 171 c 1,10,-1
 232 1094 l 1,11,-1
 486 1094 l 1,12,-1
 609 421 l 1,13,-1
 980 1089 l 1,14,-1
 984 1094 l 1,15,-1
 1241 1094 l 1,16,-1
 609 49 l 1,17,18
 490 -145 490 -145 401 -225 c 0,19,20
 283 -338 283 -338 155 -338 c 0,21,22
 -10.52 -338 -10.52 -338 -83 -187 c 0,23,24
 -102 -150 -102 -150 -116 -68 c 2,25,-1
 -120 -43 l 1,26,-1
 -121 -35 l 1,0,-1
EndSplineSet
EndChar

StartChar: z
Encoding: 122 122 93
Width: 1120
Flags: W
HStem: 0 215<365 942> 879 215<291 758>
LayerCount: 2
Fore
SplineSet
6 0 m 1,0,-1
 34 155 l 1,1,-1
 35 158 l 1,2,-1
 44 168 l 1,3,4
 401 516 401 516 758 879 c 1,5,-1
 253 879 l 1,6,-1
 289 1085 l 1,7,-1
 291 1094 l 1,8,-1
 1114 1094 l 1,9,-1
 1086 939 l 1,10,-1
 1085 936 l 1,11,-1
 1083 933 l 1,12,-1
 1076 927 l 1,13,-1
 1070 920 l 1,14,15
 618 474 618 474 365 215 c 1,16,-1
 980 215 l 1,17,-1
 944 9 l 1,18,-1
 942 0 l 1,19,-1
 6 0 l 1,0,-1
EndSplineSet
EndChar

StartChar: braceleft
Encoding: 123 123 94
Width: 1120
Flags: W
HStem: -91 215<383.92 731> 1351 215<576.554 985>
VStem: 139 231<144.006 464.867>
DStem2: 149 266 383 291 0.172973 0.984927<-22.8095 322.071 621.977 1084.24>
LayerCount: 2
Fore
SplineSet
47 632 m 5,0,-1
 81 829 l 5,1,-1
 83 836 l 5,2,-1
 90 838 l 5,3,-1
 115 843 l 5,4,5
 169 855 169 855 215.5 880.5 c 128,-1,6
 262 906 262 906 274 980 c 1,7,-1
 319 1234 l 2,8,9
 350 1410 350 1410 449.5 1488 c 128,-1,10
 549 1566 549 1566 740 1566 c 2,11,-1
 1023 1566 l 1,12,-1
 987 1360 l 1,13,-1
 985 1351 l 1,14,-1
 717 1351 l 2,15,16
 679 1351 679 1351 630 1338.5 c 128,-1,17
 581 1326 581 1326 567 1294.5 c 128,-1,18
 553 1263 553 1263 541 1187 c 1,19,-1
 502 968 l 2,20,21
 483 862 483 862 425 812 c 128,-1,22
 367 762 367 762 325 730 c 5,23,24
 426 617 426 617 426 574 c 0,25,26
 426 535 426 535 418 490 c 2,27,-1
 383 291 l 2,28,29
 370 218 370 218 370 204 c 0,30,31
 370 166 370 166 383 151 c 0,32,33
 412 124 412 124 497 124 c 2,34,-1
 769 124 l 1,35,-1
 733 -82 l 1,36,-1
 731 -91 l 1,37,-1
 459 -91 l 2,38,39
 270 -91 270 -91 193 -8 c 0,40,41
 139 50 139 50 139 160 c 0,42,43
 139 209 139 209 149 266 c 2,44,-1
 188 489 l 2,45,46
 201 563 201 563 165.5 586 c 128,-1,47
 130 609 130 609 78 623 c 6,48,-1
 56 629 l 5,49,-1
 47 632 l 5,0,-1
EndSplineSet
EndChar

StartChar: bar
Encoding: 124 124 95
Width: 1120
Flags: W
VStem: 263 594
DStem2: 263 -464 482 -455 0.173944 0.984756<37.9198 2164.9>
LayerCount: 2
Fore
SplineSet
263 -464 m 1,0,-1
 638 1659 l 1,1,-1
 639 1668 l 1,2,-1
 857 1668 l 1,3,-1
 482 -455 l 1,4,-1
 481 -464 l 1,5,-1
 263 -464 l 1,0,-1
EndSplineSet
EndChar

StartChar: braceright
Encoding: 125 125 96
Width: 1120
Flags: W
HStem: -91 215<135 541.75> 1351 215<389 737.08>
VStem: 690 234<873 1036.07> 751 233<1027.59 1323.65>
DStem2: 581 295 805 262 0.172973 0.984927<-162.146 334.526 671.234 1040.36>
LayerCount: 2
Fore
SplineSet
794 732 m 5,0,1
 690 839 690 839 690 873 c 0,2,3
 690 916 690 916 700 972 c 2,4,-1
 739 1191 l 2,5,6
 751 1258 751 1258 751 1272 c 2,7,-1
 751 1292 l 1,8,9
 749 1313 749 1313 738 1324 c 0,10,11
 709 1351 709 1351 623 1351 c 2,12,-1
 351 1351 l 1,13,-1
 387 1557 l 1,14,-1
 389 1566 l 1,15,-1
 668 1566 l 2,16,17
 768 1566 768 1566 828.5 1550.5 c 128,-1,18
 889 1535 889 1535 929 1490 c 0,19,20
 984 1428 984 1428 984 1324 c 0,21,22
 984 1281 984 1281 975 1230 c 2,23,-1
 930 976 l 2,24,25
 924 942 924 942 924 916.5 c 128,-1,26
 924 891 924 891 957.5 872.5 c 128,-1,27
 991 854 991 854 1040 843 c 6,28,-1
 1063 838 l 5,29,-1
 1073 836 l 5,30,-1
 1038 638 l 5,31,-1
 1037 631 l 5,32,-1
 1006 623 l 6,33,34
 947 608 947 608 902 583 c 128,-1,35
 857 558 857 558 844 485 c 2,36,-1
 805 262 l 2,37,38
 772 74 772 74 667.5 -8.5 c 128,-1,39
 563 -91 563 -91 374 -91 c 2,40,-1
 97 -91 l 1,41,-1
 133 115 l 1,42,-1
 135 124 l 1,43,44
 274 124 274 124 401 124 c 128,-1,45
 528 124 528 124 555 187 c 0,46,47
 566 212 566 212 581 295 c 2,48,-1
 616 494 l 2,49,50
 636 607 636 607 794 732 c 5,0,1
EndSplineSet
EndChar

StartChar: asciitilde
Encoding: 126 126 97
Width: 1120
Flags: W
HStem: 436 264<669 818> 661 254<283 420>
LayerCount: 2
Fore
SplineSet
26.2099609375 478 m 1,0,-1
 35.1201171875 517 l 2,1,2
 45.650390625 561 45.650390625 561 47.26953125 570 c 1,3,-1
 47.26953125 571 l 1,4,5
 82.91015625 714 82.91015625 714 172.8203125 814.5 c 128,-1,6
 262.73046875 915 262.73046875 915 370.0546875 915 c 128,-1,7
 477.379882812 915 477.379882812 915 623.989257812 784 c 0,8,9
 683.120117188 731 683.120117188 731 707.419921875 715.5 c 128,-1,10
 731.719726562 700 731.719726562 700 751.969726562 700 c 0,11,12
 819.200195312 700 819.200195312 700 883.189453125 870 c 2,13,-1
 892.099609375 894 l 1,14,-1
 895.33984375 902 l 1,15,-1
 1083.26074219 875 l 1,16,-1
 1093.79003906 873 l 1,17,-1
 1080.83007812 827 l 1,18,19
 1048.4296875 724 1048.4296875 724 1015.21972656 664 c 0,20,21
 955.280273438 557 955.280273438 557 874.685546875 496.5 c 128,-1,22
 794.08984375 436 794.08984375 436 730.91015625 436 c 128,-1,23
 667.73046875 436 667.73046875 436 619.129882812 461 c 128,-1,24
 570.530273438 486 570.530273438 486 493.580078125 555 c 128,-1,25
 416.629882812 624 416.629882812 624 385.849609375 642.5 c 128,-1,26
 355.0703125 661 355.0703125 661 334.8203125 661 c 0,27,28
 281.377929688 661 281.377929688 661 219.799804688 462 c 1,29,-1
 210.889648438 430 l 1,30,-1
 207.650390625 421 l 1,31,-1
 56.1796875 469 l 1,32,-1
 35.1201171875 475 l 1,33,-1
 26.2099609375 478 l 1,0,-1
EndSplineSet
EndChar

StartChar: exclamdown
Encoding: 161 161 98
Width: 1120
Flags: W
HStem: 753 372<564.083 756.807>
VStem: 471 378<841.379 1035.98>
LayerCount: 2
Fore
SplineSet
271 -442 m 1,0,-1
 496 659 l 1,1,-1
 498 668 l 1,2,-1
 714 668 l 1,3,-1
 564 -401 l 1,4,-1
 559 -433 l 1,5,-1
 558 -442 l 1,6,-1
 271 -442 l 1,0,-1
471 905 m 4,7,8
 471 1003.67716535 471 1003.67716535 543 1064.33858268 c 132,-1,9
 615 1125 615 1125 692.5 1125 c 132,-1,10
 770 1125 770 1125 809.5 1076 c 132,-1,11
 849 1027 849 1027 849 971 c 4,12,13
 849 873.480314961 849 873.480314961 777.5 813.24015748 c 132,-1,14
 706 753 706 753 628.5 753 c 132,-1,15
 551 753 551 753 511 801.5 c 132,-1,16
 471 850 471 850 471 905 c 4,7,8
EndSplineSet
EndChar

StartChar: cent
Encoding: 162 162 99
Width: 1120
Flags: W
VStem: 36 238<469.825 899.084>
DStem2: 285 -104 514 -104 0.173318 0.984866<39.6897 294.909 562.494 1270.2 1545.95 1707.85>
LayerCount: 2
Fore
SplineSet
36 616 m 0,0,1
 36 695 36 695 52 786 c 0,2,3
 119 1163 119 1163 393 1321 c 0,4,5
 471 1366 471 1366 546 1380 c 1,6,-1
 579 1569 l 1,7,-1
 581 1578 l 1,8,-1
 810 1578 l 1,9,-1
 777 1385 l 1,10,11
 821 1376 821 1376 885 1338.5 c 128,-1,12
 949 1301 949 1301 980.5 1261 c 128,-1,13
 1012 1221 1012 1221 1063 1134 c 2,14,-1
 1084 1098 l 1,15,-1
 846 959 l 1,16,-1
 833 1005 l 1,17,18
 801 1114 801 1114 735 1152 c 1,19,-1
 604 411 l 1,20,21
 688 452 688 452 784 546 c 1,22,-1
 810 572 l 1,23,-1
 819 580 l 1,24,-1
 950 419 l 1,25,-1
 956 411 l 1,26,-1
 884 350 l 2,27,28
 738 225 738 225 565 182 c 1,29,-1
 516 -95 l 1,30,-1
 514 -104 l 1,31,-1
 285 -104 l 1,32,-1
 335 182 l 1,33,34
 175 221 175 221 92 370 c 0,35,36
 36 470 36 470 36 616 c 0,0,1
274 644 m 0,37,38
 274 476 274 476 376 415 c 1,39,-1
 505 1147 l 1,40,41
 337 1059 337 1059 287 779 c 0,42,43
 274 705 274 705 274 644 c 0,37,38
EndSplineSet
EndChar

StartChar: sterling
Encoding: 163 163 100
Width: 1120
Flags: W
HStem: -69 223<570.7 786.199> 5 223<346.5 517.127> 716 215<42 229 489 850> 1321 223<558.497 827.143>
VStem: 225 238<931 1226.16> 257 236<382.46 716>
LayerCount: 2
Fore
SplineSet
-7 71 m 1,0,-1
 14 96 l 2,1,2
 37 123 37 123 102 212 c 0,3,4
 233 389 233 389 248 477 c 0,5,6
 257 526 257 526 257 587.5 c 128,-1,7
 257 649 257 649 252 716 c 1,8,-1
 4 716 l 1,9,-1
 40 922 l 1,10,-1
 42 931 l 1,11,-1
 229 931 l 1,12,13
 225 990 225 990 225 1045 c 128,-1,14
 225 1100 225 1100 235.5 1155 c 128,-1,15
 246 1210 246 1210 287 1282 c 128,-1,16
 328 1354 328 1354 386 1411 c 128,-1,17
 444 1468 444 1468 541 1506 c 128,-1,18
 638 1544 638 1544 741.5 1544 c 128,-1,19
 845 1544 845 1544 936 1494.5 c 128,-1,20
 1027 1445 1027 1445 1075 1358 c 0,21,22
 1088 1333 1088 1333 1113 1256 c 2,23,-1
 1123 1224 l 1,24,-1
 1127 1214 l 1,25,-1
 903 1144 l 1,26,-1
 892 1140 l 1,27,-1
 882 1174 l 1,28,29
 877 1187 877 1187 876 1198 c 0,30,31
 834 1321 834 1321 706 1321 c 0,32,33
 661 1321 661 1321 613 1304 c 0,34,35
 490 1259 490 1259 467 1128 c 0,36,37
 454.012987013 1050.07792208 454.012987013 1050.07792208 463 931 c 1,38,-1
 888 931 l 1,39,-1
 852 725 l 1,40,-1
 850 716 l 1,41,-1
 489 716 l 1,42,43
 493 662 493 662 493 595 c 128,-1,44
 493 528 493 528 477.5 440.5 c 128,-1,45
 462 353 462 353 376 226 c 1,46,47
 397 228 397 228 418 228 c 0,48,49
 512 228 512 228 587 191 c 128,-1,50
 662 154 662 154 684 154 c 0,51,52
 733 154 733 154 823 226 c 1,53,-1
 859 254 l 1,54,-1
 976 93 l 1,55,-1
 943 66 l 1,56,57
 889 20 889 20 857.5 -3 c 128,-1,58
 826 -26 826 -26 767.5 -47.5 c 128,-1,59
 709 -69 709 -69 644 -69 c 128,-1,60
 579 -69 579 -69 514.5 -38.5 c 128,-1,61
 450 -8 450 -8 427.5 -1.5 c 128,-1,62
 405 5 405 5 366 5 c 128,-1,63
 327 5 327 5 303.5 -1 c 128,-1,64
 280 -7 280 -7 208 -35 c 128,-1,65
 136 -63 136 -63 125 -69 c 2,66,-1
 89 -89 l 1,67,-1
 -7 71 l 1,0,-1
EndSplineSet
EndChar

StartChar: currency
Encoding: 164 164 101
Width: 1120
Flags: W
HStem: 358 209<424.326 645.699> 931 209<475.788 696.944>
VStem: 178 212<605.189 846.327> 731 211<655.017 885.112>
DStem2: -47 361 94 209 0.757061 0.653344<0 322.539 1104.39 1424.11> 276 1295 90 1136 0.626726 -0.77924<7.32819 269.625 937.519 1202.7>
LayerCount: 2
Fore
SplineSet
942 821 m 0,0,1
 942 686.910714286 942 686.910714286 863 567 c 1,2,-1
 1024 367 l 1,3,-1
 1030 358 l 1,4,-1
 851 209 l 1,5,-1
 842 201 l 1,6,-1
 682 403 l 1,7,8
 593 358 593 358 493 358 c 128,-1,9
 393 358 393 358 320 403 c 1,10,-1
 94 209 l 1,11,-1
 86 201 l 1,12,-1
 -40 353 l 1,13,-1
 -47 361 l 1,14,-1
 194 570 l 1,15,16
 178 620 178 620 178 675 c 0,17,18
 178 811.5 178 811.5 257 930 c 1,19,-1
 96 1128 l 1,20,-1
 90 1136 l 1,21,-1
 268 1287 l 1,22,-1
 276 1295 l 1,23,-1
 438 1094 l 1,24,25
 530 1140 530 1140 629 1140 c 128,-1,26
 728 1140 728 1140 802 1094 c 1,27,-1
 1026 1287 l 1,28,-1
 1034 1295 l 1,29,-1
 1160 1142 l 1,30,-1
 1167 1134 l 1,31,-1
 927 927 l 1,32,33
 943 875 943 875 942 821 c 0,0,1
655 619 m 0,34,35
 731 687.137931034 731 687.137931034 731 806.5 c 0,36,37
 731 842 731 842 698 886.5 c 128,-1,38
 665 931 665 931 594.5 931 c 128,-1,39
 524 931 524 931 457 870.931034483 c 128,-1,40
 390 810.862068966 390 810.862068966 390 689.5 c 0,41,42
 390 654 390 654 423 610.5 c 128,-1,43
 456 567 456 567 527 567 c 128,-1,44
 598 567 598 567 655 619 c 0,34,35
EndSplineSet
EndChar

StartChar: yen
Encoding: 165 165 102
Width: 1120
Flags: W
HStem: 452 215<44 291 583 806> 790 215<37 216 790 929>
VStem: 77 256<1261 1517>
DStem2: 333 1517 77 1517 0.261195 -0.965286<0 463.667> 195 -29 452 -0 0.151136 0.988513<25.2357 489.984> 486 904 790 1006 0.52982 0.84811<247.572 700.191>
LayerCount: 2
Fore
SplineSet
6 452 m 1,0,-1
 43 658 l 1,1,-1
 44 667 l 1,2,-1
 307 667 l 1,3,-1
 272 790 l 1,4,-1
 -2 790 l 1,5,-1
 36 996 l 1,6,-1
 37 1005 l 1,7,-1
 216 1005 l 1,8,-1
 77 1517 l 1,9,-1
 333 1517 l 1,10,11
 401 1209 401 1209 486 904 c 1,12,13
 647 1162 647 1162 838 1493 c 1,14,-1
 853 1517 l 1,15,-1
 1114 1517 l 1,16,-1
 1075 1456 l 1,17,18
 932 1231 932 1231 790 1006 c 1,19,-1
 968 1006 l 1,20,-1
 930 800 l 1,21,-1
 929 791 l 1,22,-1
 657 791 l 1,23,-1
 583 667 l 1,24,-1
 844 667 l 1,25,-1
 807 461 l 1,26,-1
 806 452 l 1,27,-1
 522 452 l 1,28,-1
 460 55 l 1,29,-1
 452 -0 l 1,30,-1
 448 -32 l 1,31,-1
 447 -42 l 1,32,-1
 192 -42 l 1,33,-1
 195 -29 l 1,34,-1
 201 3 l 1,35,36
 211 46 211 46 252 249 c 1,37,-1
 288 432 l 1,38,-1
 291 452 l 1,39,-1
 6 452 l 1,0,-1
EndSplineSet
EndChar

StartChar: brokenbar
Encoding: 166 166 103
Width: 1120
Flags: W
VStem: 263 594
DStem2: 263 -464 482 -455 0.173944 0.984756<37.9198 793.098 1412.85 2164.9>
LayerCount: 2
Fore
SplineSet
263 -464 m 1,0,-1
 400 308 l 1,1,-1
 401 317 l 1,2,-1
 619 317 l 1,3,-1
 482 -455 l 1,4,-1
 481 -464 l 1,5,-1
 263 -464 l 1,0,-1
502 890 m 1,6,-1
 638 1659 l 1,7,-1
 639 1668 l 1,8,-1
 857 1668 l 1,9,-1
 721 899 l 1,10,-1
 720 890 l 1,11,-1
 502 890 l 1,6,-1
EndSplineSet
EndChar

StartChar: section
Encoding: 167 167 104
Width: 1120
Flags: W
HStem: -143 223<337.903 559.137> 1099 21G<778.539 1012.4> 1321 223<556.283 781.84>
VStem: 83.5391 237<107.329 302.703> 124.539 228<747.831 905.237> 274.539 239<1122.08 1285.75> 765.539 228<497.094 654.843 1099 1122.06>
DStem2: 521.539 638 225.039 569.5 0.755445 -0.655212<-243.076 245.552> 536.539 1142 415.539 918 0.755724 -0.65489<46.3163 535.355>
LayerCount: 2
Fore
SplineSet
83.5390625 141 m 0,0,1
 82.3037109375 179.293945312 82.3037109375 179.293945312 100.5390625 265 c 1,2,-1
 110.5390625 304 l 1,3,-1
 339.5390625 304 l 1,4,-1
 324.5390625 221 l 2,5,6
 320.5390625 196 320.5390625 196 320.5390625 164.5 c 128,-1,7
 320.5390625 133 320.5390625 133 342.0390625 106.5 c 128,-1,8
 363.5390625 80 363.5390625 80 437.0390625 80 c 128,-1,9
 510.5390625 80 510.5390625 80 552.0390625 108.5 c 0,10,11
 598.484375 140.396484375 598.484375 140.396484375 604.5390625 207 c 0,12,13
 604.5390625 237 604.5390625 237 583.0390625 259 c 128,-1,14
 561.5390625 281 561.5390625 281 413.0390625 406 c 128,-1,15
 264.5390625 531 264.5390625 531 225.0390625 569.5 c 0,16,17
 124.5390625 667.456054688 124.5390625 667.456054688 124.5390625 784 c 0,18,19
 124.5390625 804 124.5390625 804 127.5390625 824 c 0,20,21
 154.5390625 975 154.5390625 975 292.5390625 1065 c 1,22,23
 274.5390625 1109 274.5390625 1109 274.5390625 1151 c 0,24,25
 274.5390625 1344.68359375 274.5390625 1344.68359375 422.5390625 1456 c 0,26,27
 538.5390625 1544 538.5390625 1544 700.5390625 1544 c 0,28,29
 907.5390625 1544 907.5390625 1544 992.5390625 1413 c 0,30,31
 1035.5390625 1345 1035.5390625 1345 1036.5390625 1261 c 0,32,33
 1036.5390625 1223.27246094 1036.5390625 1223.27246094 1016.5390625 1136 c 1,34,-1
 1007.5390625 1099 l 1,35,-1
 778.5390625 1099 l 1,36,-1
 792.5390625 1182 l 2,37,38
 804.920898438 1259.38769531 804.920898438 1259.38769531 779.23046875 1290.19335938 c 128,-1,39
 753.5390625 1321 753.5390625 1321 680.5390625 1321 c 128,-1,40
 607.5390625 1321 607.5390625 1321 565.5390625 1292.5 c 0,41,42
 513.5390625 1257.21386719 513.5390625 1257.21386719 513.5390625 1196 c 0,43,44
 513.5390625 1166 513.5390625 1166 536.5390625 1142 c 128,-1,45
 559.5390625 1118 559.5390625 1118 706.0390625 995 c 128,-1,46
 852.5390625 872 852.5390625 872 892.5390625 833.5 c 0,47,48
 993.5390625 736.287109375 993.5390625 736.287109375 993.5390625 618 c 0,49,50
 993.5390625 519.759765625 993.5390625 519.759765625 937.0390625 446.879882812 c 128,-1,51
 880.5390625 374 880.5390625 374 824.5390625 337 c 1,52,53
 854.931640625 262.70703125 854.931640625 262.70703125 836.5390625 176 c 0,54,55
 810.5390625 33 810.5390625 33 694.5390625 -55 c 128,-1,56
 578.5390625 -143 578.5390625 -143 418.5390625 -143 c 0,57,58
 209.5390625 -143 209.5390625 -143 125.5390625 -11 c 0,59,60
 83.5390625 56 83.5390625 56 83.5390625 141 c 0,0,1
415.5390625 918 m 1,61,62
 352.5390625 883.349609375 352.5390625 883.349609375 352.5390625 815.5 c 0,63,64
 352.5390625 774.09765625 352.5390625 774.09765625 521.5390625 638 c 0,65,66
 630.5390625 549 630.5390625 549 702.5390625 485 c 1,67,68
 755.034179688 513.872070312 755.034179688 513.872070312 764.5390625 569 c 0,69,70
 765.5390625 573 765.5390625 573 765.5390625 587.5 c 0,71,72
 765.5390625 626.821289062 765.5390625 626.821289062 627.5390625 740.411132812 c 128,-1,73
 489.5390625 854 489.5390625 854 415.5390625 918 c 1,61,62
EndSplineSet
EndChar

StartChar: dieresis
Encoding: 168 168 105
Width: 1120
Flags: W
HStem: 1186 345<281.716 467.304 652.828 836.304>
VStem: 200 350.5<1265.72 1452.45> 569 351<1265.6 1451.41>
LayerCount: 2
Fore
SplineSet
344 1186 m 128,-1,1
 273 1186 273 1186 236.5 1231 c 128,-1,2
 200 1276 200 1276 200 1309.5 c 0,3,4
 200 1419.5210084 200 1419.5210084 267 1475.2605042 c 128,-1,5
 334 1531 334 1531 406 1531 c 128,-1,6
 478 1531 478 1531 514 1486 c 128,-1,7
 550 1441 550 1441 550.5 1407.5 c 0,8,9
 552.114658219 1299.31789935 552.114658219 1299.31789935 483.557329109 1242.65894968 c 128,-1,0
 415 1186 415 1186 344 1186 c 128,-1,1
569 1326 m 0,10,11
 569 1417.26890756 569 1417.26890756 636 1474.13445378 c 128,-1,12
 703 1531 703 1531 775 1531 c 128,-1,13
 847 1531 847 1531 883 1486 c 128,-1,14
 919 1441 919 1441 920 1390 c 0,15,16
 920 1299.52066116 920 1299.52066116 852 1242.76033058 c 128,-1,17
 784 1186 784 1186 713 1186 c 128,-1,18
 642 1186 642 1186 605.5 1230 c 128,-1,19
 569 1274 569 1274 569 1326 c 0,10,11
EndSplineSet
EndChar

StartChar: copyright
Encoding: 169 169 106
Width: 1120
Flags: W
HStem: 500 146<363.732 648.573> 672 146<475.36 591.017> 1150 147<519.116 639.023> 1332 146<471.324 757.585>
VStem: 104.879 152<761.98 1096.61> 312.879 155<820.79 1091.26> 637.879 158<1084 1139.17>
LayerCount: 2
Fore
SplineSet
129.87890625 746 m 0,0,1
 104.87890625 817 104.87890625 817 104.87890625 878.5 c 0,2,3
 104.87890625 1132.40625 104.87890625 1132.40625 283.87890625 1314 c 0,4,5
 358.87890625 1390 358.87890625 1390 456.37890625 1434 c 128,-1,6
 553.87890625 1478 553.87890625 1478 658.37890625 1478 c 128,-1,7
 762.87890625 1478 762.87890625 1478 855.87890625 1412 c 128,-1,8
 948.87890625 1346 948.87890625 1346 989.87890625 1232 c 0,9,10
 1029.54394531 1122.15820312 1029.54394531 1122.15820312 1006.87890625 989 c 0,11,12
 973.87890625 804 973.87890625 804 835.87890625 665 c 0,13,14
 670.87890625 500 670.87890625 500 460.87890625 500 c 0,15,16
 355.87890625 500 355.87890625 500 262.87890625 567 c 128,-1,17
 169.87890625 634 169.87890625 634 129.87890625 746 c 0,0,1
256.87890625 917 m 0,18,19
 256.87890625 830 256.87890625 830 308.87890625 750 c 0,20,21
 375.87890625 646 375.87890625 646 505.87890625 646 c 0,22,23
 569.87890625 646 569.87890625 646 646.87890625 689 c 128,-1,24
 723.87890625 732 723.87890625 732 780.87890625 812.5 c 0,25,26
 860.87890625 925.482421875 860.87890625 925.482421875 860.87890625 1038.74121094 c 128,-1,27
 860.87890625 1152 860.87890625 1152 811.87890625 1228 c 0,28,29
 744.87890625 1332 744.87890625 1332 613.87890625 1332 c 0,30,31
 549.87890625 1332 549.87890625 1332 473.37890625 1289 c 128,-1,32
 396.87890625 1246 396.87890625 1246 339.37890625 1165 c 128,-1,33
 281.87890625 1084 281.87890625 1084 261.87890625 969 c 0,34,35
 256.87890625 943 256.87890625 943 256.87890625 917 c 0,18,19
499.87890625 672 m 0,36,37
 315.59375 672 315.59375 672 312.87890625 881 c 0,38,39
 312.87890625 923 312.87890625 923 321.87890625 973 c 0,40,41
 378.87890625 1297 378.87890625 1297 624.87890625 1297 c 0,42,43
 702.87890625 1297 702.87890625 1297 750.87890625 1256.5 c 128,-1,44
 798.87890625 1216 798.87890625 1216 797.87890625 1156 c 0,45,46
 797.87890625 1151 797.87890625 1151 797.87890625 1146 c 2,47,-1
 795.87890625 1084 l 1,48,-1
 637.87890625 1084 l 1,49,-1
 639.87890625 1111 l 2,50,51
 640.87890625 1129 640.87890625 1129 638.87890625 1139.5 c 128,-1,52
 636.87890625 1150 636.87890625 1150 594.87890625 1150 c 0,53,54
 504.87890625 1150 504.87890625 1150 475.87890625 984 c 0,55,56
 467.87890625 940 467.87890625 940 467.87890625 908 c 0,57,58
 467.87890625 818 467.87890625 818 527.87890625 818 c 0,59,60
 565.87890625 818 565.87890625 818 580.87890625 826.5 c 128,-1,61
 595.87890625 835 595.87890625 835 605.87890625 871 c 2,62,-1
 613.87890625 899 l 1,63,-1
 770.87890625 899 l 1,64,65
 758.87890625 863 758.87890625 863 750.87890625 837 c 0,66,67
 730.87890625 772 730.87890625 772 682.87890625 732 c 0,68,69
 611.87890625 672 611.87890625 672 499.87890625 672 c 0,36,37
EndSplineSet
EndChar

StartChar: ordfeminine
Encoding: 170 170 107
Width: 1120
Flags: W
HStem: 501 190<395.706 585.262> 882 190<480.483 636.456> 1119 191<441.537 665.06>
VStem: 255.456 199<691.25 860.955>
LayerCount: 2
Fore
SplineSet
293.456054688 581 m 0,0,1
 255.456054688 637 255.456054688 637 255.456054688 693 c 0,2,3
 255.456054688 880.909179688 255.456054688 880.909179688 371.456054688 989 c 0,4,5
 460.456054688 1072 460.456054688 1072 580.456054688 1072 c 0,6,7
 618.456054688 1072 618.456054688 1072 667.456054688 1058 c 1,8,9
 667.456054688 1060 667.456054688 1060 667.456054688 1073 c 128,-1,10
 667.456054688 1086 667.456054688 1086 659.456054688 1102.5 c 128,-1,11
 651.456054688 1119 651.456054688 1119 617.456054688 1119 c 128,-1,12
 583.456054688 1119 583.456054688 1119 555.956054688 1112 c 128,-1,13
 528.456054688 1105 528.456054688 1105 443.456054688 1075 c 2,14,-1
 409.456054688 1063 l 1,15,-1
 396.456054688 1058 l 1,16,-1
 379.456054688 1236 l 1,17,-1
 379.456054688 1244 l 1,18,-1
 415.456054688 1257 l 2,19,20
 560.456054688 1310 560.456054688 1310 663.456054688 1310 c 128,-1,21
 766.456054688 1310 766.456054688 1310 823.456054688 1228 c 0,22,23
 881.610351562 1143.67578125 881.610351562 1143.67578125 857.456054688 1016 c 1,24,-1
 815.456054688 778 l 2,25,26
 796.432617188 671.788085938 796.432617188 671.788085938 809.456054688 565 c 1,27,-1
 816.456054688 529 l 1,28,-1
 818.456054688 517 l 1,29,-1
 633.456054688 495 l 1,30,-1
 622.456054688 494 l 1,31,-1
 621.456054688 504 l 1,32,-1
 616.456054688 528 l 2,33,34
 615.456054688 534 615.456054688 534 614.456054688 537.5 c 128,-1,35
 613.456054688 541 613.456054688 541 613.456054688 544 c 1,36,37
 540.456054688 501 540.456054688 501 443.956054688 501 c 128,-1,38
 347.456054688 501 347.456054688 501 293.456054688 581 c 0,0,1
454.456054688 745 m 0,39,40
 454.456054688 691 454.456054688 691 498.456054688 691 c 0,41,42
 548.456054688 691 548.456054688 691 619.456054688 771 c 1,43,-1
 636.456054688 868 l 1,44,45
 592.456054688 882 592.456054688 882 555.956054688 882 c 0,46,47
 475.9296875 882 475.9296875 882 456.456054688 771 c 0,48,49
 453.456054688 757 453.456054688 757 454.456054688 745 c 0,39,40
EndSplineSet
EndChar

StartChar: guillemotleft
Encoding: 171 171 108
Width: 1120
Flags: W
DStem2: 262 741 -22 741 0.657858 -0.753142<0 576.659> -22 741 262 741 0.776989 0.629515<220.665 906.268> 610 741 324 741 0.657858 -0.753142<0 575.343> 324 741 610 741 0.777527 0.62885<222.373 906.422>
LayerCount: 2
Fore
SplineSet
-22 741 m 1,0,-1
 684 1313 l 1,1,-1
 796 1171 l 1,2,-1
 262 741 l 1,3,-1
 644 309 l 1,4,-1
 482 164 l 1,5,-1
 -22 741 l 1,0,-1
324 741 m 1,6,-1
 1030 1312 l 1,7,-1
 1142 1171 l 1,8,-1
 610 741 l 1,9,-1
 990 309 l 1,10,-1
 828 164 l 1,11,-1
 324 741 l 1,6,-1
EndSplineSet
EndChar

StartChar: logicalnot
Encoding: 172 172 109
Width: 1120
Flags: W
HStem: 452 180<54 879>
DStem2: 792 -42 979 -42 0.172451 0.985018<32.2484 501.602>
LayerCount: 2
Fore
SplineSet
23 452 m 1,0,-1
 52 623 l 1,1,-1
 54 632 l 1,2,-1
 1097 632 l 1,3,-1
 981 -33 l 1,4,-1
 979 -42 l 1,5,-1
 792 -42 l 1,6,-1
 879 452 l 1,7,-1
 23 452 l 1,0,-1
EndSplineSet
EndChar

StartChar: uni00AD
Encoding: 173 173 110
Width: 1120
Flags: W
HStem: 626 215<270 850>
VStem: 232 656
LayerCount: 2
Fore
SplineSet
232 626 m 1,0,-1
 269 832 l 1,1,-1
 270 841 l 1,2,-1
 888 841 l 1,3,-1
 851 635 l 1,4,-1
 850 626 l 1,5,-1
 232 626 l 1,0,-1
EndSplineSet
EndChar

StartChar: registered
Encoding: 174 174 111
Width: 1120
Flags: W
HStem: 500 146<370.399 649.254> 1157 140<549.934 638.936> 1332 146<492.562 754.173>
VStem: 105.934 154<757.144 1105.82> 649.434 155.5<1056.44 1146.17>
DStem2: 316.934 739 477.934 721 0.162686 0.986678<0 191.413 333.615 450.337>
LayerCount: 2
Fore
SplineSet
130.93359375 746 m 0,0,1
 105.93359375 817 105.93359375 817 105.93359375 878 c 0,2,3
 105.93359375 1131.40136719 105.93359375 1131.40136719 276.93359375 1304.70117188 c 128,-1,4
 447.93359375 1478 447.93359375 1478 658.93359375 1478 c 0,5,6
 762.93359375 1478 762.93359375 1478 855.93359375 1412 c 128,-1,7
 948.93359375 1346 948.93359375 1346 988.93359375 1231 c 0,8,9
 1027.45410156 1122.84667969 1027.45410156 1122.84667969 1006.93359375 988 c 0,10,11
 974.93359375 804 974.93359375 804 835.93359375 665 c 0,12,13
 672.93359375 500 672.93359375 500 460.93359375 500 c 0,14,15
 354.93359375 500 354.93359375 500 262.93359375 567 c 128,-1,16
 170.93359375 634 170.93359375 634 130.93359375 746 c 0,0,1
404.93359375 1238 m 1,17,18
 259.93359375 1105.71972656 259.93359375 1105.71972656 259.93359375 919 c 0,19,20
 259.93359375 827 259.93359375 827 305.93359375 755 c 0,21,22
 311.93359375 747 311.93359375 747 316.93359375 739 c 1,23,-1
 343.93359375 868 l 1,24,-1
 387.93359375 1116 l 1,25,-1
 404.93359375 1238 l 1,17,18
367.93359375 690 m 1,26,27
 431.93359375 646 431.93359375 646 504.43359375 646 c 128,-1,28
 576.93359375 646 576.93359375 646 651.93359375 690 c 1,29,-1
 641.93359375 690 l 1,30,-1
 528.93359375 902 l 1,31,-1
 504.93359375 902 l 1,32,-1
 477.93359375 721 l 1,33,-1
 472.93359375 690 l 1,34,-1
 367.93359375 690 l 1,26,27
804.93359375 1144 m 0,35,36
 804.93359375 1014.20019531 804.93359375 1014.20019531 687.93359375 944 c 1,37,-1
 770.93359375 796 l 1,38,39
 835.93359375 882 835.93359375 882 856.93359375 1002 c 0,40,41
 861.93359375 1032 861.93359375 1032 861.93359375 1060 c 0,42,43
 861.93359375 1146 861.93359375 1146 822.43359375 1210 c 128,-1,44
 782.93359375 1274 782.93359375 1274 730.43359375 1303 c 128,-1,45
 677.93359375 1332 677.93359375 1332 616.93359375 1332 c 128,-1,46
 555.93359375 1332 555.93359375 1332 488.93359375 1297 c 1,47,-1
 609.93359375 1297 l 2,48,49
 752.93359375 1297 752.93359375 1297 792.93359375 1206 c 0,50,51
 804.93359375 1178 804.93359375 1178 804.93359375 1144 c 0,35,36
529.93359375 1042 m 1,52,-1
 555.93359375 1042 l 2,53,54
 602.93359375 1042 602.93359375 1042 623.43359375 1056 c 128,-1,55
 643.93359375 1070 643.93359375 1070 649.43359375 1103 c 128,-1,56
 654.93359375 1136 654.93359375 1136 639.43359375 1146.5 c 128,-1,57
 623.93359375 1157 623.93359375 1157 554.93359375 1157 c 2,58,-1
 549.93359375 1157 l 1,59,-1
 529.93359375 1042 l 1,52,-1
EndSplineSet
EndChar

StartChar: macron
Encoding: 175 175 112
Width: 1120
Flags: W
HStem: 1691 227<11 1109>
LayerCount: 2
Fore
SplineSet
-29 1691 m 1,0,-1
 9 1909 l 1,1,-1
 11 1918 l 1,2,-1
 1149 1918 l 1,3,-1
 1111 1700 l 1,4,-1
 1109 1691 l 1,5,-1
 -29 1691 l 1,0,-1
EndSplineSet
EndChar

StartChar: degree
Encoding: 176 176 113
Width: 1120
Flags: W
HStem: 813 223<431.009 651.342> 1327 223<469.574 691.573>
VStem: 163 239.5<1063.31 1261.27> 717.5 239.5<1099.35 1300.69>
LayerCount: 2
Fore
SplineSet
163 1118 m 0,0,1
 163 1314.14179104 163 1314.14179104 330 1445 c 0,2,3
 463 1550 463 1550 624 1550 c 128,-1,4
 785 1550 785 1550 881 1443 c 0,5,6
 957 1359 957 1359 957 1246 c 0,7,8
 957 1053.54887218 957 1053.54887218 791 920 c 0,9,10
 658 813 658 813 496 813 c 128,-1,11
 334 813 334 813 238 921 c 0,12,13
 163 1005 163 1005 163 1118 c 0,0,1
402.5 1139 m 0,14,15
 402 1111 402 1111 435 1073.5 c 128,-1,16
 468 1036 468 1036 533.5 1036 c 128,-1,17
 599 1036 599 1036 657.426980839 1084.41092698 c 128,-1,18
 715.853961678 1132.82185396 715.853961678 1132.82185396 717.5 1225 c 0,19,20
 718 1253 718 1253 685 1290 c 128,-1,21
 652 1327 652 1327 587.5 1327 c 128,-1,22
 523 1327 523 1327 463.565622354 1278.67485182 c 128,-1,23
 404.131244708 1230.34970364 404.131244708 1230.34970364 402.5 1139 c 0,14,15
EndSplineSet
EndChar

StartChar: plusminus
Encoding: 177 177 114
Width: 1120
Flags: W
HStem: -42 227<-21 408 635 1024> 622 227<96 485 752 1141>
DStem2: 408 185 635 185 0.173688 0.984801<39.4271 443.732 713.656 1168.76>
LayerCount: 2
Fore
SplineSet
-61 -42 m 1,0,-1
 -23 176 l 1,1,-1
 -21 185 l 1,2,-1
 408 185 l 1,3,-1
 485 622 l 1,4,-1
 56 622 l 1,5,-1
 94 840 l 1,6,-1
 96 849 l 1,7,-1
 525 849 l 1,8,-1
 609 1327 l 1,9,-1
 611 1336 l 1,10,-1
 838 1336 l 1,11,-1
 752 849 l 1,12,-1
 1181 849 l 1,13,-1
 1143 631 l 1,14,-1
 1141 622 l 1,15,-1
 712 622 l 1,16,-1
 635 185 l 1,17,-1
 1064 185 l 1,18,-1
 1026 -33 l 1,19,-1
 1024 -42 l 1,20,-1
 -61 -42 l 1,0,-1
EndSplineSet
EndChar

StartChar: uni00B2
Encoding: 178 178 115
Width: 1120
Flags: W
HStem: 670 201<503 783> 1328 202<585.166 677.522>
VStem: 226 668
DStem2: 524 1144 745 1071 0.786973 0.616987<-179.985 227.588>
LayerCount: 2
Fore
SplineSet
226 670 m 1,0,-1
 228 683 l 1,1,-1
 234 714 l 1,2,3
 254 825 254 825 273 876 c 0,4,5
 319 1002 319 1002 524 1144 c 0,6,7
 614 1207 614 1207 644.5 1238 c 128,-1,8
 675 1269 675 1269 679 1292.5 c 128,-1,9
 683 1316 683 1316 678 1322 c 128,-1,10
 673 1328 673 1328 641.5 1328 c 128,-1,11
 610 1328 610 1328 591.5 1308.5 c 128,-1,12
 573 1289 573 1289 556 1220 c 2,13,-1
 547 1183 l 1,14,-1
 322 1183 l 1,15,-1
 338 1232 l 2,16,17
 342 1245 342 1245 346 1264 c 0,18,19
 375 1366 375 1366 433 1427 c 0,20,21
 529 1530 529 1530 661 1530 c 128,-1,22
 793 1530 793 1530 850 1462 c 0,23,24
 894 1411 894 1411 894 1335 c 0,25,26
 894 1187.816 894 1187.816 745 1071 c 0,27,28
 691 1029 691 1029 612.5 971 c 128,-1,29
 534 913 534 913 503 871 c 1,30,-1
 819 871 l 1,31,-1
 785 679 l 1,32,-1
 783 670 l 1,33,-1
 226 670 l 1,0,-1
EndSplineSet
EndChar

StartChar: uni00B3
Encoding: 179 179 116
Width: 1120
Flags: W
HStem: 658 202<474.816 639.616> 1016 203<501 651.261> 1328 202<546.636 673.091>
VStem: 652 216<875.726 1006.81> 679 215<1230.73 1314.08>
LayerCount: 2
Fore
SplineSet
498 1215 m 1,0,-1
 488 1201 l 1,1,-1
 313 1308 l 1,2,-1
 341 1346 l 1,3,4
 479 1530 479 1530 662 1530 c 0,5,6
 785 1530 785 1530 839.5 1460 c 128,-1,7
 894 1390 894 1390 894 1318 c 0,8,9
 894 1236.86956522 894 1236.86956522 857 1187 c 0,10,11
 839 1161 839 1161 812 1134 c 1,12,13
 869 1077 869 1077 868 994 c 0,14,15
 868 844.208333333 868 844.208333333 746 740 c 0,16,17
 650 658 650 658 512 658 c 0,18,19
 420 658 420 658 361 696 c 0,20,21
 303 734 303 734 257 823 c 1,22,-1
 226 888 l 1,23,-1
 432 992 l 1,24,-1
 443 998 l 1,25,-1
 471 911 l 1,26,27
 491 860 491 860 548 860 c 0,28,29
 637 860 637 860 650 935 c 0,30,31
 652 947 652 947 652 965 c 0,32,33
 652 1014.45588235 652 1014.45588235 547 1016 c 1,34,-1
 463 1016 l 1,35,-1
 497 1210 l 1,36,-1
 498 1215 l 1,0,-1
501 1219 m 1,37,-1
 539 1219 l 2,38,39
 576 1219 576 1219 601 1220 c 128,-1,40
 626 1221 626 1221 650.5 1240.5 c 128,-1,41
 675 1260 675 1260 679 1280.5 c 128,-1,42
 683 1301 683 1301 669.5 1314.5 c 128,-1,43
 656 1328 656 1328 630 1328 c 0,44,45
 578 1328 578 1328 532 1265 c 0,46,47
 520 1248 520 1248 516 1240 c 1,48,-1
 501 1219 l 1,37,-1
EndSplineSet
EndChar

StartChar: acute
Encoding: 180 180 117
Width: 1120
Flags: W
HStem: 1147 473
VStem: 265 590
LayerCount: 2
Fore
SplineSet
265 1294 m 1,0,-1
 731 1620 l 1,1,-1
 855 1445 l 1,2,-1
 352 1147 l 1,3,-1
 265 1294 l 1,0,-1
EndSplineSet
EndChar

StartChar: mu
Encoding: 181 181 118
Width: 1120
Flags: W
HStem: -69 223<439.001 636.575>
DStem2: -10 -438 235 -482 0.173501 0.984834<-0.825064 486.53 719.924 1598.36> 696 2 1041 663 0.183583 0.983004<-2.68031 0 251.139 1149.06>
LayerCount: 2
Fore
SplineSet
-17 -482 m 1,0,-1
 -10 -438 l 2,1,2
 -6 -416 -6 -416 2 -380 c 2,3,-1
 76 -8 l 1,4,-1
 195 667 l 1,5,-1
 252 1039 l 2,6,7
 257 1072 257 1072 261 1096 c 2,8,-1
 266 1127 l 1,9,-1
 268 1136 l 1,10,-1
 520 1136 l 1,11,-1
 424 663 l 1,12,-1
 394 494 l 2,13,14
 367.882636656 348.292604502 367.882636656 348.292604502 381.941318328 277.146302251 c 128,-1,15
 396 206 396 206 455 171 c 0,16,17
 487 154 487 154 519 154 c 0,18,19
 592 154 592 154 664 220 c 0,20,21
 708 259 708 259 735 321.5 c 128,-1,22
 762 384 762 384 782 498 c 2,23,-1
 812 667 l 2,24,25
 833 786 833 786 877 1094 c 1,26,-1
 881 1126 l 1,27,-1
 883 1136 l 1,28,-1
 1137 1136 l 1,29,-1
 1041 663 l 1,30,-1
 919 -33 l 1,31,-1
 917 -42 l 1,32,-1
 688 -42 l 1,33,-1
 690 -29 l 1,34,-1
 696 2 l 1,35,36
 596 -69 596 -69 491 -69 c 128,-1,37
 386 -69 386 -69 308 -0 c 1,38,-1
 249 -384 l 1,39,-1
 241 -441 l 1,40,-1
 236 -473 l 1,41,-1
 235 -482 l 1,42,-1
 -17 -482 l 1,0,-1
EndSplineSet
EndChar

StartChar: paragraph
Encoding: 182 182 119
Width: 1120
Flags: W
HStem: 1316 201<678 785 1002 1086>
DStem2: 182 -265 399 -265 0.173785 0.984784<37.7114 892.561> 506 -265 723 -265 0.173785 0.984784<37.7114 1605.43>
LayerCount: 2
Fore
SplineSet
35 803 m 0,0,1
 -2 880 -2 880 -2 948.5 c 0,2,3
 -2 1175.75 -2 1175.75 128 1322 c 0,4,5
 223 1429 223 1429 330 1473 c 128,-1,6
 437 1517 437 1517 574 1517 c 2,7,-1
 1122 1517 l 1,8,-1
 1088 1325 l 1,9,-1
 1086 1316 l 1,10,-1
 1002 1316 l 1,11,-1
 725 -256 l 1,12,-1
 723 -265 l 1,13,-1
 506 -265 l 1,14,-1
 785 1316 l 1,15,-1
 678 1316 l 1,16,-1
 401 -256 l 1,17,-1
 399 -265 l 1,18,-1
 182 -265 l 1,19,-1
 337 614 l 1,20,21
 118 629 118 629 35 803 c 0,0,1
EndSplineSet
EndChar

StartChar: periodcentered
Encoding: 183 183 120
Width: 1120
Flags: W
HStem: 373 361<463.953 656.047>
VStem: 377 366<457.11 649.931>
LayerCount: 2
Fore
SplineSet
377 523 m 0,0,1
 377 616.471544715 377 616.471544715 446.5 675.235772358 c 128,-1,2
 516 734 516 734 590.5 734 c 128,-1,3
 665 734 665 734 704 686.5 c 128,-1,4
 743 639 743 639 743 585 c 0,5,6
 743 490.528455285 743 490.528455285 673.5 431.764227642 c 128,-1,7
 604 373 604 373 529.5 373 c 128,-1,8
 455 373 455 373 416 421 c 128,-1,9
 377 469 377 469 377 523 c 0,0,1
EndSplineSet
EndChar

StartChar: cedilla
Encoding: 184 184 121
Width: 1120
Flags: W
HStem: -439 145<416.083 623.268>
VStem: 319.5 481
LayerCount: 2
Fore
SplineSet
319.5 -373 m 1,0,-1
 390.5 -251 l 1,1,-1
 396.5 -240 l 1,2,3
 505.5 -294 505.5 -294 540.5 -294 c 128,-1,4
 575.5 -294 575.5 -294 598.5 -279.5 c 128,-1,5
 621.5 -265 621.5 -265 624.5 -250 c 128,-1,6
 627.5 -235 627.5 -235 610.5 -222.5 c 128,-1,7
 593.5 -210 593.5 -210 556.5 -210 c 128,-1,8
 519.5 -210 519.5 -210 441.5 -233 c 1,9,-1
 419.5 -239 l 1,10,-1
 571.5 43 l 1,11,-1
 574.5 50 l 1,12,-1
 725.5 50 l 1,13,-1
 652.5 -89 l 1,14,15
 726.5 -96 726.5 -96 763.5 -135 c 128,-1,16
 800.5 -174 800.5 -174 800.5 -223 c 0,17,18
 800.5 -311.96484375 800.5 -311.96484375 726 -375.482421875 c 128,-1,19
 651.5 -439 651.5 -439 556.5 -439 c 128,-1,20
 461.5 -439 461.5 -439 329.5 -377 c 1,21,-1
 319.5 -373 l 1,0,-1
EndSplineSet
EndChar

StartChar: uni00B9
Encoding: 185 185 122
Width: 1120
Flags: W
HStem: 670 201<333 472 688 787>
VStem: 297 526
DStem2: 472 871 688 871 0.173945 0.984755<37.5722 431.393>
LayerCount: 2
Fore
SplineSet
297 670 m 1,0,-1
 331 862 l 1,1,-1
 333 871 l 1,2,-1
 472 871 l 1,3,-1
 546 1296 l 1,4,-1
 450 1268 l 1,5,-1
 408 1257 l 1,6,-1
 391 1253 l 1,7,-1
 427 1458 l 1,8,-1
 428 1465 l 1,9,-1
 795 1569 l 1,10,-1
 812 1573 l 1,11,-1
 688 871 l 1,12,-1
 823 871 l 1,13,-1
 789 679 l 1,14,-1
 787 670 l 1,15,-1
 297 670 l 1,0,-1
EndSplineSet
EndChar

StartChar: ordmasculine
Encoding: 186 186 123
Width: 1120
Flags: W
HStem: 501 190<429.547 629.905> 1120 190<494.094 687.831>
VStem: 214 199<707.562 1024.67> 706 200<784.677 1102.94>
LayerCount: 2
Fore
SplineSet
214 797 m 0,0,1
 214 846 214 846 224 901 c 0,2,3
 255 1079 255 1079 347 1180 c 0,4,5
 463 1310 463 1310 633 1310 c 0,6,7
 709 1310 709 1310 772 1276 c 0,8,9
 906 1203 906 1203 906 1017 c 0,10,11
 906 965 906 965 895 904 c 0,12,13
 847 628 847 628 644 535 c 0,14,15
 569 501 569 501 490 501 c 0,16,17
 333 501 333 501 262 613 c 0,18,19
 214 689 214 689 214 797 c 0,0,1
706 992 m 0,20,21
 706 1120 706 1120 602 1120 c 0,22,23
 532 1120 532 1120 488 1070 c 128,-1,24
 444 1020 444 1020 429 935.5 c 128,-1,25
 414 851 414 851 413 811 c 0,26,27
 413 691 413 691 520 691 c 0,28,29
 591 691 591 691 634 740 c 128,-1,30
 677 789 677 789 697 907 c 0,31,32
 705 955 705 955 706 992 c 0,20,21
EndSplineSet
EndChar

StartChar: guillemotright
Encoding: 187 187 124
Width: 1120
Flags: W
DStem2: -24 309 88 164 0.775175 0.631746<0.054744 686.858> 290 1312 128 1171 0.663224 -0.748421<0 573.258> 324 309 436 164 0.775175 0.631746<0 688.408> 640 1313 476 1171 0.661101 -0.750297<0 574.612>
LayerCount: 2
Fore
SplineSet
-24 309 m 1,0,-1
 510 741 l 1,1,-1
 128 1171 l 1,2,-1
 290 1312 l 1,3,-1
 796 741 l 1,4,-1
 88 164 l 1,5,-1
 -6 287 l 1,6,-1
 -24 309 l 1,0,-1
324 309 m 1,7,-1
 860 741 l 1,8,-1
 476 1171 l 1,9,-1
 640 1313 l 1,10,-1
 1144 741 l 1,11,-1
 436 164 l 1,12,-1
 324 309 l 1,7,-1
EndSplineSet
EndChar

StartChar: onequarter
Encoding: 188 188 125
Width: 1120
Flags: W
HStem: -9 21G<771 989.516> 713 201<-18 121 337 436>
DStem2: 31 -95 227 -95 0.494789 0.869013<96.9787 1915.97> 121 914 337 914 0.173945 0.984755<37.5722 431.393>
LayerCount: 2
Fore
SplineSet
-54 713 m 1,0,-1
 -18 914 l 1,1,-1
 121 914 l 1,2,-1
 195 1339 l 1,3,-1
 99 1311 l 1,4,-1
 40 1296 l 1,5,-1
 78 1508 l 1,6,-1
 461 1616 l 1,7,-1
 337 914 l 1,8,-1
 472 914 l 1,9,-1
 436 713 l 1,10,-1
 -54 713 l 1,0,-1
31 -95 m 5,11,-1
 979 1570 l 5,12,-1
 1174 1570 l 5,13,-1
 227 -95 l 5,14,-1
 31 -95 l 5,11,-1
506 173 m 1,15,-1
 531 310 l 1,16,-1
 929 851 l 1,17,-1
 1138 851 l 1,18,-1
 1054 374 l 1,19,-1
 1159 374 l 1,20,-1
 1123 173 l 1,21,-1
 1018 173 l 1,22,-1
 986 -9 l 1,23,-1
 771 -9 l 1,24,-1
 803 173 l 1,25,-1
 506 173 l 1,15,-1
821 374 m 1,26,-1
 839 374 l 1,27,-1
 845 407 l 1,28,-1
 821 374 l 1,26,-1
EndSplineSet
EndChar

StartChar: onehalf
Encoding: 189 189 126
Width: 1120
Flags: W
HStem: -9 201<809.99 1089.99> 649 201.5<899.072 984.828> 713 201<-44.0098 94.9902 310.99 409.99>
DStem2: -2.00977 -95 193.99 -95 0.494789 0.869013<96.9787 1915.97> 94.9902 914 310.99 914 0.173945 0.984755<37.5722 431.393>
LayerCount: 2
Fore
SplineSet
-80.009765625 713 m 1,0,-1
 -44.009765625 914 l 1,1,-1
 94.990234375 914 l 1,2,-1
 168.990234375 1339 l 1,3,-1
 72.990234375 1311 l 1,4,-1
 13.990234375 1296 l 1,5,-1
 51.990234375 1508 l 1,6,-1
 434.990234375 1616 l 1,7,-1
 310.990234375 914 l 1,8,-1
 445.990234375 914 l 1,9,-1
 409.990234375 713 l 1,10,-1
 -80.009765625 713 l 1,0,-1
-2.009765625 -95 m 1,11,-1
 945.990234375 1570 l 1,12,-1
 1140.99023438 1570 l 1,13,-1
 193.990234375 -95 l 1,14,-1
 -2.009765625 -95 l 1,11,-1
532.990234375 -9 m 1,15,-1
 540.990234375 35 l 1,16,17
 563.990234375 152 563.990234375 152 579.990234375 197 c 0,18,19
 624.990234375 320 624.990234375 320 830.990234375 465 c 0,20,21
 920.990234375 528 920.990234375 528 951.490234375 558.5 c 128,-1,22
 981.990234375 589 981.990234375 589 985.990234375 613 c 128,-1,23
 989.990234375 637 989.990234375 637 984.990234375 643 c 128,-1,24
 979.990234375 649 979.990234375 649 948.490234375 649 c 128,-1,25
 916.990234375 649 916.990234375 649 898.490234375 630 c 128,-1,26
 879.990234375 611 879.990234375 611 862.990234375 541 c 2,27,-1
 853.990234375 504 l 1,28,-1
 628.990234375 504 l 1,29,-1
 644.990234375 553 l 2,30,31
 648.990234375 567 648.990234375 567 653.990234375 585 c 0,32,33
 680.990234375 684 680.990234375 684 739.990234375 747 c 0,34,35
 835.990234375 851 835.990234375 851 967.490234375 850.5 c 128,-1,36
 1098.99023438 850 1098.99023438 850 1149.99023438 791 c 128,-1,37
 1200.99023438 732 1200.99023438 732 1199.99023438 652 c 0,38,39
 1199.99023438 508.032226562 1199.99023438 508.032226562 1051.99023438 392 c 0,40,41
 997.990234375 350 997.990234375 350 919.490234375 292 c 128,-1,42
 840.990234375 234 840.990234375 234 809.990234375 192 c 1,43,-1
 1125.99023438 192 l 1,44,-1
 1089.99023438 -9 l 1,45,-1
 532.990234375 -9 l 1,15,-1
EndSplineSet
EndChar

StartChar: threequarters
Encoding: 190 190 127
Width: 1120
Flags: W
HStem: -9 21G<757 975.516> 732 202<187.335 353.49> 1090 203<215 346.395> 1402 202<260.636 386.864>
VStem: 366 215<947.431 1077.83>
DStem2: 37 -95 233 -95 0.494789 0.869013<96.9787 1915.97>
LayerCount: 2
Fore
SplineSet
-60 962 m 1,0,-1
 158 1072 l 1,1,-1
 185 985 l 1,2,3
 202 934 202 934 262 934 c 0,4,5
 363 934 363 934 366 1031 c 0,6,7
 366 1057 366 1057 347 1073.5 c 128,-1,8
 328 1090 328 1090 261 1090 c 2,9,-1
 177 1090 l 1,10,-1
 212 1289 l 1,11,-1
 202 1275 l 1,12,-1
 27 1382 l 1,13,-1
 55 1420 l 1,14,15
 193 1604 193 1604 376 1604 c 0,16,17
 499 1604 499 1604 561 1525 c 0,18,19
 608 1465 608 1465 608.5 1390 c 128,-1,20
 609 1315 609 1315 581 1275 c 128,-1,21
 553 1235 553 1235 526 1208 c 1,22,23
 581 1152 581 1152 581 1067 c 0,24,25
 581 916.223632812 581 916.223632812 460 813.5 c 0,26,27
 364 732 364 732 226 732 c 0,28,29
 134 732 134 732 76 770 c 128,-1,30
 18 808 18 808 -29 897 c 1,31,-1
 -60 962 l 1,0,-1
37 -95 m 1,32,-1
 985 1570 l 1,33,-1
 1180 1570 l 1,34,-1
 233 -95 l 1,35,-1
 37 -95 l 1,32,-1
215 1293 m 1,36,-1
 253 1293 l 2,37,38
 290 1293 290 1293 315 1294.5 c 128,-1,39
 340 1296 340 1296 364.5 1315 c 128,-1,40
 389 1334 389 1334 392.5 1354 c 128,-1,41
 396 1374 396 1374 383 1388 c 128,-1,42
 370 1402 370 1402 344 1402 c 0,43,44
 292 1402 292 1402 246 1339 c 1,45,-1
 215 1293 l 1,36,-1
492 173 m 1,46,-1
 517 310 l 1,47,-1
 915 851 l 1,48,-1
 1124 851 l 1,49,-1
 1040 374 l 1,50,-1
 1145 374 l 1,51,-1
 1109 173 l 1,52,-1
 1004 173 l 1,53,-1
 972 -9 l 1,54,-1
 757 -9 l 1,55,-1
 789 173 l 1,56,-1
 492 173 l 1,46,-1
807 374 m 1,57,-1
 825 374 l 1,58,-1
 831 407 l 1,59,-1
 807 374 l 1,57,-1
EndSplineSet
EndChar

StartChar: questiondown
Encoding: 191 191 128
Width: 1120
Flags: W
HStem: -469 223<415.393 650.952> -46 20G<728 981> 751 372<624.334 817.666>
VStem: 139 238<-209.681 30.5421> 532 378<839.998 1034.53>
DStem2: 303 219 436 51 0.753696 0.657223<-117.297 350.939> 535 465 751 389 0.174959 0.984576<-139.884 214.044>
LayerCount: 2
Fore
SplineSet
866 -292 m 0,0,1
 718 -469 718 -469 473.076271186 -469 c 128,-1,2
 228.152542373 -469 228.152542373 -469 159 -265 c 0,3,4
 139 -206 139 -206 139 -157 c 0,5,6
 139 75.992 139 75.992 303 219 c 0,7,8
 335 245 335 245 459 329 c 0,9,10
 498 357 498 357 510 376.5 c 128,-1,11
 522 396 522 396 535 465 c 1,12,-1
 570 667 l 1,13,-1
 571 676 l 1,14,-1
 802 676 l 1,15,-1
 751 389 l 2,16,17
 735 301 735 301 688.5 247.5 c 128,-1,18
 642 194 642 194 549.5 133.5 c 128,-1,19
 457 73 457 73 436 51 c 0,20,21
 377 -16.4285714286 377 -16.4285714286 377 -114 c 0,22,23
 377 -168 377 -168 415 -207 c 128,-1,24
 453 -246 453 -246 519 -246 c 128,-1,25
 585 -246 585 -246 633 -216 c 0,26,27
 680 -186 680 -186 700 -137 c 0,28,29
 709 -118 709 -118 724 -62 c 2,30,-1
 733 -26 l 1,31,-1
 981 -26 l 1,32,-1
 968 -74 l 1,33,34
 937 -204 937 -204 866 -292 c 0,0,1
532 903 m 4,35,36
 532 1002.51968504 532 1002.51968504 603.5 1062.75984252 c 132,-1,37
 675 1123 675 1123 753 1123 c 132,-1,38
 831 1123 831 1123 870.5 1074 c 132,-1,39
 910 1025 910 1025 910 969 c 4,40,41
 910 872.436507937 910 872.436507937 838.5 811.718253968 c 132,-1,42
 767 751 767 751 689 751 c 132,-1,43
 611 751 611 751 571.5 799.5 c 132,-1,44
 532 848 532 848 532 903 c 4,35,36
EndSplineSet
EndChar

StartChar: AE
Encoding: 198 198 135
Width: 1120
Flags: W
HStem: 0 215<692 977> 652 215<809 1022> 1260 215<880 1187>
DStem2: -105 0 140 0 0.427243 0.904137<104.675 552.98 778.012 778.012> 497 407 692 215 0.177062 0.9842<-154.439 0 207.505 289.644 507.975 641.038>
LayerCount: 2
Fore
SplineSet
-105 0 m 1,0,-1
 589 1468 l 1,1,-1
 592 1475 l 1,2,-1
 1225 1475 l 1,3,-1
 1189 1269 l 1,4,-1
 1187 1260 l 1,5,-1
 880 1260 l 1,6,-1
 809 867 l 1,7,-1
 1060 867 l 1,8,-1
 1024 661 l 1,9,-1
 1022 652 l 1,10,-1
 771 652 l 1,11,-1
 692 215 l 1,12,-1
 1015 215 l 1,13,-1
 979 9 l 1,14,-1
 977 0 l 1,15,-1
 425 0 l 1,16,-1
 497 407 l 1,17,-1
 328 407 l 1,18,-1
 143 7 l 1,19,-1
 140 0 l 1,20,-1
 -105 0 l 1,0,-1
423 611 m 1,21,-1
 535 611 l 1,22,-1
 610 1038 l 1,23,-1
 423 611 l 1,21,-1
EndSplineSet
EndChar

StartChar: Eth
Encoding: 208 208 145
Width: 1120
Flags: W
HStem: 0 215<292 625.318> 654 215<68 142 409 688> 1260 215<481 788.626>
DStem2: 105 445 292 215 0.177974 0.984035<-193.047 212.248 471.335 868.907>
LayerCount: 2
Fore
SplineSet
13 0 m 1,0,-1
 105 445 l 1,1,-1
 142 654 l 1,2,-1
 30 654 l 1,3,-1
 67 860 l 1,4,-1
 68 869 l 1,5,-1
 180 869 l 1,6,-1
 209 1032 l 1,7,-1
 263 1382 l 2,8,9
 268 1414 268 1414 270 1434 c 2,10,-1
 274 1465 l 1,11,-1
 276 1475 l 1,12,-1
 653 1475 l 2,13,14
 797 1475 797 1475 876 1444 c 0,15,16
 1036 1380 1036 1380 1080 1230 c 0,17,18
 1107 1138 1107 1138 1107 1013.5 c 128,-1,19
 1107 889 1107 889 1079 733 c 0,20,21
 998 280 998 280 781 115 c 0,22,23
 700 54 700 54 632.5 34 c 0,24,25
 517.75 7.77156117238e-016 517.75 7.77156117238e-016 393 0 c 2,26,-1
 13 0 l 1,0,-1
292 215 m 1,27,-1
 418 215 l 2,28,29
 586 215 586 215 667 288 c 0,30,31
 727 342 727 342 768 443.5 c 128,-1,32
 809 545 809 545 841.5 724.5 c 0,33,34
 887.697486081 979.652269276 887.697486081 979.652269276 865 1113 c 0,35,36
 850 1189 850 1189 790.5 1224.5 c 128,-1,37
 731 1260 731 1260 610 1260 c 2,38,-1
 481 1260 l 1,39,-1
 409 869 l 1,40,-1
 725 869 l 1,41,-1
 689 663 l 1,42,-1
 688 654 l 1,43,-1
 372 654 l 1,44,-1
 292 215 l 1,27,-1
EndSplineSet
EndChar

StartChar: multiply
Encoding: 215 215 152
Width: 1120
Flags: W
DStem2: -71 317 61 159 0.742576 0.669762<0 628.682 885.857 1513.8> 266 1341 87 1179 0.600125 -0.799906<13.7623 538.8 764.163 1288.4>
LayerCount: 2
Fore
SplineSet
-71 317 m 1,0,-1
 406 749 l 1,1,-1
 87 1179 l 1,2,-1
 81 1185 l 1,3,-1
 257 1333 l 1,4,-1
 266 1341 l 1,5,-1
 588 909 l 1,6,-1
 1053 1330 l 1,7,-1
 1061 1338 l 1,8,-1
 1185 1187 l 1,9,-1
 1191 1178 l 1,10,-1
 715 747 l 1,11,-1
 1034 317 l 1,12,-1
 1040 311 l 1,13,-1
 856 154 l 1,14,-1
 533 586 l 1,15,-1
 61 159 l 1,16,-1
 -64 308 l 1,17,-1
 -71 317 l 1,0,-1
EndSplineSet
EndChar

StartChar: Oslash
Encoding: 216 216 153
Width: 1120
Flags: W
HStem: -27 223<343.487 598.192> 1280 223<530.479 782.154>
DStem2: -95 44 73 -63 0.614015 0.789294<18.7 178.236 804.71 1272.17 1724.56 1859.54> 266 460 317 268 0.614015 0.789294<0 785.594>
LayerCount: 2
Fore
SplineSet
-95 44 m 1,0,-1
 55 237 l 1,1,2
 34 313 34 313 34 429 c 128,-1,3
 34 545 34 545 65 716 c 0,4,5
 122 1032 122 1032 199.5 1180.5 c 128,-1,6
 277 1329 277 1329 407 1416 c 128,-1,7
 537 1503 537 1503 699.5 1503 c 128,-1,8
 862 1503 862 1503 968 1402 c 1,9,-1
 1049 1510 l 1,10,-1
 1205 1412 l 1,11,-1
 1215 1405 l 1,12,-1
 1075 1225 l 1,13,14
 1094 1148 1094 1148 1094 1056 c 2,15,-1
 1094 1031 l 1,16,17
 1091 923 1091 923 1048 683.5 c 128,-1,18
 1005 444 1005 444 926.5 294.5 c 128,-1,19
 848 145 848 145 718.5 59 c 128,-1,20
 589 -27 589 -27 429.5 -27 c 128,-1,21
 270 -27 270 -27 167 66 c 1,22,-1
 73 -63 l 1,23,-1
 -85 37 l 1,24,-1
 -95 44 l 1,0,-1
266 460 m 1,25,-1
 815 1197 l 1,26,27
 761 1280 761 1280 652.5 1280 c 128,-1,28
 544 1280 544 1280 452 1157 c 128,-1,29
 360 1034 360 1034 301 703 c 0,30,31
 275 559 275 559 266 460 c 1,25,-1
317 268 m 1,32,33
 370 196 370 196 476 196 c 128,-1,34
 582 196 582 196 674 318 c 128,-1,35
 766 440 766 440 828 782 c 0,36,37
 850 904 850 904 859 994 c 1,38,-1
 317 268 l 1,32,33
EndSplineSet
EndChar

StartChar: Thorn
Encoding: 222 222 159
Width: 1120
Flags: W
HStem: 0 21G<53 306> 351 211<393 682.858> 1115 179<528 777.759> 1455 20G<315 567>
VStem: 832 235<722.666 1066.8>
DStem2: 143 449 393 562 0.17593 0.984403<-413.672 -58.8224 155.22 716.836 902.22 1040.43>
LayerCount: 2
Fore
SplineSet
53 0 m 1,0,-1
 60 43 l 2,1,2
 62 54 62 54 72 97 c 1,3,-1
 143 449 l 1,4,-1
 247 1027 l 1,5,-1
 302 1382 l 1,6,7
 307 1423 307 1423 310 1436 c 2,8,-1
 315 1466 l 1,9,-1
 316 1475 l 1,10,-1
 567 1475 l 1,11,-1
 560 1431 l 1,12,13
 550 1377 550 1377 528 1294 c 1,14,-1
 637 1294 l 2,15,16
 991 1294 991 1294 1050 1065 c 0,17,18
 1067 1002 1067 1002 1067 937 c 0,19,20
 1067 709.798816568 1067 709.798816568 946.5 556.5 c 0,21,22
 862 449 862 449 721 393 c 0,23,24
 654 367 654 367 590.5 359 c 128,-1,25
 527 351 527 351 405 351 c 2,26,-1
 357 351 l 1,27,28
 330 163 330 163 310 37 c 1,29,-1
 306 9 l 1,30,-1
 304 0 l 1,31,-1
 53 0 l 1,0,-1
393 562 m 1,32,-1
 467 562 l 2,33,34
 604 562 604 562 663 594 c 0,35,36
 794 665 794 665 825 839 c 0,37,38
 832 881 832 881 832 923 c 128,-1,39
 832 965 832 965 815.5 1018 c 0,40,41
 790.564921822 1098.09449354 790.564921822 1098.09449354 697 1111 c 0,42,43
 667 1115 667 1115 575 1115 c 2,44,-1
 491 1115 l 1,45,-1
 393 562 l 1,32,-1
EndSplineSet
EndChar

StartChar: germandbls
Encoding: 223 223 160
Width: 1120
Flags: W
HStem: -27 223<438.687 655.518> 0 21G<72 327> 1280 223<566.848 763.518>
VStem: 749 236<312.549 622.275> 808 240<985.97 1246.82>
DStem2: 91 96 347 158 0.184903 0.982757<-50.8926 -11.6405 108.266 649.145 818.384 1239.63>
LayerCount: 2
Fore
SplineSet
1048 1168 m 0,0,1
 1048 936.62962963 1048 936.62962963 846 787 c 1,2,3
 986 697 986 697 985 510 c 0,4,5
 985 459 985 459 975 401 c 0,6,7
 933 172 933 172 770 54 c 0,8,9
 660 -27 660 -27 541 -27 c 128,-1,10
 422 -27 422 -27 331 39 c 1,11,-1
 327 10 l 1,12,-1
 326 0 l 1,13,-1
 72 0 l 1,14,-1
 79 43 l 2,15,16
 81 54 81 54 91 96 c 1,17,-1
 162 448 l 1,18,-1
 272 1063 l 2,19,20
 293 1183 293 1183 326 1250 c 0,21,22
 374 1356 374 1356 491.5 1429.5 c 128,-1,23
 609 1503 609 1503 725 1503 c 0,24,25
 884 1503 884 1503 978 1382 c 0,26,27
 1047 1293 1047 1293 1048 1168 c 0,0,1
347 158 m 1,28,-1
 394 219 l 1,29,-1
 395 219 l 1,30,-1
 422 250 l 1,31,-1
 453 233 l 1,32,33
 517 196 517 196 568 196 c 128,-1,34
 619 196 619 196 669.5 254 c 128,-1,35
 720 312 720 312 742 432 c 0,36,37
 749 468 749 468 749 499 c 0,38,39
 749 681.13559322 749 681.13559322 517 689 c 1,40,-1
 473 691 l 1,41,-1
 443 692 l 1,42,-1
 434 692 l 1,43,-1
 392 455 l 2,44,45
 385 411 385 411 347 158 c 1,28,-1
467 858 m 1,46,-1
 471 858 l 1,47,-1
 501 860 l 1,48,49
 657 869 657 869 739 955 c 0,50,51
 791 1012 791 1012 799 1059.5 c 128,-1,52
 807 1107 807 1107 808 1132 c 0,53,54
 808 1214 808 1214 755 1254 c 0,55,56
 721 1280 721 1280 675 1280 c 0,57,58
 593 1280 593 1280 549 1215 c 0,59,60
 531 1186 531 1186 523.5 1160.5 c 128,-1,61
 516 1135 516 1135 501 1053 c 2,62,-1
 467 858 l 1,46,-1
EndSplineSet
EndChar

StartChar: ae
Encoding: 230 230 167
Width: 1120
Flags: W
HStem: -27 223<182 374.595 553.75 810.899> 466 204<688 885> 544 223<308.434 432> 897 224<347.647 548.25 732.586 857.783>
VStem: 10 240<199.401 476.037> 885 225<671.657 877.424>
DStem2: 394 325 617 283 0.178558 0.983929<-41.9768 184.445 440.774 536.494> 939 305 1005 105 0.890435 0.455111<-291.515 7.10369>
LayerCount: 2
Fore
SplineSet
486 854 m 0,0,1
 486 897 486 897 452 897 c 0,2,3
 407.671641791 897 407.671641791 897 254 793 c 2,4,-1
 196 754 l 1,5,-1
 181 955 l 1,6,-1
 179 976 l 1,7,-1
 178 983 l 1,8,-1
 203 998 l 1,9,10
 307 1065 307 1065 375.5 1093 c 128,-1,11
 444 1121 444 1121 513.5 1121 c 128,-1,12
 583 1121 583 1121 640 1064 c 1,13,14
 729 1121 729 1121 828 1121 c 0,15,16
 1048 1121 1048 1121 1100 882 c 0,17,18
 1110 834 1110 834 1110 751.5 c 128,-1,19
 1110 669 1110 669 1086 529 c 1,20,-1
 1076 475 l 1,21,-1
 1074 466 l 1,22,-1
 650 466 l 1,23,-1
 617 283 l 2,24,25
 613 261 613 261 613 242 c 128,-1,26
 613 223 613 223 621 209.5 c 128,-1,27
 629 196 629 196 665 196 c 0,28,29
 738 196 738 196 939 305 c 1,30,-1
 984 328 l 1,31,-1
 1037 132 l 1,32,-1
 1040 123 l 1,33,-1
 1005 105 l 1,34,35
 856 27 856 27 779.5 0 c 128,-1,36
 703 -27 703 -27 603.5 -27 c 128,-1,37
 504 -27 504 -27 445 38 c 1,38,39
 404 11 404 11 389 3 c 0,40,41
 331 -27 331 -27 255 -27 c 0,42,43
 109 -27 109 -27 49 83 c 0,44,45
 10 154 10 154 10 231 c 0,46,47
 10 505 10 505 162 657 c 0,48,49
 272 767 272 767 405 767 c 0,50,51
 437 767 437 767 471 759 c 1,52,-1
 483 822 l 2,53,54
 486 840 486 840 486 854 c 0,0,1
250 292 m 0,55,56
 250 196 250 196 314 196 c 0,57,58
 360 196 360 196 376 243 c 0,59,60
 383 262 383 262 394 325 c 2,61,-1
 432 534 l 1,62,63
 409 544 409 544 385 544 c 128,-1,64
 361 544 361 544 342 531 c 0,65,66
 279 487 279 487 259 377 c 0,67,68
 250 328 250 328 250 292 c 0,55,56
688 670 m 1,69,-1
 885 670 l 1,70,71
 886 694 886 694 886.5 753.5 c 128,-1,72
 887 813 887 813 859 855.5 c 128,-1,73
 831 898 831 898 793.5 898 c 128,-1,74
 756 898 756 898 739 880.5 c 128,-1,75
 722 863 722 863 713 812 c 2,76,-1
 688 670 l 1,69,-1
EndSplineSet
EndChar

StartChar: eth
Encoding: 240 240 177
Width: 1120
Flags: W
HStem: -27 223<361.935 640.49> 898 224<476.024 642.463>
VStem: 65.9707 239<253.893 663.655> 812.971 241<429.101 836.609>
DStem2: 270.971 1230 367 1073 0.84298 0.537945<0 154.542 510.515 661.99>
LayerCount: 2
Fore
SplineSet
456.970703125 -27 m 0,0,1
 290 -27 290 -27 177.970703125 75.5419921875 c 128,-1,2
 66 178 66 178 65.970703125 371 c 0,3,4
 66 466 66 466 80.970703125 549 c 0,5,6
 150 931 150 931 424.970703125 1066 c 0,7,8
 539 1122 539 1122 647.970703125 1122 c 1,9,10
 599 1185 599 1185 581 1206 c 5,11,-1
 376 1079 l 5,12,-1
 367 1073 l 5,13,-1
 270.970703125 1230 l 1,14,-1
 401.970703125 1312 l 1,15,16
 332.96490991 1341.73897645 332.96490991 1341.73897645 258.970703125 1369 c 2,17,-1
 220.970703125 1383 l 1,18,-1
 205.970703125 1388 l 1,19,-1
 366.970703125 1561 l 1,20,-1
 370.970703125 1565 l 1,21,-1
 377.970703125 1564 l 1,22,23
 519 1533 519 1533 635.970703125 1465 c 1,24,-1
 825.970703125 1589 l 1,25,-1
 835.970703125 1596 l 1,26,-1
 928 1431 l 5,27,-1
 800 1350 l 5,28,29
 878 1267 878 1267 945.970703125 1137 c 1,30,31
 1054 951 1054 951 1053.97070312 749 c 0,32,33
 1054 650 1054 650 1031.97070312 526 c 0,34,35
 969 166 969 166 685.970703125 26 c 0,36,37
 580 -26 580 -26 456.970703125 -27 c 0,0,1
812.970703125 683 m 0,38,39
 812.970703125 898 812.970703125 898 618.970703125 898 c 0,40,41
 380.970703125 898 380.970703125 898 317.970703125 545 c 0,42,43
 304.970703125 471 304.970703125 471 304.970703125 413 c 0,44,45
 304.970703125 196 304.970703125 196 492.970703125 196 c 0,46,47
 735.970703125 196 735.970703125 196 798.970703125 546 c 0,48,49
 812.970703125 623 812.970703125 623 812.970703125 683 c 0,38,39
EndSplineSet
EndChar

StartChar: divide
Encoding: 247 247 184
Width: 1120
Flags: W
HStem: 238 326<407.593 590.148> 622 227<37 1083> 913 326<530.392 713.078>
VStem: 333 332<309.691 491.715> 457 331<985.047 1167.87>
LayerCount: 2
Fore
SplineSet
-3 622 m 1,0,-1
 36 840 l 1,1,-1
 37 849 l 1,2,-1
 1123 849 l 1,3,-1
 1084 631 l 1,4,-1
 1083 622 l 1,5,-1
 -3 622 l 1,0,-1
471.5 238 m 128,-1,7
 404 238 404 238 368.5 280.5 c 128,-1,8
 333 323 333 323 333 355 c 0,9,10
 333 458.654867257 333 458.654867257 397.5 511.327433628 c 128,-1,11
 462 564 462 564 529 564 c 128,-1,12
 596 564 596 564 630.5 521 c 128,-1,13
 665 478 665 478 665 429 c 0,14,15
 665 345.837837838 665 345.837837838 602 291.918918919 c 128,-1,6
 539 238 539 238 471.5 238 c 128,-1,7
594.5 913 m 128,-1,17
 527 913 527 913 492 956.5 c 128,-1,18
 457 1000 457 1000 457 1032 c 0,19,20
 457 1133.31818182 457 1133.31818182 519.5 1186.15909091 c 128,-1,21
 582 1239 582 1239 650 1239 c 128,-1,22
 718 1239 718 1239 753.5 1195.5 c 128,-1,23
 789 1152 789 1152 788 1104 c 0,24,25
 788 1020.83783784 788 1020.83783784 725 966.918918919 c 128,-1,16
 662 913 662 913 594.5 913 c 128,-1,17
EndSplineSet
EndChar

StartChar: oslash
Encoding: 248 248 185
Width: 1120
Flags: W
HStem: -27 223<374.177 631.672> 898 223<480.245 726.766>
VStem: 819 228<477.34 746.306>
DStem2: -22 71 131 -45 0.677315 0.735693<6.92639 153.126 560.345 921.962 1327.51 1507.42> 294 371 372 233 0.678364 0.734726<0 633.133>
LayerCount: 2
Fore
SplineSet
-22 71 m 1,0,-1
 96 199 l 1,1,2
 40.6970108696 341.717391304 40.6970108696 341.717391304 82 562 c 0,3,4
 148 928 148 928 432 1069 c 0,5,6
 537 1121 537 1121 661.5 1121 c 128,-1,7
 786 1121 786 1121 886 1053 c 1,8,-1
 999 1180 l 1,9,-1
 1114 1074 l 1,10,-1
 1142 1050 l 1,11,-1
 1010 910 l 1,12,13
 1047 823 1047 823 1047 725 c 128,-1,14
 1047 627 1047 627 1030 534 c 0,15,16
 964 162 964 162 686 30 c 1,17,18
 575 -27 575 -27 445.5 -27 c 128,-1,19
 316 -27 316 -27 215 52 c 1,20,-1
 131 -45 l 1,21,-1
 124 -54 l 1,22,-1
 -22 71 l 1,0,-1
294 371 m 1,23,-1
 729 872 l 1,24,25
 685 898 685 898 624 898 c 0,26,27
 378 898 378 898 309 502 c 0,28,29
 297 431 297 431 294 371 c 1,23,-1
372 233 m 1,30,31
 418 196 418 196 489 196 c 0,32,33
 733 196 733 196 803 591 c 0,34,35
 818 679 818 679 819 748 c 1,36,-1
 372 233 l 1,30,31
EndSplineSet
EndChar

StartChar: thorn
Encoding: 254 254 191
Width: 1120
Flags: W
HStem: -426 21G<32 288> -27 223<410.698 648.863> 898 223<572.74 775.194>
VStem: 328 234<1068.38 1485.95> 850 238<435.619 820.883>
DStem2: 32 -426 288 -417 0.16714 0.985933<42.6208 485.156 704.211 1324.42 1554.93 1695.42>
LayerCount: 2
Fore
SplineSet
32 -426 m 1,0,-1
 53 -325 l 1,1,2
 122 13 122 13 126 31 c 2,3,-1
 275 864 l 2,4,5
 328 1163.15555556 328 1163.15555556 328 1246.07777778 c 128,-1,6
 328 1329 328 1329 317 1437 c 1,7,-1
 313 1483 l 1,8,-1
 531 1508 l 1,9,-1
 542 1509 l 1,10,-1
 543 1499 l 1,11,-1
 547 1475 l 2,12,13
 562 1382 562 1382 562 1285.5 c 128,-1,14
 562 1189 562 1189 544 1090 c 1,15,-1
 540 1065 l 1,16,17
 636 1121 636 1121 712.5 1121 c 128,-1,18
 789 1121 789 1121 863.5 1084.5 c 128,-1,19
 938 1048 938 1048 988 990 c 0,20,21
 1088 878 1088 878 1088 693 c 0,22,23
 1088 622 1088 622 1073 540 c 0,24,25
 1020 246 1020 246 811 90 c 0,26,27
 653 -27 653 -27 493 -27 c 0,28,29
 435 -27 435 -27 351 12 c 1,30,-1
 300 -328 l 1,31,-1
 293 -385 l 1,32,-1
 288 -417 l 1,33,-1
 287 -426 l 1,34,-1
 32 -426 l 1,0,-1
394 255 m 1,35,36
 454 196 454 196 523 196 c 0,37,38
 552 196 552 196 600 216 c 0,39,40
 695 255 695 255 749 328 c 0,41,42
 815 422 815 422 840 560 c 0,43,44
 850 616 850 616 850 662 c 0,45,46
 850 818 850 818 738 880 c 0,47,48
 704 898 704 898 680 898 c 0,49,50
 593 898 593 898 487 767 c 1,51,-1
 394 255 l 1,35,36
EndSplineSet
EndChar

StartChar: dcaron
Encoding: 271 271 204
Width: 1120
Flags: W
HStem: -27 223<176.312 367.178> 898 223<299.355 530.467> 1481 20G<653 908>
VStem: -95 237<223.925 652.866>
DStem2: 732 588 456 328 0.189286 0.981922<-367.964 531.717 870.318 873.364 881.068 881.73>
LayerCount: 2
Fore
SplineSet
-95 356 m 0,0,1
 -95 442 -95 442 -76 547 c 0,2,3
 -24 836 -24 836 143 1000 c 0,4,5
 265 1121 265 1121 387 1121 c 128,-1,6
 509 1121 509 1121 592 1083 c 1,7,-1
 641 1406 l 1,8,-1
 648 1460 l 1,9,-1
 653 1492 l 1,10,-1
 654 1501 l 1,11,-1
 908 1501 l 1,12,-1
 898 1456 l 2,13,14
 893 1433 893 1433 871 1325 c 1,15,-1
 997 1545 l 1,16,-1
 1215 1456 l 1,17,-1
 946 1058 l 1,18,-1
 940 1050 l 1,19,-1
 828 1111 l 1,20,-1
 732 588 l 2,21,22
 680 301.422222222 680 301.422222222 680 220.711111111 c 128,-1,23
 680 140 680 140 694 40 c 1,24,-1
 698 4 l 1,25,-1
 700 -7 l 1,26,-1
 477 -32 l 1,27,-1
 466 -33 l 1,28,-1
 465 -22 l 1,29,-1
 462 3 l 2,30,31
 458 33 458 33 455 60 c 1,32,33
 337 -27 337 -27 195.5 -27 c 128,-1,34
 54 -27 54 -27 -37 116 c 0,35,36
 -95 206 -95 206 -95 356 c 0,0,1
218 737 m 0,37,38
 181 659 181 659 161.5 552.5 c 128,-1,39
 142 446 142 446 142 381 c 128,-1,40
 142 316 142 316 167 256 c 128,-1,41
 192 196 192 196 246.5 196 c 0,42,43
 350.4 196 350.4 196 456 328 c 1,44,-1
 549 838 l 1,45,46
 485 898 485 898 401 898 c 0,47,48
 295 898 295 898 218 737 c 0,37,38
EndSplineSet
EndChar

StartChar: dcroat
Encoding: 273 273 205
Width: 1120
Flags: W
HStem: -27 223<272.218 527.949> 898 223<400.157 687.908> 1139 215<513 758 1035 1121> 1481 20G<810 1066>
VStem: -39 239<272.459 660.883> 613 239<-8.07064 58.5798>
DStem2: 890 589 614 328 0.189486 0.981883<-369.02 558.795 806.075 817.194 867.077 872.169 880.012 880.698>
LayerCount: 2
Fore
SplineSet
-39 396 m 0,0,1
 -39 467 -39 467 -25 548 c 0,2,3
 28 842 28 842 238 1005 c 0,4,5
 389 1121 389 1121 564 1121 c 0,6,7
 668 1121 668 1121 750 1083 c 1,8,-1
 758 1139 l 1,9,-1
 475 1139 l 1,10,-1
 511 1345 l 1,11,-1
 513 1354 l 1,12,-1
 790 1354 l 1,13,14
 798 1405 798 1405 801 1434 c 1,15,-1
 810 1492 l 1,16,-1
 812 1501 l 1,17,-1
 1066 1501 l 1,18,-1
 1056 1456 l 2,19,20
 1040 1381 1040 1381 1035 1354 c 1,21,-1
 1159 1354 l 1,22,-1
 1123 1148 l 1,23,-1
 1121 1139 l 1,24,-1
 989 1139 l 1,25,-1
 890 589 l 2,26,27
 838 301.266666667 838 301.266666667 838 220.633333333 c 128,-1,28
 838 140 838 140 852 40 c 1,29,-1
 856 4 l 1,30,-1
 857 -7 l 1,31,-1
 634 -32 l 1,32,-1
 624 -33 l 1,33,-1
 622 -22 l 1,34,-1
 619 3 l 2,35,36
 615 32 615 32 613 59 c 1,37,38
 495 -27 495 -27 336 -27 c 128,-1,39
 177 -27 177 -27 61 99 c 0,40,41
 -39 211 -39 211 -39 396 c 0,0,1
200 435 m 0,42,43
 200 327 200 327 252.5 261.5 c 128,-1,44
 305 196 305 196 381.5 196 c 128,-1,45
 458 196 458 196 507 225.5 c 128,-1,46
 556 255 556 255 614 328 c 1,47,-1
 706 838 l 1,48,49
 642 898 642 898 557.5 898 c 128,-1,50
 473 898 473 898 405 857 c 0,51,52
 251 765 251 765 210 538 c 0,53,54
 200 482 200 482 200 435 c 0,42,43
EndSplineSet
EndChar

StartChar: uni0122
Encoding: 290 290 216
Width: 1120
Flags: W
HStem: 0 21G<709.065 941.065> 562 215<499.065 810.065> 1280 223<548.32 797.779>
VStem: 42.0654 242<273.258 778.45> 835.065 238<1010.69 1242.87>
LayerCount: 2
Fore
SplineSet
284.065429688 464 m 0,0,1
 284.065429688 196 284.065429688 196 481.065429688 196 c 0,2,3
 628.065429688 196 628.065429688 196 722.065429688 324 c 0,4,5
 755.065429688 369 755.065429688 369 772.565429688 421.5 c 128,-1,6
 790.065429688 474 790.065429688 474 810.065429688 562 c 1,7,-1
 461.065429688 562 l 1,8,-1
 497.065429688 768 l 1,9,-1
 499.065429688 777 l 1,10,-1
 1078.06542969 777 l 1,11,-1
 941.065429688 9 l 1,12,-1
 940.065429688 0 l 1,13,-1
 709.065429688 0 l 1,14,-1
 720.065429688 62 l 1,15,16
 615.633789062 -8.9345703125 615.633789062 -8.9345703125 493.065429688 -23 c 1,17,-1
 612.065429688 -65 l 1,18,-1
 625.065429688 -69 l 1,19,-1
 356.065429688 -467 l 1,20,-1
 351.065429688 -475 l 1,21,-1
 152.065429688 -386 l 1,22,-1
 360.065429688 -22 l 1,23,24
 245.065429688 -5 245.065429688 -5 160.065429688 71 c 0,25,26
 37.98828125 179.80859375 37.98828125 179.80859375 42.0654296875 400 c 0,27,28
 42.0654296875 532 42.0654296875 532 84.5654296875 771 c 128,-1,29
 127.065429688 1010 127.065429688 1010 214.065429688 1171 c 0,30,31
 393.065429688 1502 393.065429688 1502 725.065429688 1503 c 0,32,33
 911.065429688 1503 911.065429688 1503 999.065429688 1382 c 0,34,35
 1074.06542969 1279 1074.06542969 1279 1073.06542969 1144 c 0,36,37
 1073.06542969 1122 1073.06542969 1122 1071.06542969 1097.5 c 128,-1,38
 1069.06542969 1073 1069.06542969 1073 1068.06542969 1054 c 2,39,-1
 1065.06542969 1020 l 1,40,-1
 1064.06542969 1010 l 1,41,-1
 816.065429688 1010 l 1,42,-1
 823.065429688 1054 l 1,43,44
 835.065429688 1120 835.065429688 1120 835.065429688 1142 c 0,45,46
 835.065429688 1208 835.065429688 1208 795.065429688 1244 c 128,-1,47
 755.065429688 1280 755.065429688 1280 678.565429688 1280 c 128,-1,48
 602.065429688 1280 602.065429688 1280 527.565429688 1223 c 128,-1,49
 453.065429688 1166 453.065429688 1166 401.065429688 1046.5 c 128,-1,50
 349.065429688 927 349.065429688 927 316.565429688 748 c 128,-1,51
 284.065429688 569 284.065429688 569 284.065429688 464 c 0,0,1
EndSplineSet
EndChar

StartChar: uni0123
Encoding: 291 291 217
Width: 1120
Flags: W
HStem: -334 223<278.366 552.572> 84 148<362.503 620.703> 898 223<463.765 732.879> 1074 20G<884 1125> 1116 21G<661.21 723>
DStem2: 710 343 900 133 0.17674 0.984258<-51.71 493.426>
LayerCount: 2
Fore
SplineSet
-5 -119 m 1,0,-1
 194 32 l 1,1,-1
 217 -2 l 1,2,3
 289 -111 289 -111 420 -111 c 0,4,5
 510 -111 510 -111 578 -45.5 c 128,-1,6
 646 20 646 20 670 139 c 1,7,8
 550 85 550 85 423 84 c 1,9,-1
 420 84 l 2,10,11
 283 84 283 84 197 158 c 0,12,13
 65 268 65 268 65 465 c 0,14,15
 65 649.473684211 65 649.473684211 155 820 c 0,16,17
 313 1121 313 1121 633 1121 c 0,18,19
 711 1121 711 1121 763 1101 c 128,-1,20
 815 1081 815 1081 871 1045 c 1,21,22
 876 1055 876 1055 880 1066 c 1,23,-1
 894 1094 l 1,24,-1
 1125 1094 l 1,25,-1
 1103 1044 l 1,26,27
 1032 875 1032 875 1016 779 c 1,28,-1
 900 133 l 2,29,30
 868 -44 868 -44 758 -157 c 0,31,32
 683 -238 683 -238 580 -286 c 128,-1,33
 477 -334 477 -334 381 -334 c 0,34,35
 182 -334 182 -334 55 -189 c 0,36,37
 50 -183 50 -183 23 -151 c 2,38,-1
 -5 -119 l 1,0,-1
401 791 m 0,39,40
 331 686 331 686 307.599533437 546.084758942 c 128,-1,41
 284.199066874 406.169517885 284.199066874 406.169517885 329.599533437 319.084758942 c 128,-1,42
 375 232 375 232 465 232 c 0,43,44
 593 232 593 232 710 343 c 1,45,-1
 790 797 l 1,46,47
 713 898 713 898 595 898 c 0,48,49
 508 898 508 898 443 838 c 0,50,51
 416 815 416 815 401 791 c 0,39,40
474 1201 m 1,52,-1
 744 1599 l 1,53,-1
 749 1607 l 1,54,-1
 948 1518 l 1,55,-1
 723 1124 l 1,56,-1
 718 1116 l 1,57,-1
 488 1197 l 1,58,-1
 474 1201 l 1,52,-1
EndSplineSet
EndChar

StartChar: dotlessi
Encoding: 305 305 225
Width: 1120
Flags: W
HStem: -27 223<568.878 754> 879 215<158 424>
DStem2: 350 435 581 439 0.164399 0.986394<-114.164 450.124>
LayerCount: 2
Fore
SplineSet
629 196 m 0,0,1
 758.714285714 196 758.714285714 196 829 319 c 1,2,-1
 1000 274 l 1,3,-1
 973 235 l 1,4,-1
 973 234 l 1,5,6
 968 228 968 228 942 193 c 0,7,8
 782 -27 782 -27 590 -27 c 0,9,10
 423 -27 423 -27 361 75 c 0,11,12
 299.73347548 177.1108742 299.73347548 177.1108742 350 435 c 1,13,-1
 389 647 l 1,14,-1
 424 879 l 1,15,-1
 120 879 l 1,16,-1
 156 1085 l 1,17,-1
 158 1094 l 1,18,-1
 711 1094 l 1,19,-1
 709 1081 l 1,20,-1
 703 1052 l 1,21,22
 636 746 636 746 620 657 c 2,23,-1
 581 439 l 2,24,25
 563 338 563 338 563 282 c 0,26,27
 563 196 563 196 629 196 c 0,0,1
EndSplineSet
EndChar

StartChar: IJ
Encoding: 306 306 226
Width: 1120
Flags: W
HStem: -27 161<524.247 710.422> 0 153<-34 85 263 343> 1322 153<199 291 469 592 785 972>
VStem: 330 169<157.143 412.385>
DStem2: 85 153 263 153 0.173545 0.984826<30.891 1187.01> 341 370 507 364 0.173026 0.984917<-59.1782 274.32> 834 507 1002 506 0.181653 0.983363<-317.664 826.509>
LayerCount: 2
Fore
SplineSet
-61 0 m 1,0,-1
 -34 153 l 1,1,-1
 85 153 l 1,2,-1
 141 435 l 1,3,-1
 247 1040 l 1,4,-1
 291 1322 l 1,5,-1
 172 1322 l 1,6,-1
 199 1475 l 1,7,-1
 619 1475 l 1,8,-1
 592 1322 l 1,9,-1
 469 1322 l 1,10,-1
 414 1040 l 1,11,-1
 308 435 l 1,12,-1
 263 153 l 1,13,-1
 343 153 l 1,14,15
 330 202 330 202 330 256 c 256,16,17
 330 310 330 310 341 370 c 2,18,-1
 353 438 l 2,19,20
 363 495 363 495 377 647 c 1,21,-1
 568 647 l 1,22,-1
 565 636 l 1,23,-1
 559 609 l 1,24,25
 525 465 525 465 520 438 c 2,26,-1
 507 364 l 2,27,28
 499 318 499 318 499 281 c 128,-1,29
 499 244 499 244 507 216 c 0,30,31
 532 134 532 134 613 134 c 128,-1,32
 694 134 694 134 761 242 c 0,33,34
 798 300 798 300 834 507 c 2,35,-1
 928 1040 l 1,36,-1
 972 1322 l 1,37,-1
 758 1322 l 1,38,-1
 785 1475 l 1,39,-1
 1181 1475 l 1,40,-1
 1097 1041 l 1,41,-1
 1002 506 l 2,42,43
 976 360 976 360 955 290 c 0,44,45
 902 121 902 121 778 35 c 0,46,47
 686 -27 686 -27 578 -27 c 0,48,49
 438 -27 438 -27 374 83 c 1,50,-1
 359 0 l 1,51,-1
 -61 0 l 1,0,-1
EndSplineSet
EndChar

StartChar: ij
Encoding: 307 307 227
Width: 1120
Flags: W
HStem: -334 161<370.747 554.246> 941 153<84 192 624 790> 1222.5 285<263.799 435.558 863.799 1034.92>
VStem: 205.5 288.5<1280.29 1450.08> 805.5 288.5<1280.23 1450.08>
DStem2: 26 0 229 127 0.174134 0.984722<160.409 955.53> 630 20.5 799 18 0.183627 0.982996<-155.25 934.228>
LayerCount: 2
Fore
SplineSet
26 0 m 1,0,-1
 109 431 l 1,1,-1
 149 660 l 1,2,-1
 192 941 l 1,3,-1
 57 941 l 1,4,-1
 84 1094 l 1,5,-1
 400 1094 l 1,6,7
 392 1047 392 1047 387 1028 c 1,8,-1
 316 661 l 1,9,-1
 276 431 l 2,10,11
 273 411 273 411 238 184 c 2,12,-1
 229 127 l 1,13,-1
 364 127 l 1,14,-1
 348 35 l 1,15,16
 331.363636364 -53.7272727273 331.363636364 -53.7272727273 361.681818182 -113.363636364 c 128,-1,17
 392 -173 392 -173 440 -173 c 0,18,19
 540 -173 540 -173 595 -74 c 0,20,21
 618 -32 618 -32 630 20.5 c 128,-1,22
 642 73 642 73 691 347 c 2,23,-1
 746 659 l 1,24,-1
 790 941 l 1,25,-1
 597 941 l 1,26,-1
 624 1094 l 1,27,-1
 1000 1094 l 1,28,29
 994 1061 994 1061 950 841 c 2,30,-1
 914 660 l 1,31,-1
 859 346 l 1,32,33
 809 67 809 67 799 18 c 0,34,35
 764 -142 764 -142 658.5 -238 c 128,-1,36
 553 -334 553 -334 424 -334 c 128,-1,37
 295 -334 295 -334 236.5 -249.5 c 128,-1,38
 178 -165 178 -165 178 -38 c 0,39,40
 178 -20 178 -20 179 0 c 1,41,-1
 26 0 l 1,0,-1
324.5 1222.5 m 128,-1,43
 265 1222 265 1222 235 1259 c 128,-1,44
 205 1296 205 1296 205.5 1324 c 0,45,46
 207.163097199 1417.13344316 207.163097199 1417.13344316 262.0815486 1462.06672158 c 128,-1,47
 317 1507 317 1507 375.5 1507.5 c 128,-1,48
 434 1508 434 1508 464 1471 c 128,-1,49
 494 1434 494 1434 494 1406.5 c 0,50,51
 494 1316.16326531 494 1316.16326531 439 1269.58163265 c 128,-1,42
 384 1223 384 1223 324.5 1222.5 c 128,-1,43
924 1222.5 m 128,-1,53
 865 1222 865 1222 835 1259 c 128,-1,54
 805 1296 805 1296 805.5 1324 c 0,55,56
 807.163097199 1417.13344316 807.163097199 1417.13344316 862.0815486 1462.06672158 c 128,-1,57
 917 1507 917 1507 975.5 1507.5 c 128,-1,58
 1034 1508 1034 1508 1064 1471 c 128,-1,59
 1094 1434 1094 1434 1094 1406.5 c 0,60,61
 1094 1316.06060606 1094 1316.06060606 1038.5 1269.53030303 c 128,-1,52
 983 1223 983 1223 924 1222.5 c 128,-1,53
EndSplineSet
EndChar

StartChar: uni0136
Encoding: 310 310 228
Width: 1120
Flags: W
HStem: 0 21G<-23 230 718.307 1042> 1455 20G<239 492>
DStem2: -16 43 230 9 0.17593 0.984403<0.597625 475.758 851.142 1454.7>
LayerCount: 2
Fore
SplineSet
-23 0 m 1,0,-1
 -16 43 l 2,1,2
 -12 64 -12 64 -5 97 c 2,3,-1
 67 449 l 1,4,-1
 171 1029 l 1,5,-1
 225 1382 l 2,6,7
 230 1415 230 1415 234 1435 c 2,8,-1
 239 1466 l 1,9,-1
 240 1475 l 1,10,-1
 492 1475 l 1,11,-1
 397 1001 l 1,12,-1
 368 839 l 1,13,14
 423 864 423 864 519.5 952 c 128,-1,15
 616 1040 616 1040 726.5 1186.5 c 128,-1,16
 837 1333 837 1333 909 1465 c 2,17,-1
 927 1498 l 1,18,-1
 932 1508 l 1,19,-1
 1143 1394 l 1,20,-1
 1116 1358 l 2,21,22
 1074 1301 1074 1301 924 1121.5 c 128,-1,23
 774 942 774 942 694 869 c 128,-1,24
 614 796 614 796 518 735 c 1,25,-1
 1042 0 l 1,26,-1
 731 0 l 1,27,-1
 328 635 l 1,28,-1
 299 470 l 1,29,-1
 230 9 l 1,30,-1
 228 0 l 1,31,-1
 -23 0 l 1,0,-1
161 -386 m 1,32,-1
 385 8 l 1,33,-1
 390 16 l 1,34,-1
 621 -65 l 1,35,-1
 635 -69 l 1,36,-1
 365 -467 l 1,37,-1
 360 -475 l 1,38,-1
 161 -386 l 1,32,-1
EndSplineSet
EndChar

StartChar: uni0137
Encoding: 311 311 229
Width: 1120
Flags: W
HStem: 0 21G<11 264 677.749 1001> 1074 20G<799 1109> 1481 20G<278 531>
DStem2: 18 43 264 9 0.176156 0.984362<0.654482 461.678 683.668 1481.35> 803 1094 766 772 0.729073 0.684436<-530.271 0>
LayerCount: 2
Fore
SplineSet
11 0 m 1,0,-1
 18 43 l 2,1,2
 22 63 22 63 29 97 c 2,3,-1
 101 446 l 1,4,-1
 208 1045 l 1,5,-1
 263 1405 l 2,6,7
 268 1438 268 1438 272 1461 c 2,8,-1
 278 1492 l 1,9,-1
 280 1501 l 1,10,-1
 531 1501 l 1,11,-1
 510 1400 l 1,12,13
 438 1045 438 1045 435 1027 c 2,14,-1
 373 674 l 1,15,16
 657 916 657 916 799 1090 c 1,17,-1
 803 1094 l 1,18,-1
 1109 1094 l 1,19,-1
 1039 1028 l 1,20,21
 848 845 848 845 766 772 c 128,-1,22
 684 699 684 699 544 587 c 1,23,-1
 1001 0 l 1,24,-1
 691 0 l 1,25,-1
 369 486 l 1,26,-1
 331 456 l 1,27,28
 321 394 321 394 277 97 c 1,29,-1
 269 41 l 1,30,-1
 264 9 l 1,31,-1
 262 0 l 1,32,-1
 11 0 l 1,0,-1
131 -386 m 1,33,-1
 356 8 l 1,34,-1
 361 16 l 1,35,-1
 591 -65 l 1,36,-1
 605 -69 l 1,37,-1
 335 -467 l 1,38,-1
 330 -475 l 1,39,-1
 131 -386 l 1,33,-1
EndSplineSet
EndChar

StartChar: kgreenlandic
Encoding: 312 312 230
Width: 1120
Flags: W
HStem: 0 21G<10 264 678.735 1002> 1074 20G<205 460 800 1110>
DStem2: 12 13 262 0 0.19095 0.9816<34.9766 492.61 721.097 733.333 742.125 754.635 1071.94 1098.15>
LayerCount: 2
Fore
SplineSet
10 0 m 1,0,-1
 12 13 l 1,1,-1
 99 442 l 1,2,-1
 138 658 l 2,3,4
 141 674 141 674 148 719 c 128,-1,5
 155 764 155 764 167.5 842 c 128,-1,6
 180 920 180 920 197 1030 c 2,7,-1
 201 1055 l 1,8,-1
 205 1084 l 1,9,-1
 206 1094 l 1,10,-1
 460 1094 l 1,11,-1
 444 1021 l 1,12,13
 418 895 418 895 381 710 c 1,14,-1
 375 677 l 1,15,16
 663 924 663 924 800 1090 c 1,17,-1
 803 1094 l 1,18,-1
 1110 1094 l 1,19,-1
 1041 1028 l 1,20,21
 828 826 828 826 751.5 759.5 c 128,-1,22
 675 693 675 693 544 588 c 1,23,-1
 1002 0 l 1,24,-1
 692 0 l 1,25,-1
 369 487 l 1,26,-1
 331 457 l 1,27,28
 308 328 308 328 269 41 c 1,29,-1
 264 9 l 1,30,-1
 262 0 l 1,31,-1
 10 0 l 1,0,-1
EndSplineSet
EndChar

StartChar: uni013B
Encoding: 315 315 233
Width: 1120
Flags: W
HStem: 0 215<388 453 509 980> 1455 20G<365 615>
DStem2: 193 447 422 452 0.177304 0.984156<-193.75 1042.39>
LayerCount: 2
Fore
SplineSet
102 0 m 1,0,-1
 105 13 l 1,1,-1
 110 43 l 2,2,3
 112 54 112 54 122 98 c 1,4,-1
 193 447 l 1,5,-1
 297 1029 l 1,6,-1
 352 1382 l 1,7,8
 357 1423 357 1423 360 1436 c 2,9,-1
 365 1466 l 1,10,-1
 366 1475 l 1,11,-1
 615 1475 l 1,12,-1
 608 1432 l 2,13,14
 605 1413 605 1413 596 1378 c 1,15,-1
 525 1029 l 1,16,-1
 422 452 l 1,17,-1
 388 215 l 1,18,-1
 1018 215 l 1,19,-1
 981 9 l 1,20,-1
 980 0 l 1,21,-1
 509 0 l 1,22,-1
 694 -65 l 1,23,-1
 708 -69 l 1,24,-1
 438 -467 l 1,25,-1
 432 -475 l 1,26,-1
 234 -386 l 1,27,-1
 453 0 l 1,28,-1
 102 0 l 1,0,-1
EndSplineSet
EndChar

StartChar: uni013C
Encoding: 316 316 234
Width: 1120
Flags: W
HStem: 1286 215<340 605>
VStem: 229 662
DStem2: 462 445 689 442 0.176056 0.98438<-401.021 853.04>
LayerCount: 2
Fore
SplineSet
229 -386 m 1,0,-1
 449 0 l 1,1,-1
 375 0 l 1,2,-1
 377 12 l 1,3,-1
 380 40 l 1,4,5
 381 62 381 62 391 97 c 1,6,-1
 462 445 l 1,7,-1
 569 1047 l 1,8,9
 591 1206 591 1206 605 1286 c 1,10,-1
 302 1286 l 1,11,-1
 339 1492 l 1,12,-1
 340 1501 l 1,13,-1
 891 1501 l 1,14,-1
 797 1043 l 1,15,-1
 689 442 l 1,16,-1
 622 9 l 1,17,-1
 621 0 l 1,18,-1
 505 0 l 1,19,-1
 689 -65 l 1,20,-1
 703 -69 l 1,21,-1
 434 -467 l 1,22,-1
 429 -475 l 1,23,-1
 229 -386 l 1,0,-1
EndSplineSet
EndChar

StartChar: Lcaron
Encoding: 317 317 235
Width: 1120
Flags: W
HStem: 0 215<358 949> 1455 20G<334 585>
DStem2: 266 1029 495 1029 0.17593 0.984403<-785.118 451.359>
LayerCount: 2
Fore
SplineSet
72 0 m 1,0,-1
 79 43 l 2,1,2
 81 54 81 54 91 98 c 1,3,-1
 162 447 l 1,4,-1
 266 1029 l 1,5,-1
 321 1382 l 1,6,7
 326 1423 326 1423 329 1436 c 2,8,-1
 334 1466 l 1,9,-1
 336 1475 l 1,10,-1
 585 1475 l 1,11,-1
 578 1432 l 2,12,13
 575 1413 575 1413 566 1378 c 1,14,-1
 495 1029 l 1,15,-1
 392 452 l 1,16,-1
 358 215 l 1,17,-1
 987 215 l 1,18,-1
 951 9 l 1,19,-1
 949 0 l 1,20,-1
 72 0 l 1,0,-1
574 1117 m 1,21,-1
 799 1512 l 1,22,-1
 804 1520 l 1,23,-1
 1035 1438 l 1,24,-1
 1048 1434 l 1,25,-1
 779 1036 l 1,26,-1
 774 1028 l 1,27,-1
 574 1117 l 1,21,-1
EndSplineSet
EndChar

StartChar: lcaron
Encoding: 318 318 236
Width: 1120
Flags: W
HStem: 0 21G<152 400> 1286 215<118 381>
DStem2: 153 12 399 0 0.0995037 0.995037<12.5375 455.031> 238 445 466 438 0.185795 0.982588<-355.132 736.535>
LayerCount: 2
Fore
SplineSet
80 1286 m 1,0,-1
 116 1492 l 1,1,-1
 118 1501 l 1,2,-1
 667 1501 l 1,3,-1
 610 1218 l 1,4,-1
 791 1535 l 1,5,-1
 796 1543 l 1,6,-1
 1027 1462 l 1,7,-1
 1040 1458 l 1,8,-1
 771 1060 l 1,9,-1
 766 1052 l 1,10,-1
 603 1124 l 1,11,-1
 593 1129 l 1,12,-1
 573 1035 l 1,13,-1
 466 438 l 1,14,-1
 404 39 l 1,15,-1
 400 10 l 1,16,-1
 399 0 l 1,17,-1
 152 0 l 1,18,-1
 153 12 l 1,19,-1
 156 40 l 1,20,21
 157 62 157 62 167 97 c 1,22,-1
 238 445 l 1,23,-1
 345 1047 l 1,24,25
 367 1206 367 1206 381 1286 c 1,26,-1
 80 1286 l 1,0,-1
EndSplineSet
EndChar

StartChar: Lslash
Encoding: 321 321 239
Width: 1120
Flags: W
HStem: 0 215<430 1016> 1092 20G<935 950.461> 1455 20G<405 659>
DStem2: 145 13 430 215 0.176581 0.984286<249.151 628.847 986.447 1485.11> 553 942 695 793 0.944158 0.329492<0 309.761>
LayerCount: 2
Fore
SplineSet
66 532 m 1,0,-1
 111 781 l 1,1,-1
 112 788 l 1,2,-1
 141 797 l 2,3,4
 194 813 194 813 268 840 c 1,5,-1
 307 853 l 1,6,-1
 339 1028 l 1,7,-1
 393 1381 l 1,8,-1
 400 1434 l 1,9,-1
 405 1466 l 1,10,-1
 406 1475 l 1,11,-1
 659 1475 l 1,12,-1
 657 1462 l 1,13,-1
 650 1430 l 2,14,15
 593 1165 593 1165 569 1029 c 2,16,-1
 553 942 l 1,17,-1
 602 959 l 2,18,19
 666 981 666 981 886 1082 c 1,20,-1
 935 1103 l 1,21,-1
 954 1112 l 1,22,-1
 911 869 l 1,23,-1
 909 862 l 1,24,-1
 880 853 l 1,25,26
 785 826 785 826 695 793 c 1,27,-1
 515 730 l 1,28,-1
 466 453 l 1,29,-1
 430 215 l 1,30,-1
 1054 215 l 1,31,-1
 1018 9 l 1,32,-1
 1016 0 l 1,33,-1
 142 0 l 1,34,-1
 145 13 l 1,35,-1
 151 44 l 2,36,37
 156 65 156 65 163 96 c 2,38,-1
 235 447 l 1,39,-1
 267 630 l 1,40,41
 215 605 215 605 136 567 c 1,42,-1
 66 532 l 1,0,-1
EndSplineSet
EndChar

StartChar: lslash
Encoding: 322 322 240
Width: 1120
Flags: W
HStem: 0 21G<291 544> 1286 215<252 525>
DStem2: 148 797 125 573 0.933734 0.357967<0 221.416 598.718 804.836> 311 95 577 230.5 0.17902 0.983845<-51.9327 608.748 962.972 1210.07>
LayerCount: 2
Fore
SplineSet
106 566 m 1,0,-1
 147 791 l 1,1,-1
 148 797 l 1,2,-1
 467 924 l 1,3,-1
 489 1047 l 1,4,-1
 525 1286 l 1,5,-1
 214 1286 l 1,6,-1
 251 1492 l 1,7,-1
 252 1501 l 1,8,-1
 812 1501 l 1,9,-1
 802 1456 l 2,10,11
 796 1429 796 1429 790 1400 c 2,12,-1
 715 1027 l 1,13,-1
 711 1001 l 1,14,-1
 1014 1129 l 1,15,-1
 973 902 l 1,16,-1
 972 896 l 1,17,-1
 670 778 l 1,18,-1
 609 437 l 2,19,20
 601 390 601 390 577 230.5 c 128,-1,21
 553 71 553 71 548 39 c 2,22,-1
 544 10 l 1,23,-1
 543 0 l 1,24,-1
 291 0 l 1,25,-1
 300 43 l 2,26,27
 305 68 305 68 311 95 c 2,28,-1
 382 445 l 1,29,-1
 425 693 l 1,30,-1
 125 573 l 1,31,-1
 106 566 l 1,0,-1
EndSplineSet
EndChar

StartChar: uni0145
Encoding: 325 325 243
Width: 1120
Flags: W
HStem: 0 21G<-9 245 636.445 850> 1455 20G<263 512.518 873 1129>
DStem2: -2 43 312 470 0.162411 0.986723<7.55364 1019.76> 508 1475 408 1009 0.222074 -0.97503<432.156 957.535> 801 1003 1034 1024 0.164226 0.986423<-469.194 477.58>
LayerCount: 2
Fore
SplineSet
-9 0 m 1,0,-1
 -2 43 l 2,1,2
 0 54 0 54 10 97 c 1,3,-1
 81 449 l 1,4,-1
 263 1466 l 1,5,-1
 264 1475 l 1,6,-1
 508 1475 l 1,7,-1
 719 541 l 1,8,-1
 801 1003 l 1,9,-1
 860 1379 l 2,10,11
 865 1417 865 1417 868 1435 c 2,12,-1
 873 1466 l 1,13,-1
 874 1475 l 1,14,-1
 1129 1475 l 1,15,-1
 1109 1391 l 1,16,-1
 1034 1024 l 1,17,-1
 850 -5 l 1,18,-1
 849 -14 l 1,19,-1
 641 -14 l 1,20,-1
 408 1009 l 1,21,-1
 312 470 l 2,22,23
 278 276 278 276 249 43 c 2,24,-1
 245 10 l 1,25,-1
 244 0 l 1,26,-1
 -9 0 l 1,0,-1
122 -386 m 1,27,-1
 346 8 l 1,28,-1
 350 16 l 1,29,-1
 582 -65 l 1,30,-1
 596 -69 l 1,31,-1
 326 -467 l 1,32,-1
 320 -475 l 1,33,-1
 122 -386 l 1,27,-1
EndSplineSet
EndChar

StartChar: uni0146
Encoding: 326 326 244
Width: 1120
Flags: W
HStem: 0 21G<61 318 677 933> 898 223<622.299 811.576> 1074 20G<214 439>
VStem: 218 222<973 1094>
DStem2: 61 0 316 0 0.152898 0.988242<38.9889 635.324> 677 0 931 0 0.158553 0.987351<40.2724 310.237 441.951 456.34 629.232 863.05>
LayerCount: 2
Fore
SplineSet
61 0 m 1,0,-1
 82 94 l 1,1,2
 145 401 145 401 152 439 c 2,3,-1
 166 517 l 2,4,5
 205 738 205 738 211.5 808.5 c 128,-1,6
 218 879 218 879 218 940.5 c 128,-1,7
 218 1002 218 1002 217 1048 c 1,8,-1
 215 1083 l 1,9,-1
 214 1094 l 1,10,-1
 438 1094 l 1,11,-1
 439 1083 l 1,12,-1
 440 1059 l 2,13,14
 441 1032 441 1032 441 1010.5 c 128,-1,15
 441 989 441 989 440 973 c 1,16,17
 482 1009 482 1009 543 1045 c 0,18,19
 670 1121 670 1121 798.5 1121 c 128,-1,20
 927 1121 927 1121 1005 1020 c 0,21,22
 1059 950.045454545 1059 950.045454545 1059 865.022727273 c 128,-1,23
 1059 780 1059 780 1041 685 c 1,24,-1
 998 437 l 1,25,-1
 971 267 l 2,26,27
 942 79 942 79 937 40 c 2,28,-1
 933 10 l 1,29,-1
 931 0 l 1,30,-1
 677 0 l 1,31,-1
 768 433 l 1,32,-1
 804 634 l 1,33,34
 834.071672355 796.052901024 834.071672355 796.052901024 813 854 c 0,35,36
 804 873 804 873 784.5 885.5 c 128,-1,37
 765 898 765 898 746 898 c 0,38,39
 691 898 691 898 617.5 851.5 c 128,-1,40
 544 805 544 805 481.5 725 c 128,-1,41
 419 645 419 645 398 530 c 1,42,-1
 329 89 l 1,43,-1
 318 10 l 1,44,-1
 316 0 l 1,45,-1
 61 0 l 1,0,-1
215 -386 m 1,46,-1
 440 8 l 1,47,-1
 445 16 l 1,48,-1
 675 -65 l 1,49,-1
 689 -69 l 1,50,-1
 419 -467 l 1,51,-1
 414 -475 l 1,52,-1
 215 -386 l 1,46,-1
EndSplineSet
EndChar

StartChar: napostrophe
Encoding: 329 329 247
Width: 1120
Flags: W
HStem: 0 21G<61.5 315.5 674.5 931.5> 898 223<618.597 809.224>
VStem: 217.5 222<974 1094> 819.5 239<533.688 870.103>
DStem2: 73.5 69 313.5 0 0.192632 0.981271<-21.476 759.019> 674.5 0 929.5 0 0.159957 0.987124<40.7891 354.889 441.981 464.759 619.624 793.061>
LayerCount: 2
Fore
SplineSet
61.5 0 m 1,0,-1
 73.5 69 l 1,1,-1
 73.5 70 l 1,2,-1
 79.5 96 l 1,3,4
 144.5 407 144.5 407 150.5 440 c 2,5,-1
 178.5 596 l 2,6,7
 217.5 809 217.5 809 217.5 978 c 0,8,9
 217.5 1014 217.5 1014 215.5 1048 c 2,10,-1
 213.5 1083 l 1,11,-1
 212.5 1094 l 1,12,-1
 107.5 1141 l 1,13,-1
 332.5 1535 l 1,14,-1
 337.5 1543 l 1,15,-1
 568.5 1462 l 1,16,-1
 581.5 1458 l 1,17,-1
 335.5 1094 l 1,18,-1
 434.5 1094 l 1,19,-1
 435.5 1084 l 1,20,-1
 437.5 1060 l 2,21,22
 439.5 1028 439.5 1028 439.5 994 c 2,23,-1
 439.5 974 l 1,24,25
 499.5 1029 499.5 1029 596.5 1075 c 128,-1,26
 693.5 1121 693.5 1121 782.5 1121 c 0,27,28
 924.5 1121 924.5 1121 1004.5 1020 c 0,29,30
 1053.42675781 956.618164062 1053.42675781 956.618164062 1058.5 845 c 0,31,32
 1058.5 779 1058.5 779 1040.5 685 c 1,33,-1
 996.5 437 l 2,34,35
 989.5 396 989.5 396 977 310.5 c 128,-1,36
 964.5 225 964.5 225 943.5 91 c 2,37,-1
 935.5 39 l 1,38,-1
 931.5 10 l 1,39,-1
 929.5 0 l 1,40,-1
 674.5 0 l 1,41,-1
 765.5 433 l 1,42,-1
 801.5 634 l 2,43,44
 819.5 731 819.5 731 819.5 781.5 c 128,-1,45
 819.5 832 819.5 832 810.5 852.5 c 0,46,47
 790.524414062 898 790.524414062 898 739.51171875 898 c 128,-1,48
 688.5 898 688.5 898 615 851.5 c 128,-1,49
 541.5 805 541.5 805 479 725 c 128,-1,50
 416.5 645 416.5 645 396.5 530 c 2,51,-1
 378.5 430 l 1,52,-1
 326.5 89 l 1,53,-1
 315.5 10 l 1,54,-1
 313.5 0 l 1,55,-1
 61.5 0 l 1,0,-1
EndSplineSet
EndChar

StartChar: Eng
Encoding: 330 330 248
Width: 1120
Flags: W
HStem: -493 223<323.099 522.721> 0 21G<-9 245> 1455 20G<263 512.518 873 1129>
DStem2: -2 43 312 470 0.162575 0.986696<7.595 1018.82> 508 1475 408 1008 0.220229 -0.975448<433.511 957.537> 620 69 855 23 0.178204 0.983994<-305.558 0 482.087 1428.76>
LayerCount: 2
Fore
SplineSet
-9 0 m 1,0,-1
 -2 43 l 2,1,2
 0 54 0 54 10 97 c 1,3,-1
 81 449 l 1,4,-1
 263 1466 l 1,5,-1
 264 1475 l 1,6,-1
 508 1475 l 1,7,-1
 719 541 l 1,8,-1
 801 1003 l 1,9,-1
 860 1379 l 2,10,11
 865 1417 865 1417 868 1435 c 2,12,-1
 873 1466 l 1,13,-1
 874 1475 l 1,14,-1
 1129 1475 l 1,15,-1
 1109 1391 l 1,16,-1
 1034 1023 l 1,17,-1
 855 23 l 2,18,19
 834 -94 834 -94 791 -196.5 c 128,-1,20
 748 -299 748 -299 695.5 -352 c 0,21,22
 555.830188679 -493 555.830188679 -493 363 -493 c 0,23,24
 245 -493 245 -493 156 -409 c 0,25,26
 111 -368 111 -368 93 -318.5 c 128,-1,27
 75 -269 75 -269 70 -185 c 1,28,-1
 66 -135 l 1,29,-1
 290 -135 l 1,30,-1
 297 -162 l 1,31,32
 321 -270 321 -270 412 -270 c 0,33,34
 479 -270 479 -270 539 -211.5 c 128,-1,35
 599 -153 599 -153 620 69 c 1,36,-1
 408 1008 l 1,37,-1
 312 470 l 2,38,39
 278 276 278 276 249 43 c 2,40,-1
 245 10 l 1,41,-1
 244 0 l 1,42,-1
 -9 0 l 1,0,-1
EndSplineSet
EndChar

StartChar: eng
Encoding: 331 331 249
Width: 1120
Flags: W
HStem: -334 223<328.292 600.057> 898 223<622.521 820.056> 1074 20G<211.825 435.825>
VStem: 218.825 224<971 1094> 830.825 238<532.094 889.724>
DStem2: 85.8252 94 383.825 430 0.194531 0.980896<-36.6806 704.087> 725.825 150 956.825 149 0.175471 0.984485<-178.427 646.669>
LayerCount: 2
Fore
SplineSet
442.825195312 971 m 1,0,1
 613.095703125 1121 613.095703125 1121 802.825195312 1121 c 0,2,3
 936.825195312 1121 936.825195312 1121 1015.82519531 1019 c 0,4,5
 1073.49121094 942.985351562 1073.49121094 942.985351562 1068.82519531 845 c 0,6,7
 1068.82519531 779 1068.82519531 779 1051.82519531 682 c 2,8,-1
 956.825195312 149 l 2,9,10
 900.825195312 -166 900.825195312 -166 635.825195312 -285 c 0,11,12
 530.825195312 -334 530.825195312 -334 431.825195312 -334 c 0,13,14
 231.825195312 -334 231.825195312 -334 107.825195312 -190 c 1,15,-1
 50.8251953125 -120 l 1,16,-1
 203.825195312 0 l 1,17,-1
 65.8251953125 0 l 1,18,-1
 85.8251953125 94 l 1,19,20
 150.825195312 408 150.825195312 408 155.825195312 439 c 2,21,-1
 183.825195312 595 l 1,22,23
 218.825195312 799 218.825195312 799 218.825195312 902 c 128,-1,24
 218.825195312 1005 218.825195312 1005 215.825195312 1047 c 2,25,-1
 211.825195312 1094 l 1,26,-1
 434.825195312 1094 l 1,27,-1
 435.825195312 1084 l 1,28,-1
 438.825195312 1062 l 2,29,30
 442.825195312 1031 442.825195312 1031 442.825195312 1004.5 c 2,31,-1
 442.825195312 971 l 1,0,1
830.825195312 790 m 0,32,33
 830.825195312 898 830.825195312 898 752.825195312 898 c 0,34,35
 666.825195312 898 666.825195312 898 565.825195312 813 c 0,36,37
 431.825195312 698 431.825195312 698 401.825195312 530 c 2,38,-1
 383.825195312 430 l 2,39,40
 366.825195312 336 366.825195312 336 324.825195312 39 c 1,41,-1
 320.825195312 10 l 1,42,-1
 319.825195312 0 l 1,43,-1
 263.825195312 0 l 1,44,-1
 263.825195312 -1 l 1,45,46
 287.825195312 -31 287.825195312 -31 290.825195312 -34 c 0,47,48
 316.825195312 -67 316.825195312 -67 368.325195312 -89 c 128,-1,49
 419.825195312 -111 419.825195312 -111 483.825195312 -111 c 128,-1,50
 547.825195312 -111 547.825195312 -111 614.825195312 -56 c 1,51,52
 700.825195312 8 700.825195312 8 725.825195312 150 c 2,53,-1
 812.825195312 633 l 2,54,55
 830.825195312 731 830.825195312 731 830.825195312 790 c 0,32,33
EndSplineSet
EndChar

StartChar: OE
Encoding: 338 338 254
Width: 1120
Flags: W
HStem: -27 223<231.767 399.08> 0 215<630 910> 652 215<747 924> 1260 215<818 1120> 1279 223<420.362 587.152>
VStem: -38 238<224.972 747.001>
DStem2: 398 206 630 215 0.177333 0.984151<49.9986 494.082 712.413 1078.86>
LayerCount: 2
Fore
SplineSet
-38 361 m 0,0,1
 -38 504 -38 504 4 736 c 128,-1,2
 46 968 46 968 94 1104 c 0,3,4
 143 1240 143 1240 217 1329 c 0,5,6
 358 1502 358 1502 553 1502 c 0,7,8
 613 1502 613 1502 702 1475 c 1,9,-1
 1158 1475 l 1,10,-1
 1122 1269 l 1,11,-1
 1120 1260 l 1,12,-1
 818 1260 l 1,13,-1
 747 867 l 1,14,-1
 962 867 l 1,15,-1
 926 661 l 1,16,-1
 924 652 l 1,17,-1
 709 652 l 1,18,-1
 630 215 l 1,19,-1
 948 215 l 1,20,-1
 912 9 l 1,21,-1
 910 0 l 1,22,-1
 443 0 l 1,23,24
 345 -27 345 -27 279 -27 c 0,25,26
 135 -27 135 -27 54 57 c 0,27,28
 -38 153.6 -38 153.6 -38 361 c 0,0,1
200 393 m 0,29,30
 200 196 200 196 314 196 c 0,31,32
 350 196 350 196 398 206 c 1,33,-1
 589 1266 l 1,34,35
 537 1279 537 1279 517 1279 c 0,36,37
 437 1279 437 1279 367 1167.5 c 128,-1,38
 297 1056 297 1056 238 723 c 0,39,40
 200 515 200 515 200 393 c 0,29,30
EndSplineSet
EndChar

StartChar: oe
Encoding: 339 339 255
Width: 1120
Flags: W
HStem: -27 223<289.005 382.605 627.217 801.772> 466 204<694.991 868.896> 898 223<403.307 549.491 731.724 846.092>
VStem: 23.9912 596<232 411> 868.991 227<671.775 884.29>
DStem2: 381.991 219 623.991 283 0.179014 0.983847<64.8049 292.418 499.746 686.806>
LayerCount: 2
Fore
SplineSet
23.9912109375 375 m 128,-1,1
 23.9912109375 447 23.9912109375 447 43.9912109375 560 c 0,2,3
 99.9912109375 870 99.9912109375 870 273.991210938 1017 c 0,4,5
 396.991210938 1121 396.991210938 1121 516.991210938 1121 c 0,6,7
 581.991210938 1121 581.991210938 1121 658.991210938 1071 c 1,8,9
 751.991210938 1121 751.991210938 1121 831.991210938 1121 c 0,10,11
 968.991210938 1121 968.991210938 1121 1040.99121094 1011 c 0,12,13
 1096.99121094 923 1096.99121094 923 1095.99121094 772 c 0,14,15
 1095.99121094 681 1095.99121094 681 1075.99121094 566 c 1,16,-1
 1058.99121094 475 l 1,17,-1
 1057.99121094 466 l 1,18,-1
 657.991210938 466 l 1,19,-1
 623.991210938 283 l 2,20,21
 619.991210938 259 619.991210938 259 619.991210938 241 c 128,-1,22
 619.991210938 223 619.991210938 223 626.991210938 209.5 c 128,-1,23
 633.991210938 196 633.991210938 196 668.991210938 196 c 128,-1,24
 703.991210938 196 703.991210938 196 749.491210938 214.5 c 128,-1,25
 794.991210938 233 794.991210938 233 893.991210938 289 c 1,26,-1
 950.991210938 323 l 1,27,-1
 962.991210938 331 l 1,28,-1
 1010.99121094 158 l 1,29,-1
 1018.99121094 133 l 1,30,-1
 1021.99121094 125 l 1,31,-1
 986.991210938 105 l 2,32,33
 969.991210938 95 969.991210938 95 907.991210938 61 c 0,34,35
 747.991210938 -27 747.991210938 -27 619.991210938 -27 c 2,36,-1
 616.991210938 -27 l 2,37,38
 560.991210938 -27 560.991210938 -27 528.991210938 -13 c 128,-1,39
 496.991210938 1 496.991210938 1 464.991210938 29 c 1,40,41
 386.991210938 -27 386.991210938 -27 315.991210938 -27 c 0,42,43
 172.991210938 -27 172.991210938 -27 85.9912109375 104 c 0,44,45
 43.4482421875 166.801757812 43.4482421875 166.801757812 33.7197265625 234.900390625 c 128,-1,0
 23.9912109375 303 23.9912109375 303 23.9912109375 375 c 128,-1,1
487.991210938 898 m 0,46,47
 425.991210938 898 425.991210938 898 367.991210938 809.5 c 128,-1,48
 309.991210938 721 309.991210938 721 273.216796875 521.8203125 c 128,-1,49
 236.443359375 322.640625 236.443359375 322.640625 289.991210938 238 c 0,50,51
 317.991210938 196 317.991210938 196 335.991210938 196 c 128,-1,52
 353.991210938 196 353.991210938 196 381.991210938 219 c 1,53,-1
 504.991210938 895 l 1,54,55
 496.991210938 898 496.991210938 898 487.991210938 898 c 0,46,47
694.991210938 670 m 1,56,-1
 866.991210938 670 l 1,57,58
 868.991210938 700 868.991210938 700 868.991210938 726 c 0,59,60
 868.991210938 898 868.991210938 898 782.991210938 898 c 0,61,62
 734.991210938 898 734.991210938 898 719.991210938 812 c 2,63,-1
 694.991210938 670 l 1,56,-1
EndSplineSet
EndChar

StartChar: uni0156
Encoding: 342 342 258
Width: 1120
Flags: W
HStem: 0 21G<27 280 773.213 1061> 566 215<406 530.687> 1260 215<492 813.426>
VStem: 855 238<927.62 1219.91>
DStem2: 34 43 278 0 0.17593 0.984403<0.597625 573.603 791.935 1278.59> 766 632 532 569 0.422964 -0.906147<-1.66336 579.452>
LayerCount: 2
Fore
SplineSet
27 0 m 1,0,-1
 34 43 l 2,1,2
 38 64 38 64 45 97 c 2,3,-1
 117 447 l 1,4,-1
 220 1025 l 1,5,-1
 275 1382 l 2,6,7
 280 1415 280 1415 284 1435 c 2,8,-1
 289 1466 l 1,9,-1
 290 1475 l 1,10,-1
 681 1475 l 2,11,12
 847 1475 847 1475 946 1419.5 c 128,-1,13
 1045 1364 1045 1364 1078 1240 c 0,14,15
 1093 1187 1093 1187 1093 1135.5 c 0,16,17
 1093 912.220183486 1093 912.220183486 945 752 c 0,18,19
 889 693 889 693 766 632 c 1,20,-1
 1061 0 l 1,21,-1
 782 0 l 1,22,-1
 532 569 l 1,23,24
 490 566 490 566 444 566 c 2,25,-1
 368 566 l 1,26,-1
 344 437 l 1,27,-1
 284 39 l 1,28,-1
 280 10 l 1,29,-1
 278 0 l 1,30,-1
 27 0 l 1,0,-1
206 -386 m 1,31,-1
 431 8 l 1,32,-1
 436 16 l 1,33,-1
 667 -65 l 1,34,-1
 681 -69 l 1,35,-1
 411 -467 l 1,36,-1
 406 -475 l 1,37,-1
 206 -386 l 1,31,-1
406 781 m 1,38,-1
 536 781 l 2,39,40
 638 781 638 781 697 815 c 0,41,42
 821 884 821 884 849 1039 c 0,43,44
 855 1075 855 1075 855 1104 c 0,45,46
 855 1201 855 1201 793.5 1230.5 c 128,-1,47
 732 1260 732 1260 576 1260 c 2,48,-1
 492 1260 l 1,49,-1
 406 781 l 1,38,-1
EndSplineSet
EndChar

StartChar: uni0157
Encoding: 343 343 259
Width: 1120
Flags: W
HStem: 898 223<732.323 955.5> 1074 20G<303 533>
VStem: 309 227<950.309 1094> 892 228<670.414 882.623>
DStem2: 175 94 449 263 0.198295 0.980142<-5.53526 675.13>
LayerCount: 2
Fore
SplineSet
-0 -386 m 1,0,-1
 220 0 l 1,1,-1
 155 0 l 1,2,-1
 175 94 l 1,3,4
 243 423 243 423 246 441 c 2,5,-1
 260 519 l 2,6,7
 309 787 309 787 309 974 c 0,8,9
 309 1012 309 1012 307 1047 c 2,10,-1
 303 1094 l 1,11,-1
 533 1094 l 1,12,-1
 533 1083 l 1,13,-1
 534 1059 l 2,14,15
 536 1022 536 1022 536 980 c 2,16,-1
 536 949 l 1,17,18
 591 1003 591 1003 679.5 1062 c 128,-1,19
 768 1121 768 1121 893 1121 c 128,-1,20
 1018 1121 1018 1121 1080 1026 c 0,21,22
 1114 970 1114 970 1117 931 c 128,-1,23
 1120 892 1120 892 1120 852.5 c 128,-1,24
 1120 813 1120 813 1108 711 c 1,25,-1
 1103 679 l 1,26,-1
 1102 670 l 1,27,-1
 871 670 l 1,28,-1
 878 714 l 2,29,30
 892 797 892 797 892 824.5 c 128,-1,31
 892 852 892 852 887 869 c 0,32,33
 878.470588235 898 878.470588235 898 847 898 c 0,34,35
 774 898 774 898 677 809 c 128,-1,36
 580 720 580 720 523 593 c 0,37,38
 491 523 491 523 482 475 c 1,39,-1
 449 263 l 1,40,41
 421.363636364 98.9090909091 421.363636364 98.9090909091 414 40 c 1,42,-1
 410 0 l 1,43,-1
 276 0 l 1,44,-1
 460 -65 l 1,45,-1
 473 -69 l 1,46,-1
 204 -467 l 1,47,-1
 199 -475 l 1,48,-1
 -0 -386 l 1,0,-1
EndSplineSet
EndChar

StartChar: uni0162
Encoding: 354 354 268
Width: 1120
Flags: W
HStem: 1260 215<44 428 658 1076>
DStem2: 282 444 510 441 0.185607 0.982624<-396.205 828.92>
LayerCount: 2
Fore
SplineSet
6 1260 m 1,0,-1
 43 1466 l 1,1,-1
 44 1475 l 1,2,-1
 1114 1475 l 1,3,-1
 1077 1269 l 1,4,-1
 1076 1260 l 1,5,-1
 658 1260 l 1,6,-1
 510 441 l 1,7,-1
 449 40 l 1,8,-1
 445 10 l 1,9,-1
 444 0 l 1,10,-1
 300 0 l 1,11,-1
 484 -65 l 1,12,-1
 498 -69 l 1,13,-1
 229 -467 l 1,14,-1
 223 -475 l 1,15,-1
 24 -386 l 1,16,-1
 244 0 l 1,17,-1
 190 0 l 1,18,-1
 282 444 l 1,19,-1
 428 1260 l 1,20,-1
 6 1260 l 1,0,-1
EndSplineSet
EndChar

StartChar: uni0163
Encoding: 355 355 269
Width: 1120
Flags: W
HStem: 879 215<141 345 615 966>
VStem: 238 235<210.645 530.68>
DStem2: 254 374 485 382 0.180104 0.983647<-51.9359 513.131> 432 1425 677 1389 0.196116 0.980581<-972.311 -552.459 -288.683 9.02134>
LayerCount: 2
Fore
SplineSet
103 879 m 1,0,-1
 140 1085 l 1,1,-1
 141 1094 l 1,2,-1
 383 1094 l 1,3,-1
 426 1394 l 1,4,-1
 432 1425 l 1,5,-1
 433 1434 l 1,6,-1
 687 1434 l 1,7,-1
 677 1389 l 1,8,9
 652 1269 652 1269 615 1094 c 1,10,-1
 1004 1094 l 1,11,-1
 967 888 l 1,12,-1
 966 879 l 1,13,-1
 576 879 l 1,14,-1
 485 382 l 2,15,16
 473 315 473 315 473 280 c 128,-1,17
 473 245 473 245 479 230 c 0,18,19
 492 196 492 196 545.5 196 c 0,20,21
 671.792079208 196 671.792079208 196 777 357 c 1,22,-1
 795 387 l 1,23,-1
 1017 329 l 1,24,-1
 982 281 l 2,25,26
 966 259 966 259 941 225 c 0,27,28
 772.348236921 -9.90781286011 772.348236921 -9.90781286011 537 -26 c 1,29,-1
 646 -65 l 1,30,-1
 660 -69 l 1,31,-1
 391 -467 l 1,32,-1
 385 -475 l 1,33,-1
 186 -386 l 1,34,-1
 399 -12 l 1,35,36
 239 36 239 36 238 222 c 0,37,38
 238 290 238 290 254 374 c 2,39,-1
 345 879 l 1,40,-1
 103 879 l 1,0,-1
EndSplineSet
EndChar

StartChar: tcaron
Encoding: 357 357 271
Width: 1120
Flags: W
HStem: -27 223<430.254 621.861> 879 215<92 296 566 916> 1115 21G<745.902 797>
VStem: 187 237<203.596 522.5>
DStem2: 204 373 436 382 0.178188 0.983996<-51.2257 514.296> 382 1425 628 1389 0.197814 0.98024<-959.449 -552.223 -288.061 9.21778>
LayerCount: 2
Fore
SplineSet
54 879 m 1,0,-1
 90 1085 l 1,1,-1
 92 1094 l 1,2,-1
 333 1094 l 1,3,-1
 376 1394 l 1,4,-1
 382 1425 l 1,5,-1
 384 1434 l 1,6,-1
 638 1434 l 1,7,-1
 628 1389 l 1,8,9
 603 1269 603 1269 566 1094 c 1,10,-1
 954 1094 l 1,11,-1
 918 888 l 1,12,-1
 916 879 l 1,13,-1
 526 879 l 1,14,-1
 436 382 l 2,15,16
 424 315 424 315 424 280 c 128,-1,17
 424 245 424 245 430 230 c 0,18,19
 443 196 443 196 496.5 196 c 0,20,21
 622.792079208 196 622.792079208 196 728 357 c 1,22,-1
 746 387 l 1,23,-1
 967 329 l 1,24,-1
 933 281 l 2,25,26
 917 259 917 259 892 225 c 0,27,28
 712 -27 712 -27 455 -27 c 0,29,30
 292 -27 292 -27 221 83 c 0,31,32
 188 137 188 137 187 208 c 0,33,34
 187 275.636363636 187 275.636363636 204 373 c 2,35,-1
 296 879 l 1,36,-1
 54 879 l 1,0,-1
593 1202 m 1,37,-1
 817 1597 l 1,38,-1
 822 1605 l 1,39,-1
 1053 1523 l 1,40,-1
 1066 1519 l 1,41,-1
 797 1123 l 1,42,-1
 792 1115 l 1,43,-1
 603 1197 l 1,44,-1
 593 1202 l 1,37,-1
EndSplineSet
EndChar

StartChar: Tbar
Encoding: 358 358 272
Width: 1120
Flags: W
HStem: 0 21G<190 445> 851 215<50 354 622 922> 1260 215<44 428 658 1076>
DStem2: 283 450 511 447 0.185607 0.982624<-402.286 407.21 668.217 822.839>
LayerCount: 2
Fore
SplineSet
6 1260 m 1,0,-1
 43 1466 l 1,1,-1
 44 1475 l 1,2,-1
 1114 1475 l 1,3,-1
 1077 1269 l 1,4,-1
 1076 1260 l 1,5,-1
 658 1260 l 1,6,-1
 622 1066 l 1,7,-1
 960 1066 l 1,8,-1
 923 860 l 1,9,-1
 922 851 l 1,10,-1
 584 851 l 1,11,-1
 511 447 l 1,12,-1
 449 40 l 1,13,-1
 445 10 l 1,14,-1
 444 0 l 1,15,-1
 190 0 l 1,16,-1
 283 450 l 1,17,-1
 354 851 l 1,18,-1
 12 851 l 1,19,-1
 49 1057 l 1,20,-1
 50 1066 l 1,21,-1
 392 1066 l 1,22,-1
 428 1260 l 1,23,-1
 6 1260 l 1,0,-1
EndSplineSet
EndChar

StartChar: tbar
Encoding: 359 359 273
Width: 1120
Flags: W
HStem: -27 223<479.21 662.354> 548 215<160 284 553 825> 879 215<140 345 614 965>
VStem: 236 236<206.427 529.68>
DStem2: 254 379 484 382 0.188361 0.9821<-54.101 171.626 433.446 508.191 770.011 781.178 887.513 1030.65 1050.74 1058.04>
LayerCount: 2
Fore
SplineSet
102 879 m 1,0,-1
 139 1085 l 1,1,-1
 140 1094 l 1,2,-1
 382 1094 l 1,3,-1
 425 1390 l 1,4,-1
 430 1421 l 1,5,-1
 431 1430 l 1,6,-1
 685 1430 l 1,7,-1
 614 1094 l 1,8,-1
 1003 1094 l 1,9,-1
 966 888 l 1,10,-1
 965 879 l 1,11,-1
 575 879 l 1,12,-1
 553 763 l 1,13,-1
 863 763 l 1,14,-1
 826 557 l 1,15,-1
 825 548 l 1,16,-1
 515 548 l 1,17,-1
 484 382 l 2,18,19
 472 316 472 316 472 281 c 128,-1,20
 472 246 472 246 479 230 c 0,21,22
 492 196 492 196 544.5 196 c 128,-1,23
 597 196 597 196 656 226 c 1,24,-1
 657 227 l 1,25,26
 676.762711864 236.881355932 676.762711864 236.881355932 721.881355932 288.940677966 c 128,-1,27
 767 341 767 341 775 354 c 2,28,-1
 790 378 l 1,29,-1
 795 385 l 1,30,-1
 1001 332 l 1,31,-1
 1018 328 l 1,32,-1
 980 279 l 2,33,34
 966 261 966 261 961 251 c 1,35,36
 764 -27 764 -27 510 -27 c 0,37,38
 340 -27 340 -27 270 85 c 0,39,40
 236 140 236 140 236 212 c 0,41,42
 236 274.272727273 236 274.272727273 254 379 c 2,43,-1
 284 548 l 1,44,-1
 122 548 l 1,45,-1
 159 754 l 1,46,-1
 160 763 l 1,47,-1
 322 763 l 1,48,-1
 345 879 l 1,49,-1
 102 879 l 1,0,-1
EndSplineSet
EndChar

StartChar: florin
Encoding: 402 402 291
Width: 1120
Flags: W
HStem: -258 225<-32 219.443> 833 201<318 507 799 987> 1307 225<896.557 1151>
DStem2: 292 155 514 123 0.2996 0.954065<-168.474 711.27 988.612 1244.63>
LayerCount: 2
Fore
SplineSet
-71 -258 m 1,0,-1
 -33 -42 l 1,1,-1
 -32 -33 l 1,2,-1
 110 -33 l 2,3,4
 187 -33 187 -33 220.5 -0.5 c 128,-1,5
 254 32 254 32 292 155 c 2,6,-1
 507 833 l 1,7,-1
 282 833 l 1,8,-1
 317 1025 l 1,9,-1
 318 1034 l 1,10,-1
 569 1034 l 1,11,-1
 601 1139 l 2,12,13
 650 1298 650 1298 709 1376 c 0,14,15
 829 1532 829 1532 1052 1532 c 2,16,-1
 1191 1532 l 1,17,-1
 1152 1316 l 1,18,-1
 1151 1307 l 1,19,-1
 1004 1307 l 2,20,21
 929 1307 929 1307 895.5 1271.5 c 128,-1,22
 862 1236 862 1236 822 1105 c 1,23,-1
 799 1032 l 1,24,-1
 1023 1032 l 1,25,-1
 988 840 l 1,26,-1
 987 831 l 1,27,-1
 737 831 l 1,28,-1
 514 123 l 2,29,30
 470 -19 470 -19 403 -107 c 0,31,32
 287 -258 287 -258 64 -258 c 2,33,-1
 -71 -258 l 1,0,-1
EndSplineSet
EndChar

StartChar: circumflex
Encoding: 710 710 292
Width: 1120
Flags: W
HStem: 1141 482
LayerCount: 2
Fore
SplineSet
148 1273 m 1,0,-1
 622 1623 l 1,1,-1
 972 1273 l 1,2,-1
 826 1141 l 1,3,-1
 576 1354 l 1,4,-1
 248 1141 l 1,5,-1
 148 1273 l 1,0,-1
EndSplineSet
EndChar

StartChar: caron
Encoding: 711 711 293
Width: 1120
Flags: W
HStem: 1141 482
LayerCount: 2
Fore
SplineSet
149 1491 m 1,0,-1
 294 1623 l 1,1,-1
 547 1410 l 1,2,-1
 874 1624 l 1,3,-1
 971 1491 l 1,4,-1
 499 1141 l 1,5,-1
 149 1491 l 1,0,-1
EndSplineSet
EndChar

StartChar: uni02C9
Encoding: 713 713 294
Width: 1120
Flags: W
HStem: 1219 201<202 918>
LayerCount: 2
Fore
SplineSet
168 1219 m 1,0,-1
 202 1420 l 1,1,-1
 952 1420 l 1,2,-1
 918 1219 l 1,3,-1
 168 1219 l 1,0,-1
EndSplineSet
EndChar

StartChar: breve
Encoding: 728 728 295
Width: 1120
Flags: W
HStem: 1192 201<393.006 694.032>
VStem: 178.125 203<1414.57 1547>
LayerCount: 2
Fore
SplineSet
178.125 1463 m 0,0,1
 177.125 1487 177.125 1487 180.125 1514 c 2,2,-1
 184.125 1547 l 1,3,-1
 383.125 1547 l 1,4,-1
 381.125 1520 l 2,5,6
 376.661132812 1466.43164062 376.661132812 1466.43164062 390.125 1441 c 0,7,8
 421.125 1393 421.125 1393 540.125 1393 c 128,-1,9
 659.125 1393 659.125 1393 704.125 1447 c 0,10,11
 721.125 1468 721.125 1468 736.125 1520 c 1,12,-1
 745.125 1547 l 1,13,-1
 942.125 1547 l 1,14,-1
 934.125 1514 l 1,15,16
 858.125 1192 858.125 1192 493.125 1192 c 0,17,18
 177.125 1192 177.125 1192 178.125 1463 c 0,0,1
EndSplineSet
EndChar

StartChar: dotaccent
Encoding: 729 729 296
Width: 1120
Flags: W
HStem: 1186 345<466.339 651.941>
VStem: 384.638 347<1262.65 1454.68>
LayerCount: 2
Fore
SplineSet
384.637695312 1327 m 1,0,1
 379.083984375 1415.86816406 379.083984375 1415.86816406 448.860351562 1473.43359375 c 128,-1,2
 518.637695312 1531 518.637695312 1531 590.637695312 1531 c 128,-1,3
 662.637695312 1531 662.637695312 1531 698.637695312 1486 c 0,4,5
 748.161132812 1424.09570312 748.161132812 1424.09570312 731.637695312 1358 c 1,6,7
 719.637695312 1286 719.637695312 1286 659.637695312 1236 c 128,-1,8
 599.637695312 1186 599.637695312 1186 528.637695312 1186 c 128,-1,9
 457.637695312 1186 457.637695312 1186 420.637695312 1231 c 128,-1,10
 383.637695312 1276 383.637695312 1276 384.637695312 1327 c 1,0,1
EndSplineSet
EndChar

StartChar: ring
Encoding: 730 730 297
Width: 1120
Flags: W
HStem: 1174 150<500.792 616.417> 1462 151<503.973 619.14>
VStem: 332.5 163<1344.63 1452.32> 625.5 162<1332.4 1441.37>
LayerCount: 2
Fore
SplineSet
332.5 1353 m 0,0,1
 332.5 1469.3984375 332.5 1469.3984375 419 1541.19921875 c 128,-1,2
 505.5 1613 505.5 1613 598.5 1613 c 128,-1,3
 691.5 1613 691.5 1613 739.5 1556.5 c 128,-1,4
 787.5 1500 787.5 1500 787.5 1434 c 0,5,6
 787.5 1318.73242188 787.5 1318.73242188 701 1246.36621094 c 128,-1,7
 614.5 1174 614.5 1174 521 1174 c 128,-1,8
 427.5 1174 427.5 1174 380 1230.5 c 128,-1,9
 332.5 1287 332.5 1287 332.5 1353 c 0,0,1
495.5 1393 m 128,-1,11
 490.5 1364 490.5 1364 505.5 1344 c 128,-1,12
 520.5 1324 520.5 1324 547.5 1324 c 128,-1,13
 574.5 1324 574.5 1324 597.5 1344 c 128,-1,14
 620.5 1364 620.5 1364 625.5 1393 c 128,-1,15
 630.5 1422 630.5 1422 615 1442 c 128,-1,16
 599.5 1462 599.5 1462 572.5 1462 c 128,-1,17
 545.5 1462 545.5 1462 523 1442 c 128,-1,10
 500.5 1422 500.5 1422 495.5 1393 c 128,-1,11
EndSplineSet
EndChar

StartChar: ogonek
Encoding: 731 731 298
Width: 1120
Flags: W
HStem: -414 184<551.353 738.391>
VStem: 322 476
LayerCount: 2
Fore
SplineSet
322 -246 m 0,0,1
 322 -69.1707317073 322 -69.1707317073 517 64 c 1,2,-1
 768 64 l 1,3,-1
 699 10 l 2,4,5
 559 -99 559 -99 546 -169 c 0,6,7
 540 -202 540 -202 551 -216 c 128,-1,8
 562 -230 562 -230 610 -230 c 2,9,-1
 613 -230 l 2,10,11
 663 -230 663 -230 749 -189 c 1,12,-1
 798 -165 l 1,13,-1
 764 -360 l 1,14,-1
 743 -368 l 2,15,16
 620 -414 620 -414 523.5 -414 c 128,-1,17
 427 -414 427 -414 374.5 -365.5 c 128,-1,18
 322 -317 322 -317 322 -246 c 0,0,1
EndSplineSet
EndChar

StartChar: tilde
Encoding: 732 732 299
Width: 1120
Flags: W
HStem: 1215 201<632.83 810.033> 1336 201<331.843 514.57>
LayerCount: 2
Fore
SplineSet
94 1260 m 1,0,-1
 114 1292 l 1,1,2
 170 1378 170 1378 200 1411 c 0,3,4
 306 1537 306 1537 444 1537 c 0,5,6
 489 1537 489 1537 516.5 1526.5 c 128,-1,7
 544 1516 544 1516 604 1479 c 2,8,-1
 658 1445 l 2,9,10
 703 1416 703 1416 737.5 1416 c 128,-1,11
 772 1416 772 1416 792 1438 c 128,-1,12
 812 1460 812 1460 844 1505 c 2,13,-1
 862 1530 l 1,14,-1
 1026 1461 l 1,15,-1
 1008 1432 l 2,16,17
 962 1358 962 1358 934 1326 c 0,18,19
 828 1215 828 1215 704 1215 c 0,20,21
 622 1215 622 1215 556 1263 c 1,22,-1
 482 1314 l 2,23,24
 450 1336 450 1336 414 1336 c 128,-1,25
 378 1336 378 1336 351 1313 c 128,-1,26
 324 1290 324 1290 280 1222 c 1,27,-1
 264 1196 l 1,28,-1
 94 1260 l 1,0,-1
EndSplineSet
EndChar

StartChar: hungarumlaut
Encoding: 733 733 300
Width: 1120
Flags: W
HStem: 1132 496
LayerCount: 2
Fore
SplineSet
122 1257 m 1,0,-1
 515 1628 l 5,1,-1
 670 1483 l 5,2,-1
 238 1132 l 1,3,-1
 122 1257 l 1,0,-1
451 1257 m 1,4,-1
 819 1605 l 5,5,-1
 842 1628 l 5,6,-1
 998 1483 l 5,7,-1
 566 1132 l 1,8,-1
 451 1257 l 1,4,-1
EndSplineSet
EndChar

StartChar: uni0345
Encoding: 837 837 301
Width: 1120
Flags: W
HStem: -477 185<478.5 684.547>
VStem: 480 200<-21 179>
DStem2: 409 -221 603 -253 0.175475 0.984484<-34.8965 406.252>
LayerCount: 2
Fore
SplineSet
558 -477 m 0,0,1
 399 -477 399 -477 399 -328.5 c 0,2,3
 399 -277 399 -277 409 -221 c 2,4,-1
 480 179 l 1,5,-1
 680 179 l 1,6,-1
 603 -253 l 2,7,8
 598 -280 598 -280 601 -291 c 0,9,10
 604 -292 604 -292 610.5 -292 c 128,-1,11
 617 -292 617 -292 622 -290 c 2,12,-1
 721 -237 l 1,13,-1
 684 -447 l 1,14,-1
 663 -454 l 2,15,16
 597 -477 597 -477 558 -477 c 0,0,1
EndSplineSet
EndChar

